<?xml version="1.0" encoding="UTF-8"?>
<svg width="345px" height="85px" viewBox="0 0 345 85" version="1.1" xmlns="http://www.w3.org/2000/svg" xmlns:xlink="http://www.w3.org/1999/xlink">
    <title>Logo Copy 3</title>
    <g id="Identity" stroke="none" stroke-width="1" fill="none" fill-rule="evenodd">
        <g id="Avatar" transform="translate(-86.000000, -461.000000)">
            <g id="Logo-Copy-3" transform="translate(86.000000, 461.000000)">
                <g id="Avatar" fill="#0054FF">
                    <path d="M42.5,0 C65.9721019,0 85,19.0278981 85,42.5 C85,53.3758902 80.9147703,63.2976238 74.1951059,70.8144059 L70.5718181,67.1901361 C69.2237788,65.8420968 67.0381753,65.8420968 65.6901361,67.1901361 C64.3420968,68.5381753 64.3420968,70.7237788 65.6901361,72.0718181 L65.6901361,72.0718181 L69.192559,75.5738557 C61.8967202,81.4694174 52.610666,85 42.5,85 C19.0278981,85 0,65.9721019 0,42.5 C0,32.389334 3.53058264,23.1032798 9.42614426,15.807441 L12.4281819,18.8098639 C13.7762212,20.1579032 15.9618247,20.1579032 17.3098639,18.8098639 C18.6579032,17.4618247 18.6579032,15.2762212 17.3098639,13.9281819 L17.3098639,13.9281819 L14.1855941,10.8048941 C21.7023762,4.0852297 31.6241098,0 42.5,0 Z M48.1074671,67.2496757 C46.7685267,65.9107353 44.5976754,65.9107353 43.2587349,67.2496757 L43.2587349,67.2496757 L34.6828416,75.8255691 C33.3439012,77.1645095 33.3439012,79.3353608 34.6828416,80.6743013 C36.021782,82.0132417 38.1926334,82.0132417 39.5315738,80.6743013 L39.5315738,80.6743013 L48.1074671,72.0984079 C49.4464076,70.7594675 49.4464076,68.5886161 48.1074671,67.2496757 Z M61.1971308,55.0171549 C58.8539851,52.6740091 55.0420871,52.6869173 52.6830184,55.045986 C50.3239496,57.4050547 50.3110415,61.2169527 52.6541873,63.5600984 C54.997333,65.9032442 58.809231,65.8903361 61.1682997,63.5312674 C63.5273685,61.1721986 63.5402766,57.3603006 61.1971308,55.0171549 Z M39.7146752,36.3329932 C38.366636,34.9849539 36.1810325,34.9849539 34.8329932,36.3329932 C33.4849539,37.6810325 33.4849539,39.866636 34.8329932,41.2146752 L34.8329932,41.2146752 L43.2853248,49.6670068 C44.633364,51.0150461 46.8189675,51.0150461 48.1670068,49.6670068 C49.5150461,48.3189675 49.5150461,46.133364 48.1670068,44.7853248 L48.1670068,44.7853248 Z M30.339988,24.160012 C27.9968422,21.8168663 24.1849442,21.8297744 21.8258755,24.1888431 C19.4668068,26.5479118 19.4538987,30.3598098 21.7970444,32.7029556 C24.1401902,35.0461013 27.9520882,35.0331932 30.3111569,32.6741245 C32.6702256,30.3150558 32.6831337,26.5031578 30.339988,24.160012 Z M48.3171584,5.32569873 C46.978218,3.98675831 44.8073666,3.98675831 43.4684262,5.32569873 L43.4684262,5.32569873 L34.8925329,13.9015921 C33.5535924,15.2405325 33.5535924,17.4113839 34.8925329,18.7503243 C36.2314733,20.0892647 38.4023246,20.0892647 39.7412651,18.7503243 L39.7412651,18.7503243 L48.3171584,10.1744309 C49.6560988,8.83549052 49.6560988,6.66463916 48.3171584,5.32569873 Z" id="Bg"></path>
                    <path d="M42.5,-2.20268248e-13 C65.9721019,-2.20268248e-13 85,19.0278981 85,42.5 C85,53.3758902 80.9147703,63.2976238 74.1951059,70.8144059 L70.5718181,67.1901361 C69.2237788,65.8420968 67.0381753,65.8420968 65.6901361,67.1901361 C64.3420968,68.5381753 64.3420968,70.7237788 65.6901361,72.0718181 L65.6901361,72.0718181 L69.192559,75.5738557 C61.8967202,81.4694174 52.610666,85 42.5,85 C19.0278981,85 2.7000624e-13,65.9721019 2.7000624e-13,42.5 C2.7000624e-13,32.389334 3.53058264,23.1032798 9.42614426,15.807441 L12.4281819,18.8098639 C13.7762212,20.1579032 15.9618247,20.1579032 17.3098639,18.8098639 C18.6579032,17.4618247 18.6579032,15.2762212 17.3098639,13.9281819 L17.3098639,13.9281819 L14.1855941,10.8048941 C21.7023762,4.0852297 31.6241098,-2.20268248e-13 42.5,-2.20268248e-13 Z M48.1074671,67.2496757 C46.7685267,65.9107353 44.5976754,65.9107353 43.2587349,67.2496757 L43.2587349,67.2496757 L34.6828416,75.8255691 C33.3439012,77.1645095 33.3439012,79.3353608 34.6828416,80.6743013 C36.021782,82.0132417 38.1926334,82.0132417 39.5315738,80.6743013 L39.5315738,80.6743013 L48.1074671,72.0984079 C49.4464076,70.7594675 49.4464076,68.5886161 48.1074671,67.2496757 Z M61.1971308,55.0171549 C58.8539851,52.6740091 55.0420871,52.6869173 52.6830184,55.045986 C50.3239496,57.4050547 50.3110415,61.2169527 52.6541873,63.5600984 C54.997333,65.9032442 58.809231,65.8903361 61.1682997,63.5312674 C63.5273685,61.1721986 63.5402766,57.3603006 61.1971308,55.0171549 Z M39.7146752,36.3329932 C38.366636,34.9849539 36.1810325,34.9849539 34.8329932,36.3329932 C33.4849539,37.6810325 33.4849539,39.866636 34.8329932,41.2146752 L34.8329932,41.2146752 L43.2853248,49.6670068 C44.633364,51.0150461 46.8189675,51.0150461 48.1670068,49.6670068 C49.5150461,48.3189675 49.5150461,46.133364 48.1670068,44.7853248 L48.1670068,44.7853248 Z M30.339988,24.160012 C27.9968422,21.8168663 24.1849442,21.8297744 21.8258755,24.1888431 C19.4668068,26.5479118 19.4538987,30.3598098 21.7970444,32.7029556 C24.1401902,35.0461013 27.9520882,35.0331932 30.3111569,32.6741245 C32.6702256,30.3150558 32.6831337,26.5031578 30.339988,24.160012 Z M48.3171584,5.32569873 C46.978218,3.98675831 44.8073666,3.98675831 43.4684262,5.32569873 L43.4684262,5.32569873 L34.8925329,13.9015921 C33.5535924,15.2405325 33.5535924,17.4113839 34.8925329,18.7503243 C36.2314733,20.0892647 38.4023246,20.0892647 39.7412651,18.7503243 L39.7412651,18.7503243 L48.3171584,10.1744309 C49.6560988,8.83549052 49.6560988,6.66463916 48.3171584,5.32569873 Z" id="Stripes"></path>
                </g>
                <g id="Aleph.im" transform="translate(100.040000, 15.000000)" fill="#000000">
                    <path d="M11.4884157,46.8130531 C13.6604671,46.8130531 15.5459284,46.377028 17.1447995,45.5049779 C18.7436707,44.6329277 20.0760633,43.0612094 21.1419774,40.789823 L21.1419774,40.789823 L21.8659946,46.204646 L29.2268353,46.204646 L29.2268353,24.0890487 C29.2268353,22.0407448 28.7944362,20.2712942 27.929638,18.7806969 C27.0648398,17.2900996 25.6670845,16.1442662 23.7363721,15.3431969 C21.8056598,14.5421276 19.2414325,14.1415929 16.0436902,14.1415929 C13.4492954,14.1415929 11.1314351,14.5015671 9.09010899,15.2215155 C7.04878292,15.9414639 5.43482808,17.0365966 4.24824445,18.5069137 C3.06166083,19.9772308 2.40803425,21.8480826 2.28736473,24.119469 L2.28736473,24.119469 L9.61803815,24.119469 C10.0403815,22.659292 10.8297613,21.6351401 11.9861775,21.0470133 C13.1425937,20.4588864 14.3643726,20.1546829 15.6515142,20.1344027 C17.4012223,20.1141224 18.6933917,20.4943768 19.5280226,21.2751659 C20.3626534,22.055955 20.7799689,23.1662979 20.7799689,24.6061947 L20.7799689,24.6061947 L20.7799689,26.4922566 L16.8883768,26.5530973 C11.377802,26.6139381 7.34542883,27.5417588 4.7912573,29.3365597 C2.23708577,31.1313606 0.96,33.7525811 0.96,37.2002212 C0.96,39.2485251 1.4225665,40.9875553 2.34769949,42.4173119 C3.27283249,43.8470686 4.52980667,44.9371313 6.11862203,45.6875 C7.70743739,46.4378687 9.49736863,46.8130531 11.4884157,46.8130531 Z M14.444819,40.9723451 C13.0168963,40.9723451 11.8001453,40.5616704 10.794566,39.7403208 C9.78898664,38.9189712 9.28619696,37.778208 9.28619696,36.318031 C9.28619696,35.0403761 9.67334501,34.0263643 10.4476411,33.2759956 C11.2219372,32.5256268 12.2426002,31.9831305 13.5096302,31.6485066 C14.7766602,31.3138827 16.1442481,31.1364307 17.6123939,31.1161504 L17.6123939,31.1161504 L20.7799689,31.0553097 L20.7799689,35.7096239 C20.7799689,36.3788717 20.5989646,37.0278392 20.236956,37.6565265 C19.8749475,38.2852139 19.3972973,38.8479904 18.8040054,39.3448562 C18.2107136,39.841722 17.5369755,40.2371866 16.782791,40.53125 C16.0286065,40.8253134 15.2492825,40.9723451 14.444819,40.9723451 Z M46.9954223,46.7522124 C47.5987699,46.7522124 48.2121733,46.6761615 48.8356325,46.5240597 C49.4590917,46.371958 50.0724951,46.1945059 50.6758427,45.9917035 L50.6758427,45.9917035 L50.6758427,40.5160398 L49.1976411,40.4247788 C47.8300532,40.2625369 46.8998923,39.8214417 46.4071584,39.1014934 C45.9144245,38.381545 45.6680576,37.4435841 45.6680576,36.2876106 L45.6680576,36.2876106 L45.6680576,1 L37.0401868,1 L37.0401868,37.3827434 C37.0401868,38.5184366 37.130689,39.6389196 37.3116933,40.7441925 C37.4926975,41.8494653 37.9049851,42.853337 38.5485559,43.7558075 C39.1921266,44.658278 40.1876502,45.3832965 41.5351265,45.9308628 C42.8826028,46.4784292 44.7027014,46.7522124 46.9954223,46.7522124 Z M70.7371506,46.8130531 C72.909202,46.8130531 75.0008071,46.3973083 77.0119657,45.5658186 C79.0231244,44.7343289 80.7376372,43.5276549 82.1555041,41.9457965 C83.573371,40.3639381 84.4532529,38.4575959 84.7951499,36.2267699 L84.7951499,36.2267699 L76.8611288,36.2267699 C76.4186739,37.7072271 75.6292941,38.7719395 74.4929895,39.4209071 C73.3566848,40.0698746 72.034348,40.3943584 70.525979,40.3943584 C69.1181679,40.3943584 67.9165006,40.0749447 66.920977,39.4361173 C65.9254535,38.7972898 65.1662411,37.8846792 64.6433398,36.6982854 C64.1204386,35.5118916 63.8690437,34.1176254 63.8891553,32.5154867 L63.8891553,32.5154867 L84.8253172,32.5154867 L84.8253172,30.1122788 C84.8253172,26.9688422 84.2772765,24.1955199 83.181195,21.7923119 C82.0851135,19.389104 80.456075,17.5131822 78.2940794,16.1645465 C76.1320838,14.8159108 73.4622707,14.1415929 70.2846399,14.1415929 C67.1070092,14.1415929 64.3869171,14.8767515 62.1243636,16.3470686 C59.86181,17.8173857 58.1372415,19.8149889 56.9506578,22.3398783 C55.7640742,24.8647677 55.1707824,27.6989307 55.1707824,30.8423673 C55.1707824,34.087205 55.824409,36.9061578 57.1316621,39.2992257 C58.4389153,41.6922935 60.2640418,43.542865 62.6070417,44.8509403 C64.9500415,46.1590155 67.6600779,46.8130531 70.7371506,46.8130531 Z M76.5896224,27.2223451 L63.8589879,27.2223451 C63.8589879,26.0663717 64.1103828,24.9610988 64.6131724,23.9065265 C65.1159621,22.8519543 65.8450071,21.9951143 66.8003075,21.3360066 C67.7556079,20.676899 68.917052,20.3473451 70.2846399,20.3473451 C71.692451,20.3473451 72.863951,20.6515487 73.7991397,21.2599558 C74.7343285,21.8683628 75.4332062,22.6998525 75.8957727,23.7544248 C76.3583392,24.8089971 76.5896224,25.9649705 76.5896224,27.2223451 L76.5896224,27.2223451 Z M99.7581705,56 L99.7581705,41.4894912 C100.200625,42.2398599 100.718499,42.934458 101.311791,43.5732854 C101.905082,44.2121128 102.578821,44.7748894 103.333005,45.261615 C104.08719,45.7483407 104.906737,46.1285951 105.791647,46.4023783 C106.676556,46.6761615 107.621801,46.8130531 108.62738,46.8130531 C111.080994,46.8130531 113.283213,46.2249263 115.234037,45.0486726 C117.184861,43.8724189 118.718369,42.0624078 119.834562,39.6186394 C120.950755,37.1748709 121.508852,34.0466445 121.508852,30.2339602 C121.508852,26.5632375 120.990978,23.5364122 119.955232,21.1534845 C118.919485,18.7705568 117.49659,17.0061763 115.686547,15.8603429 C113.876504,14.7145096 111.815067,14.1415929 109.502234,14.1415929 C108.43632,14.1415929 107.420685,14.2683444 106.455329,14.5218473 C105.489973,14.7753503 104.595007,15.1353245 103.770432,15.6017699 C102.945857,16.0682153 102.1967,16.6107117 101.522962,17.2292588 C100.849224,17.847806 100.281072,18.532264 99.8185053,19.2826327 L99.8185053,19.2826327 L99.7883379,14.75 L90.9492954,14.75 L90.9492954,56 L99.7581705,56 Z M106.515664,40.3030973 C104.987183,40.3030973 103.725181,39.8366519 102.729657,38.9037611 C101.734134,37.9708702 100.990005,36.7439159 100.497271,35.2228982 C100.004537,33.7018805 99.7581705,32.0591814 99.7581705,30.2948009 C99.7581705,27.5366888 100.316267,25.2298119 101.43246,23.3741704 C102.548653,21.5185288 104.243054,20.590708 106.515664,20.590708 C108.546934,20.590708 110.181,21.4475479 111.417863,23.1612279 C112.654726,24.8749078 113.273157,27.2527655 113.273157,30.2948009 C113.273157,33.7627212 112.624558,36.2977507 111.327361,37.8998894 C110.030163,39.502028 108.426264,40.3030973 106.515664,40.3030973 Z M136.170199,46.204646 L136.170199,26.1272124 C136.170199,25.0929204 136.446733,24.2259403 136.999801,23.5262721 C137.55287,22.826604 138.271859,22.3043879 139.156769,21.9596239 C140.041679,21.6148599 140.956756,21.4424779 141.902001,21.4424779 C143.350035,21.4424779 144.58187,21.8227323 145.597505,22.5832412 C146.61314,23.34375 147.120958,24.4338127 147.120958,25.8534292 L147.120958,25.8534292 L147.120958,46.204646 L155.96,46.204646 L155.96,24.545354 C155.96,22.4159292 155.462238,20.6109882 154.466715,19.130531 C153.471191,17.6500737 152.153882,16.5194506 150.514788,15.7386615 C148.875694,14.9578724 147.060623,14.5674779 145.069576,14.5674779 C143.420426,14.5674779 142.02267,14.8108407 140.87631,15.2975664 C139.729949,15.784292 138.774649,16.3876291 138.010409,17.1075774 C137.246168,17.8275258 136.612653,18.5525442 136.109864,19.2826327 L136.109864,19.2826327 L136.109864,1 L127.361323,1 L127.361323,46.204646 L136.170199,46.204646 Z" id="aleph" fill-rule="nonzero"></path>
                    <path d="M189.337979,46 L189.337979,14.6072106 L180.96,14.6072106 L180.96,46 L189.337979,46 Z M206.063908,46 L206.063908,25.9013283 C206.063908,24.8488299 206.334166,23.9734345 206.874681,23.2751423 C207.415195,22.5768501 208.085834,22.0607211 208.886597,21.7267552 C209.687359,21.3927894 210.488122,21.2258065 211.288885,21.2258065 C212.069628,21.2258065 212.835357,21.3927894 213.586072,21.7267552 C214.336787,22.0607211 214.962383,22.5515497 215.46286,23.199241 C215.963337,23.8469323 216.213575,24.6464263 216.213575,25.597723 L216.213575,25.597723 L216.213575,46 L224.951897,46 L224.951897,25.9013283 C224.951897,24.7881088 225.232164,23.887413 225.792698,23.199241 C226.353232,22.5110689 227.03388,22.0101202 227.834643,21.6963947 C228.635405,21.3826692 229.426158,21.2258065 230.206902,21.2258065 C231.047703,21.2258065 231.84346,21.3927894 232.594175,21.7267552 C233.34489,22.0607211 233.965481,22.6072106 234.455949,23.3662239 C234.946416,24.1252372 235.191649,25.1321948 235.191649,26.3870968 L235.191649,26.3870968 L235.191649,46 L243.96,46 L243.96,25.2941176 C243.96,23.1688805 243.654709,21.3826692 243.044128,19.9354839 C242.433546,18.4882985 241.627779,17.3295383 240.626826,16.459203 C239.625872,15.5888678 238.529828,14.9614168 237.338694,14.5768501 C236.14756,14.1922834 234.971439,14 233.810334,14 C231.808427,14 229.991697,14.4807084 228.360143,15.4421252 C226.728589,16.4035421 225.412336,17.602783 224.411382,19.0398482 C223.81081,17.9266287 223.025062,17.0006325 222.054137,16.2618596 C221.083213,15.5230867 220.047226,14.9614168 218.946177,14.5768501 C217.845129,14.1922834 216.764099,14 215.703089,14 C213.280782,14 211.27387,14.4958887 209.682355,15.487666 C208.090839,16.4794434 206.824633,17.6635041 205.883737,19.0398482 L205.883737,19.0398482 L205.883737,14.6072106 L197.295558,14.6072106 L197.295558,46 L206.063908,46 Z" id="im" fill-rule="nonzero"></path>
                    <circle id="Oval-Copy-4" cx="185.46" cy="4.5" r="4.5"></circle>
                    <circle id="Oval-Copy-5" cx="168.46" cy="41.5" r="4.5"></circle>
                </g>
            </g>
        </g>
    </g>
</svg>