<?xml version="1.0" encoding="UTF-8"?>
<svg width="425px" height="85px" viewBox="0 0 425 85" version="1.1" xmlns="http://www.w3.org/2000/svg" xmlns:xlink="http://www.w3.org/1999/xlink">
    <title>Logo</title>
    <g id="Identity" stroke="none" stroke-width="1" fill="none" fill-rule="evenodd">
        <g id="Avatar" transform="translate(-194.000000, -112.000000)">
            <g id="Logo" transform="translate(194.000000, 112.000000)">
                <g id="Avatar">
                    <path d="M42.5,0 C65.9721019,0 85,19.0278981 85,42.5 C85,53.3758902 80.9147703,63.2976238 74.1951059,70.8144059 L70.5718181,67.1901361 C69.2237788,65.8420968 67.0381753,65.8420968 65.6901361,67.1901361 C64.3420968,68.5381753 64.3420968,70.7237788 65.6901361,72.0718181 L65.6901361,72.0718181 L69.192559,75.5738557 C61.8967202,81.4694174 52.610666,85 42.5,85 C19.0278981,85 0,65.9721019 0,42.5 C0,32.389334 3.53058264,23.1032798 9.42614426,15.807441 L12.4281819,18.8098639 C13.7762212,20.1579032 15.9618247,20.1579032 17.3098639,18.8098639 C18.6579032,17.4618247 18.6579032,15.2762212 17.3098639,13.9281819 L17.3098639,13.9281819 L14.1855941,10.8048941 C21.7023762,4.0852297 31.6241098,0 42.5,0 Z M48.1074671,67.2496757 C46.7685267,65.9107353 44.5976754,65.9107353 43.2587349,67.2496757 L43.2587349,67.2496757 L34.6828416,75.8255691 C33.3439012,77.1645095 33.3439012,79.3353608 34.6828416,80.6743013 C36.021782,82.0132417 38.1926334,82.0132417 39.5315738,80.6743013 L39.5315738,80.6743013 L48.1074671,72.0984079 C49.4464076,70.7594675 49.4464076,68.5886161 48.1074671,67.2496757 Z M61.1971308,55.0171549 C58.8539851,52.6740091 55.0420871,52.6869173 52.6830184,55.045986 C50.3239496,57.4050547 50.3110415,61.2169527 52.6541873,63.5600984 C54.997333,65.9032442 58.809231,65.8903361 61.1682997,63.5312674 C63.5273685,61.1721986 63.5402766,57.3603006 61.1971308,55.0171549 Z M39.7146752,36.3329932 C38.366636,34.9849539 36.1810325,34.9849539 34.8329932,36.3329932 C33.4849539,37.6810325 33.4849539,39.866636 34.8329932,41.2146752 L34.8329932,41.2146752 L43.2853248,49.6670068 C44.633364,51.0150461 46.8189675,51.0150461 48.1670068,49.6670068 C49.5150461,48.3189675 49.5150461,46.133364 48.1670068,44.7853248 L48.1670068,44.7853248 Z M30.339988,24.160012 C27.9968422,21.8168663 24.1849442,21.8297744 21.8258755,24.1888431 C19.4668068,26.5479118 19.4538987,30.3598098 21.7970444,32.7029556 C24.1401902,35.0461013 27.9520882,35.0331932 30.3111569,32.6741245 C32.6702256,30.3150558 32.6831337,26.5031578 30.339988,24.160012 Z M48.3171584,5.32569873 C46.978218,3.98675831 44.8073666,3.98675831 43.4684262,5.32569873 L43.4684262,5.32569873 L34.8925329,13.9015921 C33.5535924,15.2405325 33.5535924,17.4113839 34.8925329,18.7503243 C36.2314733,20.0892647 38.4023246,20.0892647 39.7412651,18.7503243 L39.7412651,18.7503243 L48.3171584,10.1744309 C49.6560988,8.83549052 49.6560988,6.66463916 48.3171584,5.32569873 Z" id="Bg" fill="#0054FF"></path>
                    <path d="M48.1074671,67.2496757 C49.4464076,68.5886161 49.4464076,70.7594675 48.1074671,72.0984079 L39.5315738,80.6743013 C38.1926334,82.0132417 36.021782,82.0132417 34.6828416,80.6743013 C33.3439012,79.3353608 33.3439012,77.1645095 34.6828416,75.8255691 L43.2587349,67.2496757 C44.5976754,65.9107353 46.7685267,65.9107353 48.1074671,67.2496757 Z M70.5718181,67.1901361 L74.1957021,70.813739 C72.6598455,72.5318583 70.9863565,74.1243385 69.192559,75.5738557 L65.6901361,72.0718181 C64.3420968,70.7237788 64.3420968,68.5381753 65.6901361,67.1901361 C67.0381753,65.8420968 69.2237788,65.8420968 70.5718181,67.1901361 Z M61.1971308,55.0171549 C63.5402766,57.3603006 63.5273685,61.1721986 61.1682997,63.5312674 C58.809231,65.8903361 54.997333,65.9032442 52.6541873,63.5600984 C50.3110415,61.2169527 50.3239496,57.4050547 52.6830184,55.045986 C55.0420871,52.6869173 58.8539851,52.6740091 61.1971308,55.0171549 Z M39.7146752,36.3329932 L48.1670068,44.7853248 C49.5150461,46.133364 49.5150461,48.3189675 48.1670068,49.6670068 C46.8189675,51.0150461 44.633364,51.0150461 43.2853248,49.6670068 L34.8329932,41.2146752 C33.4849539,39.866636 33.4849539,37.6810325 34.8329932,36.3329932 C36.1810325,34.9849539 38.366636,34.9849539 39.7146752,36.3329932 Z M30.339988,24.160012 C32.6831337,26.5031578 32.6702256,30.3150558 30.3111569,32.6741245 C27.9520882,35.0331932 24.1401902,35.0461013 21.7970444,32.7029556 C19.4538987,30.3598098 19.4668068,26.5479118 21.8258755,24.1888431 C24.1849442,21.8297744 27.9968422,21.8168663 30.339988,24.160012 Z M14.186261,10.8042979 L17.3098639,13.9281819 C18.6579032,15.2762212 18.6579032,17.4618247 17.3098639,18.8098639 C15.9618247,20.1579032 13.7762212,20.1579032 12.4281819,18.8098639 L9.4260832,15.8075166 C10.8756167,14.0136905 12.4681175,12.3401761 14.186261,10.8042979 Z M48.3171584,5.32569873 C49.6560988,6.66463916 49.6560988,8.83549052 48.3171584,10.1744309 L39.7412651,18.7503243 C38.4023246,20.0892647 36.2314733,20.0892647 34.8925329,18.7503243 C33.5535924,17.4113839 33.5535924,15.2405325 34.8925329,13.9015921 L43.4684262,5.32569873 C44.8073666,3.98675831 46.978218,3.98675831 48.3171584,5.32569873 Z" id="Stripes" fill="#FFFFFF"></path>
                </g>
                <g id="Aleph.im" transform="translate(101.040000, 4.000000)" fill="#000000">
                    <path d="M13.96,61.8 C16.84,61.8 19.34,61.2266667 21.46,60.08 C23.58,58.9333333 25.3466667,56.8666667 26.76,53.88 L26.76,53.88 L27.72,61 L37.48,61 L37.48,31.92 C37.48,29.2266667 36.9066667,26.9 35.76,24.94 C34.6133333,22.98 32.76,21.4733333 30.2,20.42 C27.64,19.3666667 24.24,18.84 20,18.84 C16.56,18.84 13.4866667,19.3133333 10.78,20.26 C8.07333333,21.2066667 5.93333333,22.6466667 4.36,24.58 C2.78666667,26.5133333 1.92,28.9733333 1.76,31.96 L1.76,31.96 L11.48,31.96 C12.04,30.04 13.0866667,28.6933333 14.62,27.92 C16.1533333,27.1466667 17.7733333,26.7466667 19.48,26.72 C21.8,26.6933333 23.5133333,27.1933333 24.62,28.22 C25.7266667,29.2466667 26.28,30.7066667 26.28,32.6 L26.28,32.6 L26.28,35.08 L21.12,35.16 C13.8133333,35.24 8.46666667,36.46 5.08,38.82 C1.69333333,41.18 2.27373675e-13,44.6266667 2.27373675e-13,49.16 C2.27373675e-13,51.8533333 0.613333333,54.14 1.84,56.02 C3.06666667,57.9 4.73333333,59.3333333 6.84,60.32 C8.94666667,61.3066667 11.32,61.8 13.96,61.8 Z M17.88,54.12 C15.9866667,54.12 14.3733333,53.58 13.04,52.5 C11.7066667,51.42 11.04,49.92 11.04,48 C11.04,46.32 11.5533333,44.9866667 12.58,44 C13.6066667,43.0133333 14.96,42.3 16.64,41.86 C18.32,41.42 20.1333333,41.1866667 22.08,41.16 L22.08,41.16 L26.28,41.08 L26.28,47.2 C26.28,48.08 26.04,48.9333333 25.56,49.76 C25.08,50.5866667 24.4466667,51.3266667 23.66,51.98 C22.8733333,52.6333333 21.98,53.1533333 20.98,53.54 C19.98,53.9266667 18.9466667,54.12 17.88,54.12 Z M61.04,61.72 C61.84,61.72 62.6533333,61.62 63.48,61.42 C64.3066667,61.22 65.12,60.9866667 65.92,60.72 L65.92,60.72 L65.92,53.52 L63.96,53.4 C62.1466667,53.1866667 60.9133333,52.6066667 60.26,51.66 C59.6066667,50.7133333 59.28,49.48 59.28,47.96 L59.28,47.96 L59.28,1.56 L47.84,1.56 L47.84,49.4 C47.84,50.8933333 47.96,52.3666667 48.2,53.82 C48.44,55.2733333 48.9866667,56.5933333 49.84,57.78 C50.6933333,58.9666667 52.0133333,59.92 53.8,60.64 C55.5866667,61.36 58,61.72 61.04,61.72 Z M92.52,61.8 C95.4,61.8 98.1733333,61.2533333 100.84,60.16 C103.506667,59.0666667 105.78,57.48 107.66,55.4 C109.54,53.32 110.706667,50.8133333 111.16,47.88 L111.16,47.88 L100.64,47.88 C100.053333,49.8266667 99.0066667,51.2266667 97.5,52.08 C95.9933333,52.9333333 94.24,53.36 92.24,53.36 C90.3733333,53.36 88.78,52.94 87.46,52.1 C86.14,51.26 85.1333333,50.06 84.44,48.5 C83.7466667,46.94 83.4133333,45.1066667 83.44,43 L83.44,43 L111.2,43 L111.2,39.84 C111.2,35.7066667 110.473333,32.06 109.02,28.9 C107.566667,25.74 105.406667,23.2733333 102.54,21.5 C99.6733333,19.7266667 96.1333333,18.84 91.92,18.84 C87.7066667,18.84 84.1,19.8066667 81.1,21.74 C78.1,23.6733333 75.8133333,26.3 74.24,29.62 C72.6666667,32.94 71.88,36.6666667 71.88,40.8 C71.88,45.0666667 72.7466667,48.7733333 74.48,51.92 C76.2133333,55.0666667 78.6333333,57.5 81.74,59.22 C84.8466667,60.94 88.44,61.8 92.52,61.8 Z M100.28,36.04 L83.4,36.04 C83.4,34.52 83.7333333,33.0666667 84.4,31.68 C85.0666667,30.2933333 86.0333333,29.1666667 87.3,28.3 C88.5666667,27.4333333 90.1066667,27 91.92,27 C93.7866667,27 95.34,27.4 96.58,28.2 C97.82,29 98.7466667,30.0933333 99.36,31.48 C99.9733333,32.8666667 100.28,34.3866667 100.28,36.04 L100.28,36.04 Z M131,73.88 L131,54.8 C131.586667,55.7866667 132.273333,56.7 133.06,57.54 C133.846667,58.38 134.74,59.12 135.74,59.76 C136.74,60.4 137.826667,60.9 139,61.26 C140.173333,61.62 141.426667,61.8 142.76,61.8 C146.013333,61.8 148.933333,61.0266667 151.52,59.48 C154.106667,57.9333333 156.14,55.5533333 157.62,52.34 C159.1,49.1266667 159.84,45.0133333 159.84,40 C159.84,35.1733333 159.153333,31.1933333 157.78,28.06 C156.406667,24.9266667 154.52,22.6066667 152.12,21.1 C149.72,19.5933333 146.986667,18.84 143.92,18.84 C142.506667,18.84 141.16,19.0066667 139.88,19.34 C138.6,19.6733333 137.413333,20.1466667 136.32,20.76 C135.226667,21.3733333 134.233333,22.0866667 133.34,22.9 C132.446667,23.7133333 131.693333,24.6133333 131.08,25.6 L131.08,25.6 L131.04,19.64 L119.32,19.64 L119.32,73.88 L131,73.88 Z M139.96,53.24 C137.933333,53.24 136.26,52.6266667 134.94,51.4 C133.62,50.1733333 132.633333,48.56 131.98,46.56 C131.326667,44.56 131,42.4 131,40.08 C131,36.4533333 131.74,33.42 133.22,30.98 C134.7,28.54 136.946667,27.32 139.96,27.32 C142.653333,27.32 144.82,28.4466667 146.46,30.7 C148.1,32.9533333 148.92,36.08 148.92,40.08 C148.92,44.64 148.06,47.9733333 146.34,50.08 C144.62,52.1866667 142.493333,53.24 139.96,53.24 Z M179.28,61 L179.28,34.6 C179.28,33.24 179.646667,32.1 180.38,31.18 C181.113333,30.26 182.066667,29.5733333 183.24,29.12 C184.413333,28.6666667 185.626667,28.44 186.88,28.44 C188.8,28.44 190.433333,28.94 191.78,29.94 C193.126667,30.94 193.8,32.3733333 193.8,34.24 L193.8,34.24 L193.8,61 L205.52,61 L205.52,32.52 C205.52,29.72 204.86,27.3466667 203.54,25.4 C202.22,23.4533333 200.473333,21.9666667 198.3,20.94 C196.126667,19.9133333 193.72,19.4 191.08,19.4 C188.893333,19.4 187.04,19.72 185.52,20.36 C184,21 182.733333,21.7933333 181.72,22.74 C180.706667,23.6866667 179.866667,24.64 179.2,25.6 L179.2,25.6 L179.2,1.56 L167.6,1.56 L167.6,61 L179.28,61 Z" id="aleph" fill-rule="nonzero"></path>
                    <path d="M249.72,61 L249.72,19.64 L238.56,19.64 L238.56,61 L249.72,61 Z M272,61 L272,34.52 C272,33.1333333 272.36,31.98 273.08,31.06 C273.8,30.14 274.693333,29.46 275.76,29.02 C276.826667,28.58 277.893333,28.36 278.96,28.36 C280,28.36 281.02,28.58 282.02,29.02 C283.02,29.46 283.853333,30.1066667 284.52,30.96 C285.186667,31.8133333 285.52,32.8666667 285.52,34.12 L285.52,34.12 L285.52,61 L297.16,61 L297.16,34.52 C297.16,33.0533333 297.533333,31.8666667 298.28,30.96 C299.026667,30.0533333 299.933333,29.3933333 301,28.98 C302.066667,28.5666667 303.12,28.36 304.16,28.36 C305.28,28.36 306.34,28.58 307.34,29.02 C308.34,29.46 309.166667,30.18 309.82,31.18 C310.473333,32.18 310.8,33.5066667 310.8,35.16 L310.8,35.16 L310.8,61 L322.48,61 L322.48,33.72 C322.48,30.92 322.073333,28.5666667 321.26,26.66 C320.446667,24.7533333 319.373333,23.2266667 318.04,22.08 C316.706667,20.9333333 315.246667,20.1066667 313.66,19.6 C312.073333,19.0933333 310.506667,18.84 308.96,18.84 C306.293333,18.84 303.873333,19.4733333 301.7,20.74 C299.526667,22.0066667 297.773333,23.5866667 296.44,25.48 C295.64,24.0133333 294.593333,22.7933333 293.3,21.82 C292.006667,20.8466667 290.626667,20.1066667 289.16,19.6 C287.693333,19.0933333 286.253333,18.84 284.84,18.84 C281.613333,18.84 278.94,19.4933333 276.82,20.8 C274.7,22.1066667 273.013333,23.6666667 271.76,25.48 L271.76,25.48 L271.76,19.64 L260.32,19.64 L260.32,61 L272,61 Z" id="im" fill-rule="nonzero"></path>
                    <circle id="Oval-Copy-4" cx="243.96" cy="6" r="6"></circle>
                    <circle id="Oval-Copy-5" cx="221.96" cy="55" r="6"></circle>
                </g>
            </g>
        </g>
    </g>
</svg>