<?xml version="1.0" encoding="UTF-8"?>
<svg width="30px" height="30px" viewBox="0 0 30 30" version="1.1" xmlns="http://www.w3.org/2000/svg" xmlns:xlink="http://www.w3.org/1999/xlink">
    <title>Logo Copy 3</title>
    <g id="Identity" stroke="none" stroke-width="1" fill="none" fill-rule="evenodd">
        <g id="Avatar" transform="translate(-392.000000, -421.000000)" fill="#0054FF">
            <g id="Avatar" transform="translate(392.000000, 421.000000)">
                <path d="M15,0 C23.2842712,0 30,6.71572875 30,15 C30,18.8384161 28.5582544,22.3400944 26.1867552,24.9930431 L24.9077005,23.7141657 C24.4319219,23.2383871 23.6605325,23.2383871 23.1847539,23.7141657 C22.7406939,24.1582257 22.7110899,24.8597956 23.0959419,25.3381902 L23.1847539,25.4371123 L24.4202723,26.6736353 C21.845366,28.7541155 18.5681789,30 15,30 C6.71572875,30 0,23.2842712 0,15 C0,11.431355 1.24620997,8.15377793 3.32717998,5.57871873 L3.3263647,5.57972767 L3.933,6.185 L4.38641715,6.63877551 C4.60844714,6.8608055 4.89485463,6.9792215 5.18555394,6.9940235 L5.31022695,6.9940235 L5.31022695,6.9940235 L5.43437443,6.98133607 C5.68144315,6.94327379 5.91905232,6.82908693 6.10936374,6.63877551 C6.55342374,6.19471551 6.58302774,5.49314558 6.19817574,5.01475093 L6.10936374,4.91582891 L5.00695688,3.81324476 C7.6599056,1.44174556 11.1615839,0 15,0 Z M15.3660431,23.6469671 L15.2677888,23.7351797 L12.2410029,26.7619655 C11.7684357,27.2345328 11.7684357,28.0007156 12.2410029,28.4732828 C12.4615343,28.6938142 12.7460086,28.8114309 13.0347458,28.826133 L13.1585773,28.826133 L13.1585773,28.826133 L13.2818868,28.8135312 C13.4863877,28.7820267 13.6843638,28.6980148 13.8540658,28.5614953 L13.9523202,28.4732828 L16.979106,25.4464969 C17.4516733,24.9739297 17.4516733,24.2077469 16.979106,23.7351797 C16.5380433,23.2941169 15.8412088,23.2647128 15.3660431,23.6469671 Z M18.5940065,19.4279951 C17.761394,20.2606075 17.7568382,21.6059833 18.5838308,22.4329759 C18.9973271,22.8464722 19.5404192,23.0520814 20.0842138,23.05024 L20.2472443,23.0434645 C20.7356259,23.00447 21.2141361,22.7974759 21.5888117,22.4228002 C22.4214242,21.5901878 22.42598,20.244812 21.5989873,19.4178194 C21.2268407,19.0456727 20.7497214,18.8419146 20.2615928,18.8062268 L20.0986044,18.8005553 C19.5548098,18.8023967 19.0103127,19.0116888 18.5940065,19.4279951 Z M12.2939976,12.8234094 C11.8499376,13.2674694 11.8203336,13.9690393 12.2051856,14.4474339 L12.2939976,14.546356 L15.2771735,17.5295318 C15.4992034,17.7515618 15.7856109,17.8699778 16.0763102,17.8847798 L16.2009833,17.8847798 L16.2009833,17.8847798 L16.3251307,17.8720924 C16.5721994,17.8340301 16.8098086,17.7198432 17.00012,17.5295318 C17.44418,17.0854718 17.473784,16.3839019 17.088932,15.9055072 L17.00012,15.8065852 L14.0169442,12.8234094 C13.5411656,12.3476308 12.7697762,12.3476308 12.2939976,12.8234094 Z M7.70325018,8.53723875 C6.87063769,9.36985124 6.86608189,10.715227 7.6930745,11.5422196 C8.10657081,11.9557159 8.64966291,12.1613251 9.19345749,12.1594837 L9.35648804,12.1527082 C9.84486957,12.1137137 10.3233797,11.9067196 10.6980554,11.5320439 C11.5306679,10.6994315 11.5352237,9.35405569 10.708231,8.52706307 C10.3360844,8.1549164 9.8589651,7.95115827 9.37083647,7.91547052 L9.20784806,7.909799 C8.66405348,7.91164043 8.11955642,8.1209325 7.70325018,8.53723875 Z M15.4400518,1.79144583 L15.3417975,1.87965838 L12.3150116,4.90644426 C11.8424444,5.37901147 11.8424444,6.1451943 12.3150116,6.61776151 C12.535543,6.83829288 12.8200173,6.9559096 13.1087545,6.9706117 L13.232586,6.9706117 L13.232586,6.9706117 L13.3558955,6.9580099 C13.5603964,6.92650542 13.7583725,6.84249347 13.9280745,6.70597406 L14.0263288,6.61776151 L17.0531147,3.59097563 C17.5256819,3.11840842 17.5256819,2.35222559 17.0531147,1.87965838 C16.612052,1.43859565 15.9152174,1.40919147 15.4400518,1.79144583 Z" id="Combined-Shape"></path>
            </g>
        </g>
    </g>
</svg>