<?xml version="1.0" encoding="UTF-8"?>
<svg width="1664px" height="1408px" viewBox="0 0 1664 1408" version="1.1" xmlns="http://www.w3.org/2000/svg" xmlns:xlink="http://www.w3.org/1999/xlink">
    <!-- Generator: Sketch 52.5 (67469) - http://www.bohemiancoding.com/sketch -->
    <title>Shape</title>
    <desc>Created with Sketch.</desc>
    <g id="Page-1" stroke="none" stroke-width="1" fill="none" fill-rule="evenodd">
        <g id="iconfinder_quote-left_1608425" fill="#DDE4E9" fill-rule="nonzero">
            <path d="M768,832 L768,1216 C768,1269.33333 749.333333,1314.66667 712,1352 C674.666667,1389.33333 629.333333,1408 576,1408 L192,1408 C138.666667,1408 93.3333333,1389.33333 56,1352 C18.6666667,1314.66667 0,1269.33333 0,1216 L0,512 C0,442.666667 13.5,376.5 40.5,313.5 C67.5,250.5 104,196 150,150 C196,104 250.5,67.5 313.5,40.5 C376.5,13.5 442.666667,0 512,0 L576,0 C593.333333,0 608.333333,6.33333333 621,19 C633.666667,31.6666667 640,46.6666667 640,64 L640,192 C640,209.333333 633.666667,224.333333 621,237 C608.333333,249.666667 593.333333,256 576,256 L512,256 C441.333333,256 381,281 331,331 C281,381 256,441.333333 256,512 L256,544 C256,570.666667 265.333333,593.333333 284,612 C302.666667,630.666667 325.333333,640 352,640 L576,640 C629.333333,640 674.666667,658.666667 712,696 C749.333333,733.333333 768,778.666667 768,832 Z M1664,832 L1664,1216 C1664,1269.33333 1645.33333,1314.66667 1608,1352 C1570.66667,1389.33333 1525.33333,1408 1472,1408 L1088,1408 C1034.66667,1408 989.333333,1389.33333 952,1352 C914.666667,1314.66667 896,1269.33333 896,1216 L896,512 C896,442.666667 909.5,376.5 936.5,313.5 C963.5,250.5 1000,196 1046,150 C1092,104 1146.5,67.5 1209.5,40.5 C1272.5,13.5 1338.66667,0 1408,0 L1472,0 C1489.33333,0 1504.33333,6.33333333 1517,19 C1529.66667,31.6666667 1536,46.6666667 1536,64 L1536,192 C1536,209.333333 1529.66667,224.333333 1517,237 C1504.33333,249.666667 1489.33333,256 1472,256 L1408,256 C1337.33333,256 1277,281 1227,331 C1177,381 1152,441.333333 1152,512 L1152,544 C1152,570.666667 1161.33333,593.333333 1180,612 C1198.66667,630.666667 1221.33333,640 1248,640 L1472,640 C1525.33333,640 1570.66667,658.666667 1608,696 C1645.33333,733.333333 1664,778.666667 1664,832 Z" id="Shape"></path>
        </g>
    </g>
</svg>