<svg xmlns="http://www.w3.org/2000/svg" xmlns:xlink="http://www.w3.org/1999/xlink" width="1010" height="654" viewBox="0 0 1010 654"><defs><style>.a,.h,.i,.p{fill:#fff;}.b,.g,.j,.k{fill:none;}.c,.l,.q,.s{fill:#0054ff;}.d{clip-path:url(#a);}.e{clip-path:url(#b);}.f{clip-path:url(#c);}.g{stroke:#fff;stroke-miterlimit:10;stroke-width:0.5px;}.h{stroke:#dbdbdb;}.h,.i,.j,.k{stroke-width:2px;}.i,.j{stroke:#ebebeb;}.k,.p{stroke:#0054ff;}.l{fill-rule:evenodd;}.m{fill:#071d47;}.n{fill:#0e2340;}.o{clip-path:url(#aa);}.p{stroke-width:1.75px;}.r,.s{stroke:none;}.t{filter:url(#y);}.u{filter:url(#w);}.v{filter:url(#u);}.w{filter:url(#s);}.x{filter:url(#q);}.y{filter:url(#o);}</style><clipPath id="a"><rect class="a" width="1010" height="654" transform="translate(910 216)"/></clipPath><clipPath id="b"><rect class="b" width="525.762" height="626"/></clipPath><clipPath id="c"><rect class="b" width="188.762" height="188.762"/></clipPath><filter id="o" x="319" y="-11" width="189" height="189" filterUnits="userSpaceOnUse"><feOffset dy="10" input="SourceAlpha"/><feGaussianBlur stdDeviation="20" result="p"/><feFlood flood-opacity="0.102"/><feComposite operator="in" in2="p"/><feComposite in="SourceGraphic"/></filter><filter id="q" x="320" y="512" width="189" height="189" filterUnits="userSpaceOnUse"><feOffset dy="10" input="SourceAlpha"/><feGaussianBlur stdDeviation="20" result="r"/><feFlood flood-opacity="0.102"/><feComposite operator="in" in2="r"/><feComposite in="SourceGraphic"/></filter><filter id="s" x="541" y="99" width="199" height="199" filterUnits="userSpaceOnUse"><feOffset dy="10" input="SourceAlpha"/><feGaussianBlur stdDeviation="20" result="t"/><feFlood flood-opacity="0.102"/><feComposite operator="in" in2="t"/><feComposite in="SourceGraphic"/></filter><filter id="u" x="551" y="386" width="189" height="189" filterUnits="userSpaceOnUse"><feOffset dy="10" input="SourceAlpha"/><feGaussianBlur stdDeviation="20" result="v"/><feFlood flood-opacity="0.102"/><feComposite operator="in" in2="v"/><feComposite in="SourceGraphic"/></filter><filter id="w" x="100" y="106" width="189" height="189" filterUnits="userSpaceOnUse"><feOffset dy="10" input="SourceAlpha"/><feGaussianBlur stdDeviation="20" result="x"/><feFlood flood-opacity="0.102"/><feComposite operator="in" in2="x"/><feComposite in="SourceGraphic"/></filter><filter id="y" x="99" y="386" width="189" height="189" filterUnits="userSpaceOnUse"><feOffset dy="10" input="SourceAlpha"/><feGaussianBlur stdDeviation="20" result="z"/><feFlood flood-opacity="0.102"/><feComposite operator="in" in2="z"/><feComposite in="SourceGraphic"/></filter><clipPath id="aa"><rect class="c" width="20.553" height="1.597" rx="0.799"/></clipPath></defs><g class="d" transform="translate(-910 -216)"><g transform="translate(1665 170)"><g class="e" transform="translate(38 46)"><g transform="translate(-20.477 -182.475)"><g class="f" transform="translate(20.477 182.475)"><g transform="translate(-20.477 -182.475)"><rect class="b" width="109.05" height="109.05" transform="translate(20.477 182.475)"/></g><g transform="translate(109.523 -182.475)"><rect class="b" width="109.05" height="109.05" transform="translate(20.477 182.475)"/></g><g transform="translate(-20.477 -52.475)"><rect class="b" width="109.05" height="109.05" transform="translate(20.477 182.475)"/></g><g transform="translate(109.523 -52.475)"><rect class="b" width="109.05" height="109.05" transform="translate(20.477 182.475)"/></g></g><g transform="translate(37.776 203.858)"><g transform="translate(0)"><g transform="translate(0 0)"><rect class="c" width="2.898" height="2.898" transform="translate(0 2.049) rotate(-45.001)"/><rect class="c" width="2.898" height="2.898" transform="translate(9.392 2.049) rotate(-45)"/><rect class="c" width="2.898" height="2.898" transform="translate(0 10.212) rotate(-44.999)"/><rect class="c" width="2.898" height="2.898" transform="matrix(0.707, -0.707, 0.707, 0.707, 9.392, 10.212)"/></g><g transform="translate(68.786 0)"><rect class="c" width="2.898" height="2.898" transform="matrix(0.707, -0.707, 0.707, 0.707, 0, 2.049)"/><rect class="c" width="2.898" height="2.898" transform="translate(9.392 2.049) rotate(-45)"/><rect class="c" width="2.898" height="2.898" transform="translate(0 10.212) rotate(-45)"/><rect class="c" width="2.898" height="2.898" transform="matrix(0.707, -0.707, 0.707, 0.707, 9.392, 10.212)"/></g><g transform="translate(137.573)"><rect class="c" width="2.898" height="2.898" transform="translate(0 2.049) rotate(-45)"/><rect class="c" width="2.898" height="2.898" transform="translate(9.392 2.049) rotate(-45)"/><rect class="c" width="2.898" height="2.898" transform="matrix(0.707, -0.707, 0.707, 0.707, 0, 10.212)"/><rect class="c" width="2.898" height="2.898" transform="translate(9.392 10.212) rotate(-45)"/></g></g><g transform="translate(0 66.868)"><g transform="translate(0 0)"><rect class="c" width="2.898" height="2.898" transform="translate(0 2.049) rotate(-45.001)"/><rect class="c" width="2.898" height="2.898" transform="matrix(0.707, -0.707, 0.707, 0.707, 9.392, 2.049)"/><rect class="c" width="2.898" height="2.898" transform="translate(0 10.212) rotate(-45.001)"/><rect class="c" width="2.898" height="2.898" transform="translate(9.392 10.212) rotate(-45)"/></g><g transform="translate(68.786 0)"><rect class="c" width="2.898" height="2.898" transform="matrix(0.707, -0.707, 0.707, 0.707, 0, 2.049)"/><rect class="c" width="2.898" height="2.898" transform="matrix(0.707, -0.707, 0.707, 0.707, 9.392, 2.049)"/><rect class="c" width="2.898" height="2.898" transform="matrix(0.707, -0.707, 0.707, 0.707, 0, 10.212)"/><rect class="c" width="2.898" height="2.898" transform="translate(9.392 10.212) rotate(-45)"/></g><g transform="translate(137.573)"><rect class="c" width="2.898" height="2.898" transform="translate(0 2.049) rotate(-45)"/><rect class="c" width="2.898" height="2.898" transform="matrix(0.707, -0.707, 0.707, 0.707, 9.392, 2.049)"/><rect class="c" width="2.898" height="2.898" transform="translate(0 10.212) rotate(-45)"/><rect class="c" width="2.898" height="2.898" transform="matrix(0.707, -0.707, 0.707, 0.707, 9.392, 10.212)"/></g></g><g transform="translate(0 133.736)"><rect class="c" width="2.898" height="2.898" transform="translate(0 2.049) rotate(-45.001)"/><rect class="c" width="2.898" height="2.898" transform="translate(9.392 2.049) rotate(-45)"/><rect class="c" width="2.898" height="2.898" transform="translate(0 10.212) rotate(-45.001)"/><rect class="c" width="2.898" height="2.898" transform="translate(9.392 10.212) rotate(-45)"/><g transform="translate(68.786 0)"><rect class="c" width="2.898" height="2.898" transform="matrix(0.707, -0.707, 0.707, 0.707, 0, 2.049)"/><rect class="c" width="2.898" height="2.898" transform="translate(9.392 2.049) rotate(-45)"/><rect class="c" width="2.898" height="2.898" transform="matrix(0.707, -0.707, 0.707, 0.707, 0, 10.212)"/><rect class="c" width="2.898" height="2.898" transform="translate(9.392 10.212) rotate(-45)"/></g><g transform="translate(137.573)"><rect class="c" width="2.898" height="2.898" transform="translate(0 2.049) rotate(-45)"/><rect class="c" width="2.898" height="2.898" transform="translate(9.392 2.049) rotate(-45)"/><rect class="c" width="2.898" height="2.898" transform="translate(0 10.212) rotate(-45)"/><rect class="c" width="2.898" height="2.898" transform="matrix(0.707, -0.707, 0.707, 0.707, 9.392, 10.212)"/></g></g></g><g transform="translate(149.708 239.258)"><line class="g" y1="3.659" x2="3.659"/><line class="g" x1="3.659" y1="3.659"/></g><g transform="translate(78.026 308.591)"><line class="g" y1="3.659" x2="3.659"/><line class="g" x1="3.659" y1="3.659"/></g><g transform="translate(21.363 308.591)"><line class="g" y1="3.659" x2="3.659"/><line class="g" x1="3.659" y1="3.659"/></g><g transform="translate(149.708 308.591)"><line class="g" y1="3.659" x2="3.659"/><line class="g" x1="3.659" y1="3.659"/></g></g><g transform="translate(183.523 -182.475)"><g class="f" transform="translate(20.477 182.475)"><g transform="translate(-20.477 -182.475)"><rect class="b" width="109.05" height="109.05" transform="translate(20.477 182.475)"/></g><g transform="translate(109.523 -182.475)"><rect class="b" width="109.05" height="109.05" transform="translate(20.477 182.475)"/></g><g transform="translate(-20.477 -52.475)"><rect class="b" width="109.05" height="109.05" transform="translate(20.477 182.475)"/></g><g transform="translate(109.523 -52.475)"><rect class="b" width="109.05" height="109.05" transform="translate(20.477 182.475)"/></g></g><g transform="translate(37.776 203.858)"><g transform="translate(0)"><g transform="translate(0 0)"><rect class="c" width="2.898" height="2.898" transform="translate(0 2.049) rotate(-45.001)"/><rect class="c" width="2.898" height="2.898" transform="translate(9.392 2.049) rotate(-45)"/><rect class="c" width="2.898" height="2.898" transform="translate(0 10.212) rotate(-44.999)"/><rect class="c" width="2.898" height="2.898" transform="matrix(0.707, -0.707, 0.707, 0.707, 9.392, 10.212)"/></g><g transform="translate(68.786 0)"><rect class="c" width="2.898" height="2.898" transform="matrix(0.707, -0.707, 0.707, 0.707, 0, 2.049)"/><rect class="c" width="2.898" height="2.898" transform="translate(9.392 2.049) rotate(-45)"/><rect class="c" width="2.898" height="2.898" transform="translate(0 10.212) rotate(-45)"/><rect class="c" width="2.898" height="2.898" transform="matrix(0.707, -0.707, 0.707, 0.707, 9.392, 10.212)"/></g><g transform="translate(137.573)"><rect class="c" width="2.898" height="2.898" transform="translate(0 2.049) rotate(-45)"/><rect class="c" width="2.898" height="2.898" transform="translate(9.392 2.049) rotate(-45)"/><rect class="c" width="2.898" height="2.898" transform="matrix(0.707, -0.707, 0.707, 0.707, 0, 10.212)"/><rect class="c" width="2.898" height="2.898" transform="translate(9.392 10.212) rotate(-45)"/></g></g><g transform="translate(0 66.868)"><g transform="translate(0 0)"><rect class="c" width="2.898" height="2.898" transform="translate(0 2.049) rotate(-45.001)"/><rect class="c" width="2.898" height="2.898" transform="matrix(0.707, -0.707, 0.707, 0.707, 9.392, 2.049)"/><rect class="c" width="2.898" height="2.898" transform="translate(0 10.212) rotate(-45.001)"/><rect class="c" width="2.898" height="2.898" transform="translate(9.392 10.212) rotate(-45)"/></g><g transform="translate(68.786 0)"><rect class="c" width="2.898" height="2.898" transform="matrix(0.707, -0.707, 0.707, 0.707, 0, 2.049)"/><rect class="c" width="2.898" height="2.898" transform="matrix(0.707, -0.707, 0.707, 0.707, 9.392, 2.049)"/><rect class="c" width="2.898" height="2.898" transform="matrix(0.707, -0.707, 0.707, 0.707, 0, 10.212)"/><rect class="c" width="2.898" height="2.898" transform="translate(9.392 10.212) rotate(-45)"/></g><g transform="translate(137.573)"><rect class="c" width="2.898" height="2.898" transform="translate(0 2.049) rotate(-45)"/><rect class="c" width="2.898" height="2.898" transform="matrix(0.707, -0.707, 0.707, 0.707, 9.392, 2.049)"/><rect class="c" width="2.898" height="2.898" transform="translate(0 10.212) rotate(-45)"/><rect class="c" width="2.898" height="2.898" transform="matrix(0.707, -0.707, 0.707, 0.707, 9.392, 10.212)"/></g></g><g transform="translate(0 133.736)"><rect class="c" width="2.898" height="2.898" transform="translate(0 2.049) rotate(-45.001)"/><rect class="c" width="2.898" height="2.898" transform="translate(9.392 2.049) rotate(-45)"/><rect class="c" width="2.898" height="2.898" transform="translate(0 10.212) rotate(-45.001)"/><rect class="c" width="2.898" height="2.898" transform="translate(9.392 10.212) rotate(-45)"/><g transform="translate(68.786 0)"><rect class="c" width="2.898" height="2.898" transform="matrix(0.707, -0.707, 0.707, 0.707, 0, 2.049)"/><rect class="c" width="2.898" height="2.898" transform="translate(9.392 2.049) rotate(-45)"/><rect class="c" width="2.898" height="2.898" transform="matrix(0.707, -0.707, 0.707, 0.707, 0, 10.212)"/><rect class="c" width="2.898" height="2.898" transform="translate(9.392 10.212) rotate(-45)"/></g><g transform="translate(137.573)"><rect class="c" width="2.898" height="2.898" transform="translate(0 2.049) rotate(-45)"/><rect class="c" width="2.898" height="2.898" transform="translate(9.392 2.049) rotate(-45)"/><rect class="c" width="2.898" height="2.898" transform="translate(0 10.212) rotate(-45)"/><rect class="c" width="2.898" height="2.898" transform="matrix(0.707, -0.707, 0.707, 0.707, 9.392, 10.212)"/></g></g></g><g transform="translate(149.708 239.258)"><line class="g" y1="3.659" x2="3.659"/><line class="g" x1="3.659" y1="3.659"/></g><g transform="translate(78.026 308.591)"><line class="g" y1="3.659" x2="3.659"/><line class="g" x1="3.659" y1="3.659"/></g><g transform="translate(21.363 308.591)"><line class="g" y1="3.659" x2="3.659"/><line class="g" x1="3.659" y1="3.659"/></g><g transform="translate(149.708 308.591)"><line class="g" y1="3.659" x2="3.659"/><line class="g" x1="3.659" y1="3.659"/></g></g><g transform="translate(387.523 -182.475)"><g class="f" transform="translate(20.477 182.475)"><g transform="translate(-20.477 -182.475)"><rect class="b" width="109.05" height="109.05" transform="translate(20.477 182.475)"/></g><g transform="translate(109.523 -182.475)"><rect class="b" width="109.05" height="109.05" transform="translate(20.477 182.475)"/></g><g transform="translate(-20.477 -52.475)"><rect class="b" width="109.05" height="109.05" transform="translate(20.477 182.475)"/></g><g transform="translate(109.523 -52.475)"><rect class="b" width="109.05" height="109.05" transform="translate(20.477 182.475)"/></g></g><g transform="translate(37.776 203.858)"><g transform="translate(0)"><g transform="translate(0 0)"><rect class="c" width="2.898" height="2.898" transform="translate(0 2.049) rotate(-45.001)"/><rect class="c" width="2.898" height="2.898" transform="translate(9.392 2.049) rotate(-45)"/><rect class="c" width="2.898" height="2.898" transform="translate(0 10.212) rotate(-44.999)"/><rect class="c" width="2.898" height="2.898" transform="matrix(0.707, -0.707, 0.707, 0.707, 9.392, 10.212)"/></g><g transform="translate(68.786 0)"><rect class="c" width="2.898" height="2.898" transform="matrix(0.707, -0.707, 0.707, 0.707, 0, 2.049)"/><rect class="c" width="2.898" height="2.898" transform="translate(9.392 2.049) rotate(-45)"/><rect class="c" width="2.898" height="2.898" transform="translate(0 10.212) rotate(-45)"/><rect class="c" width="2.898" height="2.898" transform="matrix(0.707, -0.707, 0.707, 0.707, 9.392, 10.212)"/></g><g transform="translate(137.573)"><rect class="c" width="2.898" height="2.898" transform="translate(0 2.049) rotate(-45)"/><rect class="c" width="2.898" height="2.898" transform="translate(9.392 2.049) rotate(-45)"/><rect class="c" width="2.898" height="2.898" transform="matrix(0.707, -0.707, 0.707, 0.707, 0, 10.212)"/><rect class="c" width="2.898" height="2.898" transform="translate(9.392 10.212) rotate(-45)"/></g></g><g transform="translate(0 66.868)"><g transform="translate(0 0)"><rect class="c" width="2.898" height="2.898" transform="translate(0 2.049) rotate(-45.001)"/><rect class="c" width="2.898" height="2.898" transform="matrix(0.707, -0.707, 0.707, 0.707, 9.392, 2.049)"/><rect class="c" width="2.898" height="2.898" transform="translate(0 10.212) rotate(-45.001)"/><rect class="c" width="2.898" height="2.898" transform="translate(9.392 10.212) rotate(-45)"/></g><g transform="translate(68.786 0)"><rect class="c" width="2.898" height="2.898" transform="matrix(0.707, -0.707, 0.707, 0.707, 0, 2.049)"/><rect class="c" width="2.898" height="2.898" transform="matrix(0.707, -0.707, 0.707, 0.707, 9.392, 2.049)"/><rect class="c" width="2.898" height="2.898" transform="matrix(0.707, -0.707, 0.707, 0.707, 0, 10.212)"/><rect class="c" width="2.898" height="2.898" transform="translate(9.392 10.212) rotate(-45)"/></g><g transform="translate(137.573)"><rect class="c" width="2.898" height="2.898" transform="translate(0 2.049) rotate(-45)"/><rect class="c" width="2.898" height="2.898" transform="matrix(0.707, -0.707, 0.707, 0.707, 9.392, 2.049)"/><rect class="c" width="2.898" height="2.898" transform="translate(0 10.212) rotate(-45)"/><rect class="c" width="2.898" height="2.898" transform="matrix(0.707, -0.707, 0.707, 0.707, 9.392, 10.212)"/></g></g><g transform="translate(0 133.736)"><rect class="c" width="2.898" height="2.898" transform="translate(0 2.049) rotate(-45.001)"/><rect class="c" width="2.898" height="2.898" transform="translate(9.392 2.049) rotate(-45)"/><rect class="c" width="2.898" height="2.898" transform="translate(0 10.212) rotate(-45.001)"/><rect class="c" width="2.898" height="2.898" transform="translate(9.392 10.212) rotate(-45)"/><g transform="translate(68.786 0)"><rect class="c" width="2.898" height="2.898" transform="matrix(0.707, -0.707, 0.707, 0.707, 0, 2.049)"/><rect class="c" width="2.898" height="2.898" transform="translate(9.392 2.049) rotate(-45)"/><rect class="c" width="2.898" height="2.898" transform="matrix(0.707, -0.707, 0.707, 0.707, 0, 10.212)"/><rect class="c" width="2.898" height="2.898" transform="translate(9.392 10.212) rotate(-45)"/></g><g transform="translate(137.573)"><rect class="c" width="2.898" height="2.898" transform="translate(0 2.049) rotate(-45)"/><rect class="c" width="2.898" height="2.898" transform="translate(9.392 2.049) rotate(-45)"/><rect class="c" width="2.898" height="2.898" transform="translate(0 10.212) rotate(-45)"/><rect class="c" width="2.898" height="2.898" transform="matrix(0.707, -0.707, 0.707, 0.707, 9.392, 10.212)"/></g></g></g><g transform="translate(149.708 239.258)"><line class="g" y1="3.659" x2="3.659"/><line class="g" x1="3.659" y1="3.659"/></g><g transform="translate(78.026 308.591)"><line class="g" y1="3.659" x2="3.659"/><line class="g" x1="3.659" y1="3.659"/></g><g transform="translate(21.363 308.591)"><line class="g" y1="3.659" x2="3.659"/><line class="g" x1="3.659" y1="3.659"/></g><g transform="translate(149.708 308.591)"><line class="g" y1="3.659" x2="3.659"/><line class="g" x1="3.659" y1="3.659"/></g></g><g transform="translate(-20.477 21.525)"><g class="f" transform="translate(20.477 182.475)"><g transform="translate(-20.477 -182.475)"><rect class="b" width="109.05" height="109.05" transform="translate(20.477 182.475)"/></g><g transform="translate(109.523 -182.475)"><rect class="b" width="109.05" height="109.05" transform="translate(20.477 182.475)"/></g><g transform="translate(-20.477 -52.475)"><rect class="b" width="109.05" height="109.05" transform="translate(20.477 182.475)"/></g><g transform="translate(109.523 -52.475)"><rect class="b" width="109.05" height="109.05" transform="translate(20.477 182.475)"/></g></g><g transform="translate(37.776 203.858)"><g transform="translate(0)"><g transform="translate(0 0)"><rect class="c" width="2.898" height="2.898" transform="translate(0 2.049) rotate(-45.001)"/><rect class="c" width="2.898" height="2.898" transform="translate(9.392 2.049) rotate(-45)"/><rect class="c" width="2.898" height="2.898" transform="translate(0 10.212) rotate(-44.999)"/><rect class="c" width="2.898" height="2.898" transform="matrix(0.707, -0.707, 0.707, 0.707, 9.392, 10.212)"/></g><g transform="translate(68.786 0)"><rect class="c" width="2.898" height="2.898" transform="matrix(0.707, -0.707, 0.707, 0.707, 0, 2.049)"/><rect class="c" width="2.898" height="2.898" transform="translate(9.392 2.049) rotate(-45)"/><rect class="c" width="2.898" height="2.898" transform="translate(0 10.212) rotate(-45)"/><rect class="c" width="2.898" height="2.898" transform="matrix(0.707, -0.707, 0.707, 0.707, 9.392, 10.212)"/></g><g transform="translate(137.573)"><rect class="c" width="2.898" height="2.898" transform="translate(0 2.049) rotate(-45)"/><rect class="c" width="2.898" height="2.898" transform="translate(9.392 2.049) rotate(-45)"/><rect class="c" width="2.898" height="2.898" transform="matrix(0.707, -0.707, 0.707, 0.707, 0, 10.212)"/><rect class="c" width="2.898" height="2.898" transform="translate(9.392 10.212) rotate(-45)"/></g></g><g transform="translate(0 66.868)"><g transform="translate(0 0)"><rect class="c" width="2.898" height="2.898" transform="translate(0 2.049) rotate(-45.001)"/><rect class="c" width="2.898" height="2.898" transform="matrix(0.707, -0.707, 0.707, 0.707, 9.392, 2.049)"/><rect class="c" width="2.898" height="2.898" transform="translate(0 10.212) rotate(-45.001)"/><rect class="c" width="2.898" height="2.898" transform="translate(9.392 10.212) rotate(-45)"/></g><g transform="translate(68.786 0)"><rect class="c" width="2.898" height="2.898" transform="matrix(0.707, -0.707, 0.707, 0.707, 0, 2.049)"/><rect class="c" width="2.898" height="2.898" transform="matrix(0.707, -0.707, 0.707, 0.707, 9.392, 2.049)"/><rect class="c" width="2.898" height="2.898" transform="matrix(0.707, -0.707, 0.707, 0.707, 0, 10.212)"/><rect class="c" width="2.898" height="2.898" transform="translate(9.392 10.212) rotate(-45)"/></g><g transform="translate(137.573)"><rect class="c" width="2.898" height="2.898" transform="translate(0 2.049) rotate(-45)"/><rect class="c" width="2.898" height="2.898" transform="matrix(0.707, -0.707, 0.707, 0.707, 9.392, 2.049)"/><rect class="c" width="2.898" height="2.898" transform="translate(0 10.212) rotate(-45)"/><rect class="c" width="2.898" height="2.898" transform="matrix(0.707, -0.707, 0.707, 0.707, 9.392, 10.212)"/></g></g><g transform="translate(0 133.736)"><rect class="c" width="2.898" height="2.898" transform="translate(0 2.049) rotate(-45.001)"/><rect class="c" width="2.898" height="2.898" transform="translate(9.392 2.049) rotate(-45)"/><rect class="c" width="2.898" height="2.898" transform="translate(0 10.212) rotate(-45.001)"/><rect class="c" width="2.898" height="2.898" transform="translate(9.392 10.212) rotate(-45)"/><g transform="translate(68.786 0)"><rect class="c" width="2.898" height="2.898" transform="matrix(0.707, -0.707, 0.707, 0.707, 0, 2.049)"/><rect class="c" width="2.898" height="2.898" transform="translate(9.392 2.049) rotate(-45)"/><rect class="c" width="2.898" height="2.898" transform="matrix(0.707, -0.707, 0.707, 0.707, 0, 10.212)"/><rect class="c" width="2.898" height="2.898" transform="translate(9.392 10.212) rotate(-45)"/></g><g transform="translate(137.573)"><rect class="c" width="2.898" height="2.898" transform="translate(0 2.049) rotate(-45)"/><rect class="c" width="2.898" height="2.898" transform="translate(9.392 2.049) rotate(-45)"/><rect class="c" width="2.898" height="2.898" transform="translate(0 10.212) rotate(-45)"/><rect class="c" width="2.898" height="2.898" transform="matrix(0.707, -0.707, 0.707, 0.707, 9.392, 10.212)"/></g></g></g><g transform="translate(149.708 239.258)"><line class="g" y1="3.659" x2="3.659"/><line class="g" x1="3.659" y1="3.659"/></g><g transform="translate(78.026 308.591)"><line class="g" y1="3.659" x2="3.659"/><line class="g" x1="3.659" y1="3.659"/></g><g transform="translate(21.363 308.591)"><line class="g" y1="3.659" x2="3.659"/><line class="g" x1="3.659" y1="3.659"/></g><g transform="translate(149.708 308.591)"><line class="g" y1="3.659" x2="3.659"/><line class="g" x1="3.659" y1="3.659"/></g></g><g transform="translate(183.523 21.525)"><g class="f" transform="translate(20.477 182.475)"><g transform="translate(-20.477 -182.475)"><rect class="b" width="109.05" height="109.05" transform="translate(20.477 182.475)"/></g><g transform="translate(109.523 -182.475)"><rect class="b" width="109.05" height="109.05" transform="translate(20.477 182.475)"/></g><g transform="translate(-20.477 -52.475)"><rect class="b" width="109.05" height="109.05" transform="translate(20.477 182.475)"/></g><g transform="translate(109.523 -52.475)"><rect class="b" width="109.05" height="109.05" transform="translate(20.477 182.475)"/></g></g><g transform="translate(37.776 203.858)"><g transform="translate(0)"><g transform="translate(0 0)"><rect class="c" width="2.898" height="2.898" transform="translate(0 2.049) rotate(-45.001)"/><rect class="c" width="2.898" height="2.898" transform="translate(9.392 2.049) rotate(-45)"/><rect class="c" width="2.898" height="2.898" transform="translate(0 10.212) rotate(-44.999)"/><rect class="c" width="2.898" height="2.898" transform="matrix(0.707, -0.707, 0.707, 0.707, 9.392, 10.212)"/></g><g transform="translate(68.786 0)"><rect class="c" width="2.898" height="2.898" transform="matrix(0.707, -0.707, 0.707, 0.707, 0, 2.049)"/><rect class="c" width="2.898" height="2.898" transform="translate(9.392 2.049) rotate(-45)"/><rect class="c" width="2.898" height="2.898" transform="translate(0 10.212) rotate(-45)"/><rect class="c" width="2.898" height="2.898" transform="matrix(0.707, -0.707, 0.707, 0.707, 9.392, 10.212)"/></g><g transform="translate(137.573)"><rect class="c" width="2.898" height="2.898" transform="translate(0 2.049) rotate(-45)"/><rect class="c" width="2.898" height="2.898" transform="translate(9.392 2.049) rotate(-45)"/><rect class="c" width="2.898" height="2.898" transform="matrix(0.707, -0.707, 0.707, 0.707, 0, 10.212)"/><rect class="c" width="2.898" height="2.898" transform="translate(9.392 10.212) rotate(-45)"/></g></g><g transform="translate(0 66.868)"><g transform="translate(0 0)"><rect class="c" width="2.898" height="2.898" transform="translate(0 2.049) rotate(-45.001)"/><rect class="c" width="2.898" height="2.898" transform="matrix(0.707, -0.707, 0.707, 0.707, 9.392, 2.049)"/><rect class="c" width="2.898" height="2.898" transform="translate(0 10.212) rotate(-45.001)"/><rect class="c" width="2.898" height="2.898" transform="translate(9.392 10.212) rotate(-45)"/></g><g transform="translate(68.786 0)"><rect class="c" width="2.898" height="2.898" transform="matrix(0.707, -0.707, 0.707, 0.707, 0, 2.049)"/><rect class="c" width="2.898" height="2.898" transform="matrix(0.707, -0.707, 0.707, 0.707, 9.392, 2.049)"/><rect class="c" width="2.898" height="2.898" transform="matrix(0.707, -0.707, 0.707, 0.707, 0, 10.212)"/><rect class="c" width="2.898" height="2.898" transform="translate(9.392 10.212) rotate(-45)"/></g><g transform="translate(137.573)"><rect class="c" width="2.898" height="2.898" transform="translate(0 2.049) rotate(-45)"/><rect class="c" width="2.898" height="2.898" transform="matrix(0.707, -0.707, 0.707, 0.707, 9.392, 2.049)"/><rect class="c" width="2.898" height="2.898" transform="translate(0 10.212) rotate(-45)"/><rect class="c" width="2.898" height="2.898" transform="matrix(0.707, -0.707, 0.707, 0.707, 9.392, 10.212)"/></g></g><g transform="translate(0 133.736)"><rect class="c" width="2.898" height="2.898" transform="translate(0 2.049) rotate(-45.001)"/><rect class="c" width="2.898" height="2.898" transform="translate(9.392 2.049) rotate(-45)"/><rect class="c" width="2.898" height="2.898" transform="translate(0 10.212) rotate(-45.001)"/><rect class="c" width="2.898" height="2.898" transform="translate(9.392 10.212) rotate(-45)"/><g transform="translate(68.786 0)"><rect class="c" width="2.898" height="2.898" transform="matrix(0.707, -0.707, 0.707, 0.707, 0, 2.049)"/><rect class="c" width="2.898" height="2.898" transform="translate(9.392 2.049) rotate(-45)"/><rect class="c" width="2.898" height="2.898" transform="matrix(0.707, -0.707, 0.707, 0.707, 0, 10.212)"/><rect class="c" width="2.898" height="2.898" transform="translate(9.392 10.212) rotate(-45)"/></g><g transform="translate(137.573)"><rect class="c" width="2.898" height="2.898" transform="translate(0 2.049) rotate(-45)"/><rect class="c" width="2.898" height="2.898" transform="translate(9.392 2.049) rotate(-45)"/><rect class="c" width="2.898" height="2.898" transform="translate(0 10.212) rotate(-45)"/><rect class="c" width="2.898" height="2.898" transform="matrix(0.707, -0.707, 0.707, 0.707, 9.392, 10.212)"/></g></g></g><g transform="translate(149.708 239.258)"><line class="g" y1="3.659" x2="3.659"/><line class="g" x1="3.659" y1="3.659"/></g><g transform="translate(78.026 308.591)"><line class="g" y1="3.659" x2="3.659"/><line class="g" x1="3.659" y1="3.659"/></g><g transform="translate(21.363 308.591)"><line class="g" y1="3.659" x2="3.659"/><line class="g" x1="3.659" y1="3.659"/></g><g transform="translate(149.708 308.591)"><line class="g" y1="3.659" x2="3.659"/><line class="g" x1="3.659" y1="3.659"/></g></g><g transform="translate(387.523 21.525)"><g class="f" transform="translate(20.477 182.475)"><g transform="translate(-20.477 -182.475)"><rect class="b" width="109.05" height="109.05" transform="translate(20.477 182.475)"/></g><g transform="translate(109.523 -182.475)"><rect class="b" width="109.05" height="109.05" transform="translate(20.477 182.475)"/></g><g transform="translate(-20.477 -52.475)"><rect class="b" width="109.05" height="109.05" transform="translate(20.477 182.475)"/></g><g transform="translate(109.523 -52.475)"><rect class="b" width="109.05" height="109.05" transform="translate(20.477 182.475)"/></g></g><g transform="translate(37.776 203.858)"><g transform="translate(0)"><g transform="translate(0 0)"><rect class="c" width="2.898" height="2.898" transform="translate(0 2.049) rotate(-45.001)"/><rect class="c" width="2.898" height="2.898" transform="translate(9.392 2.049) rotate(-45)"/><rect class="c" width="2.898" height="2.898" transform="translate(0 10.212) rotate(-44.999)"/><rect class="c" width="2.898" height="2.898" transform="matrix(0.707, -0.707, 0.707, 0.707, 9.392, 10.212)"/></g><g transform="translate(68.786 0)"><rect class="c" width="2.898" height="2.898" transform="matrix(0.707, -0.707, 0.707, 0.707, 0, 2.049)"/><rect class="c" width="2.898" height="2.898" transform="translate(9.392 2.049) rotate(-45)"/><rect class="c" width="2.898" height="2.898" transform="translate(0 10.212) rotate(-45)"/><rect class="c" width="2.898" height="2.898" transform="matrix(0.707, -0.707, 0.707, 0.707, 9.392, 10.212)"/></g><g transform="translate(137.573)"><rect class="c" width="2.898" height="2.898" transform="translate(0 2.049) rotate(-45)"/><rect class="c" width="2.898" height="2.898" transform="translate(9.392 2.049) rotate(-45)"/><rect class="c" width="2.898" height="2.898" transform="matrix(0.707, -0.707, 0.707, 0.707, 0, 10.212)"/><rect class="c" width="2.898" height="2.898" transform="translate(9.392 10.212) rotate(-45)"/></g></g><g transform="translate(0 66.868)"><g transform="translate(0 0)"><rect class="c" width="2.898" height="2.898" transform="translate(0 2.049) rotate(-45.001)"/><rect class="c" width="2.898" height="2.898" transform="matrix(0.707, -0.707, 0.707, 0.707, 9.392, 2.049)"/><rect class="c" width="2.898" height="2.898" transform="translate(0 10.212) rotate(-45.001)"/><rect class="c" width="2.898" height="2.898" transform="translate(9.392 10.212) rotate(-45)"/></g><g transform="translate(68.786 0)"><rect class="c" width="2.898" height="2.898" transform="matrix(0.707, -0.707, 0.707, 0.707, 0, 2.049)"/><rect class="c" width="2.898" height="2.898" transform="matrix(0.707, -0.707, 0.707, 0.707, 9.392, 2.049)"/><rect class="c" width="2.898" height="2.898" transform="matrix(0.707, -0.707, 0.707, 0.707, 0, 10.212)"/><rect class="c" width="2.898" height="2.898" transform="translate(9.392 10.212) rotate(-45)"/></g><g transform="translate(137.573)"><rect class="c" width="2.898" height="2.898" transform="translate(0 2.049) rotate(-45)"/><rect class="c" width="2.898" height="2.898" transform="matrix(0.707, -0.707, 0.707, 0.707, 9.392, 2.049)"/><rect class="c" width="2.898" height="2.898" transform="translate(0 10.212) rotate(-45)"/><rect class="c" width="2.898" height="2.898" transform="matrix(0.707, -0.707, 0.707, 0.707, 9.392, 10.212)"/></g></g><g transform="translate(0 133.736)"><rect class="c" width="2.898" height="2.898" transform="translate(0 2.049) rotate(-45.001)"/><rect class="c" width="2.898" height="2.898" transform="translate(9.392 2.049) rotate(-45)"/><rect class="c" width="2.898" height="2.898" transform="translate(0 10.212) rotate(-45.001)"/><rect class="c" width="2.898" height="2.898" transform="translate(9.392 10.212) rotate(-45)"/><g transform="translate(68.786 0)"><rect class="c" width="2.898" height="2.898" transform="matrix(0.707, -0.707, 0.707, 0.707, 0, 2.049)"/><rect class="c" width="2.898" height="2.898" transform="translate(9.392 2.049) rotate(-45)"/><rect class="c" width="2.898" height="2.898" transform="matrix(0.707, -0.707, 0.707, 0.707, 0, 10.212)"/><rect class="c" width="2.898" height="2.898" transform="translate(9.392 10.212) rotate(-45)"/></g><g transform="translate(137.573)"><rect class="c" width="2.898" height="2.898" transform="translate(0 2.049) rotate(-45)"/><rect class="c" width="2.898" height="2.898" transform="translate(9.392 2.049) rotate(-45)"/><rect class="c" width="2.898" height="2.898" transform="translate(0 10.212) rotate(-45)"/><rect class="c" width="2.898" height="2.898" transform="matrix(0.707, -0.707, 0.707, 0.707, 9.392, 10.212)"/></g></g></g><g transform="translate(149.708 239.258)"><line class="g" y1="3.659" x2="3.659"/><line class="g" x1="3.659" y1="3.659"/></g><g transform="translate(78.026 308.591)"><line class="g" y1="3.659" x2="3.659"/><line class="g" x1="3.659" y1="3.659"/></g><g transform="translate(21.363 308.591)"><line class="g" y1="3.659" x2="3.659"/><line class="g" x1="3.659" y1="3.659"/></g><g transform="translate(149.708 308.591)"><line class="g" y1="3.659" x2="3.659"/><line class="g" x1="3.659" y1="3.659"/></g></g><g transform="translate(-20.477 225.525)"><g class="f" transform="translate(20.477 182.475)"><g transform="translate(-20.477 -182.475)"><rect class="b" width="109.05" height="109.05" transform="translate(20.477 182.475)"/></g><g transform="translate(109.523 -182.475)"><rect class="b" width="109.05" height="109.05" transform="translate(20.477 182.475)"/></g><g transform="translate(-20.477 -52.475)"><rect class="b" width="109.05" height="109.05" transform="translate(20.477 182.475)"/></g><g transform="translate(109.523 -52.475)"><rect class="b" width="109.05" height="109.05" transform="translate(20.477 182.475)"/></g></g><g transform="translate(37.776 203.858)"><g transform="translate(0)"><g transform="translate(0 0)"><rect class="c" width="2.898" height="2.898" transform="translate(0 2.049) rotate(-45.001)"/><rect class="c" width="2.898" height="2.898" transform="translate(9.392 2.049) rotate(-45)"/><rect class="c" width="2.898" height="2.898" transform="translate(0 10.212) rotate(-44.999)"/><rect class="c" width="2.898" height="2.898" transform="matrix(0.707, -0.707, 0.707, 0.707, 9.392, 10.212)"/></g><g transform="translate(68.786 0)"><rect class="c" width="2.898" height="2.898" transform="matrix(0.707, -0.707, 0.707, 0.707, 0, 2.049)"/><rect class="c" width="2.898" height="2.898" transform="translate(9.392 2.049) rotate(-45)"/><rect class="c" width="2.898" height="2.898" transform="translate(0 10.212) rotate(-45)"/><rect class="c" width="2.898" height="2.898" transform="matrix(0.707, -0.707, 0.707, 0.707, 9.392, 10.212)"/></g><g transform="translate(137.573)"><rect class="c" width="2.898" height="2.898" transform="translate(0 2.049) rotate(-45)"/><rect class="c" width="2.898" height="2.898" transform="translate(9.392 2.049) rotate(-45)"/><rect class="c" width="2.898" height="2.898" transform="matrix(0.707, -0.707, 0.707, 0.707, 0, 10.212)"/><rect class="c" width="2.898" height="2.898" transform="translate(9.392 10.212) rotate(-45)"/></g></g><g transform="translate(0 66.868)"><g transform="translate(0 0)"><rect class="c" width="2.898" height="2.898" transform="translate(0 2.049) rotate(-45.001)"/><rect class="c" width="2.898" height="2.898" transform="matrix(0.707, -0.707, 0.707, 0.707, 9.392, 2.049)"/><rect class="c" width="2.898" height="2.898" transform="translate(0 10.212) rotate(-45.001)"/><rect class="c" width="2.898" height="2.898" transform="translate(9.392 10.212) rotate(-45)"/></g><g transform="translate(68.786 0)"><rect class="c" width="2.898" height="2.898" transform="matrix(0.707, -0.707, 0.707, 0.707, 0, 2.049)"/><rect class="c" width="2.898" height="2.898" transform="matrix(0.707, -0.707, 0.707, 0.707, 9.392, 2.049)"/><rect class="c" width="2.898" height="2.898" transform="matrix(0.707, -0.707, 0.707, 0.707, 0, 10.212)"/><rect class="c" width="2.898" height="2.898" transform="translate(9.392 10.212) rotate(-45)"/></g><g transform="translate(137.573)"><rect class="c" width="2.898" height="2.898" transform="translate(0 2.049) rotate(-45)"/><rect class="c" width="2.898" height="2.898" transform="matrix(0.707, -0.707, 0.707, 0.707, 9.392, 2.049)"/><rect class="c" width="2.898" height="2.898" transform="translate(0 10.212) rotate(-45)"/><rect class="c" width="2.898" height="2.898" transform="matrix(0.707, -0.707, 0.707, 0.707, 9.392, 10.212)"/></g></g><g transform="translate(0 133.736)"><rect class="c" width="2.898" height="2.898" transform="translate(0 2.049) rotate(-45.001)"/><rect class="c" width="2.898" height="2.898" transform="translate(9.392 2.049) rotate(-45)"/><rect class="c" width="2.898" height="2.898" transform="translate(0 10.212) rotate(-45.001)"/><rect class="c" width="2.898" height="2.898" transform="translate(9.392 10.212) rotate(-45)"/><g transform="translate(68.786 0)"><rect class="c" width="2.898" height="2.898" transform="matrix(0.707, -0.707, 0.707, 0.707, 0, 2.049)"/><rect class="c" width="2.898" height="2.898" transform="translate(9.392 2.049) rotate(-45)"/><rect class="c" width="2.898" height="2.898" transform="matrix(0.707, -0.707, 0.707, 0.707, 0, 10.212)"/><rect class="c" width="2.898" height="2.898" transform="translate(9.392 10.212) rotate(-45)"/></g><g transform="translate(137.573)"><rect class="c" width="2.898" height="2.898" transform="translate(0 2.049) rotate(-45)"/><rect class="c" width="2.898" height="2.898" transform="translate(9.392 2.049) rotate(-45)"/><rect class="c" width="2.898" height="2.898" transform="translate(0 10.212) rotate(-45)"/><rect class="c" width="2.898" height="2.898" transform="matrix(0.707, -0.707, 0.707, 0.707, 9.392, 10.212)"/></g></g></g><g transform="translate(149.708 239.258)"><line class="g" y1="3.659" x2="3.659"/><line class="g" x1="3.659" y1="3.659"/></g><g transform="translate(78.026 308.591)"><line class="g" y1="3.659" x2="3.659"/><line class="g" x1="3.659" y1="3.659"/></g><g transform="translate(21.363 308.591)"><line class="g" y1="3.659" x2="3.659"/><line class="g" x1="3.659" y1="3.659"/></g><g transform="translate(149.708 308.591)"><line class="g" y1="3.659" x2="3.659"/><line class="g" x1="3.659" y1="3.659"/></g></g><g transform="translate(183.523 225.525)"><g class="f" transform="translate(20.477 182.475)"><g transform="translate(-20.477 -182.475)"><rect class="b" width="109.05" height="109.05" transform="translate(20.477 182.475)"/></g><g transform="translate(109.523 -182.475)"><rect class="b" width="109.05" height="109.05" transform="translate(20.477 182.475)"/></g><g transform="translate(-20.477 -52.475)"><rect class="b" width="109.05" height="109.05" transform="translate(20.477 182.475)"/></g><g transform="translate(109.523 -52.475)"><rect class="b" width="109.05" height="109.05" transform="translate(20.477 182.475)"/></g></g><g transform="translate(37.776 203.858)"><g transform="translate(0)"><g transform="translate(0 0)"><rect class="c" width="2.898" height="2.898" transform="translate(0 2.049) rotate(-45.001)"/><rect class="c" width="2.898" height="2.898" transform="translate(9.392 2.049) rotate(-45)"/><rect class="c" width="2.898" height="2.898" transform="translate(0 10.212) rotate(-44.999)"/><rect class="c" width="2.898" height="2.898" transform="matrix(0.707, -0.707, 0.707, 0.707, 9.392, 10.212)"/></g><g transform="translate(68.786 0)"><rect class="c" width="2.898" height="2.898" transform="matrix(0.707, -0.707, 0.707, 0.707, 0, 2.049)"/><rect class="c" width="2.898" height="2.898" transform="translate(9.392 2.049) rotate(-45)"/><rect class="c" width="2.898" height="2.898" transform="translate(0 10.212) rotate(-45)"/><rect class="c" width="2.898" height="2.898" transform="matrix(0.707, -0.707, 0.707, 0.707, 9.392, 10.212)"/></g><g transform="translate(137.573)"><rect class="c" width="2.898" height="2.898" transform="translate(0 2.049) rotate(-45)"/><rect class="c" width="2.898" height="2.898" transform="translate(9.392 2.049) rotate(-45)"/><rect class="c" width="2.898" height="2.898" transform="matrix(0.707, -0.707, 0.707, 0.707, 0, 10.212)"/><rect class="c" width="2.898" height="2.898" transform="translate(9.392 10.212) rotate(-45)"/></g></g><g transform="translate(0 66.868)"><g transform="translate(0 0)"><rect class="c" width="2.898" height="2.898" transform="translate(0 2.049) rotate(-45.001)"/><rect class="c" width="2.898" height="2.898" transform="matrix(0.707, -0.707, 0.707, 0.707, 9.392, 2.049)"/><rect class="c" width="2.898" height="2.898" transform="translate(0 10.212) rotate(-45.001)"/><rect class="c" width="2.898" height="2.898" transform="translate(9.392 10.212) rotate(-45)"/></g><g transform="translate(68.786 0)"><rect class="c" width="2.898" height="2.898" transform="matrix(0.707, -0.707, 0.707, 0.707, 0, 2.049)"/><rect class="c" width="2.898" height="2.898" transform="matrix(0.707, -0.707, 0.707, 0.707, 9.392, 2.049)"/><rect class="c" width="2.898" height="2.898" transform="matrix(0.707, -0.707, 0.707, 0.707, 0, 10.212)"/><rect class="c" width="2.898" height="2.898" transform="translate(9.392 10.212) rotate(-45)"/></g><g transform="translate(137.573)"><rect class="c" width="2.898" height="2.898" transform="translate(0 2.049) rotate(-45)"/><rect class="c" width="2.898" height="2.898" transform="matrix(0.707, -0.707, 0.707, 0.707, 9.392, 2.049)"/><rect class="c" width="2.898" height="2.898" transform="translate(0 10.212) rotate(-45)"/><rect class="c" width="2.898" height="2.898" transform="matrix(0.707, -0.707, 0.707, 0.707, 9.392, 10.212)"/></g></g><g transform="translate(0 133.736)"><rect class="c" width="2.898" height="2.898" transform="translate(0 2.049) rotate(-45.001)"/><rect class="c" width="2.898" height="2.898" transform="translate(9.392 2.049) rotate(-45)"/><rect class="c" width="2.898" height="2.898" transform="translate(0 10.212) rotate(-45.001)"/><rect class="c" width="2.898" height="2.898" transform="translate(9.392 10.212) rotate(-45)"/><g transform="translate(68.786 0)"><rect class="c" width="2.898" height="2.898" transform="matrix(0.707, -0.707, 0.707, 0.707, 0, 2.049)"/><rect class="c" width="2.898" height="2.898" transform="translate(9.392 2.049) rotate(-45)"/><rect class="c" width="2.898" height="2.898" transform="matrix(0.707, -0.707, 0.707, 0.707, 0, 10.212)"/><rect class="c" width="2.898" height="2.898" transform="translate(9.392 10.212) rotate(-45)"/></g><g transform="translate(137.573)"><rect class="c" width="2.898" height="2.898" transform="translate(0 2.049) rotate(-45)"/><rect class="c" width="2.898" height="2.898" transform="translate(9.392 2.049) rotate(-45)"/><rect class="c" width="2.898" height="2.898" transform="translate(0 10.212) rotate(-45)"/><rect class="c" width="2.898" height="2.898" transform="matrix(0.707, -0.707, 0.707, 0.707, 9.392, 10.212)"/></g></g></g><g transform="translate(149.708 239.258)"><line class="g" y1="3.659" x2="3.659"/><line class="g" x1="3.659" y1="3.659"/></g><g transform="translate(78.026 308.591)"><line class="g" y1="3.659" x2="3.659"/><line class="g" x1="3.659" y1="3.659"/></g><g transform="translate(21.363 308.591)"><line class="g" y1="3.659" x2="3.659"/><line class="g" x1="3.659" y1="3.659"/></g><g transform="translate(149.708 308.591)"><line class="g" y1="3.659" x2="3.659"/><line class="g" x1="3.659" y1="3.659"/></g></g><g transform="translate(387.523 225.525)"><g class="f" transform="translate(20.477 182.475)"><g transform="translate(-20.477 -182.475)"><rect class="b" width="109.05" height="109.05" transform="translate(20.477 182.475)"/></g><g transform="translate(109.523 -182.475)"><rect class="b" width="109.05" height="109.05" transform="translate(20.477 182.475)"/></g><g transform="translate(-20.477 -52.475)"><rect class="b" width="109.05" height="109.05" transform="translate(20.477 182.475)"/></g><g transform="translate(109.523 -52.475)"><rect class="b" width="109.05" height="109.05" transform="translate(20.477 182.475)"/></g></g><g transform="translate(37.776 203.858)"><g transform="translate(0)"><g transform="translate(0 0)"><rect class="c" width="2.898" height="2.898" transform="translate(0 2.049) rotate(-45.001)"/><rect class="c" width="2.898" height="2.898" transform="translate(9.392 2.049) rotate(-45)"/><rect class="c" width="2.898" height="2.898" transform="translate(0 10.212) rotate(-44.999)"/><rect class="c" width="2.898" height="2.898" transform="matrix(0.707, -0.707, 0.707, 0.707, 9.392, 10.212)"/></g><g transform="translate(68.786 0)"><rect class="c" width="2.898" height="2.898" transform="matrix(0.707, -0.707, 0.707, 0.707, 0, 2.049)"/><rect class="c" width="2.898" height="2.898" transform="translate(9.392 2.049) rotate(-45)"/><rect class="c" width="2.898" height="2.898" transform="translate(0 10.212) rotate(-45)"/><rect class="c" width="2.898" height="2.898" transform="matrix(0.707, -0.707, 0.707, 0.707, 9.392, 10.212)"/></g><g transform="translate(137.573)"><rect class="c" width="2.898" height="2.898" transform="translate(0 2.049) rotate(-45)"/><rect class="c" width="2.898" height="2.898" transform="translate(9.392 2.049) rotate(-45)"/><rect class="c" width="2.898" height="2.898" transform="matrix(0.707, -0.707, 0.707, 0.707, 0, 10.212)"/><rect class="c" width="2.898" height="2.898" transform="translate(9.392 10.212) rotate(-45)"/></g></g><g transform="translate(0 66.868)"><g transform="translate(0 0)"><rect class="c" width="2.898" height="2.898" transform="translate(0 2.049) rotate(-45.001)"/><rect class="c" width="2.898" height="2.898" transform="matrix(0.707, -0.707, 0.707, 0.707, 9.392, 2.049)"/><rect class="c" width="2.898" height="2.898" transform="translate(0 10.212) rotate(-45.001)"/><rect class="c" width="2.898" height="2.898" transform="translate(9.392 10.212) rotate(-45)"/></g><g transform="translate(68.786 0)"><rect class="c" width="2.898" height="2.898" transform="matrix(0.707, -0.707, 0.707, 0.707, 0, 2.049)"/><rect class="c" width="2.898" height="2.898" transform="matrix(0.707, -0.707, 0.707, 0.707, 9.392, 2.049)"/><rect class="c" width="2.898" height="2.898" transform="matrix(0.707, -0.707, 0.707, 0.707, 0, 10.212)"/><rect class="c" width="2.898" height="2.898" transform="translate(9.392 10.212) rotate(-45)"/></g><g transform="translate(137.573)"><rect class="c" width="2.898" height="2.898" transform="translate(0 2.049) rotate(-45)"/><rect class="c" width="2.898" height="2.898" transform="matrix(0.707, -0.707, 0.707, 0.707, 9.392, 2.049)"/><rect class="c" width="2.898" height="2.898" transform="translate(0 10.212) rotate(-45)"/><rect class="c" width="2.898" height="2.898" transform="matrix(0.707, -0.707, 0.707, 0.707, 9.392, 10.212)"/></g></g><g transform="translate(0 133.736)"><rect class="c" width="2.898" height="2.898" transform="translate(0 2.049) rotate(-45.001)"/><rect class="c" width="2.898" height="2.898" transform="translate(9.392 2.049) rotate(-45)"/><rect class="c" width="2.898" height="2.898" transform="translate(0 10.212) rotate(-45.001)"/><rect class="c" width="2.898" height="2.898" transform="translate(9.392 10.212) rotate(-45)"/><g transform="translate(68.786 0)"><rect class="c" width="2.898" height="2.898" transform="matrix(0.707, -0.707, 0.707, 0.707, 0, 2.049)"/><rect class="c" width="2.898" height="2.898" transform="translate(9.392 2.049) rotate(-45)"/><rect class="c" width="2.898" height="2.898" transform="matrix(0.707, -0.707, 0.707, 0.707, 0, 10.212)"/><rect class="c" width="2.898" height="2.898" transform="translate(9.392 10.212) rotate(-45)"/></g><g transform="translate(137.573)"><rect class="c" width="2.898" height="2.898" transform="translate(0 2.049) rotate(-45)"/><rect class="c" width="2.898" height="2.898" transform="translate(9.392 2.049) rotate(-45)"/><rect class="c" width="2.898" height="2.898" transform="translate(0 10.212) rotate(-45)"/><rect class="c" width="2.898" height="2.898" transform="matrix(0.707, -0.707, 0.707, 0.707, 9.392, 10.212)"/></g></g></g><g transform="translate(149.708 239.258)"><line class="g" y1="3.659" x2="3.659"/><line class="g" x1="3.659" y1="3.659"/></g><g transform="translate(78.026 308.591)"><line class="g" y1="3.659" x2="3.659"/><line class="g" x1="3.659" y1="3.659"/></g><g transform="translate(21.363 308.591)"><line class="g" y1="3.659" x2="3.659"/><line class="g" x1="3.659" y1="3.659"/></g><g transform="translate(149.708 308.591)"><line class="g" y1="3.659" x2="3.659"/><line class="g" x1="3.659" y1="3.659"/></g></g><g transform="translate(-20.477 429.525)"><g class="f" transform="translate(20.477 182.475)"><g transform="translate(-20.477 -182.475)"><rect class="b" width="109.05" height="109.05" transform="translate(20.477 182.475)"/></g><g transform="translate(109.523 -182.475)"><rect class="b" width="109.05" height="109.05" transform="translate(20.477 182.475)"/></g><g transform="translate(-20.477 -52.475)"><rect class="b" width="109.05" height="109.05" transform="translate(20.477 182.475)"/></g><g transform="translate(109.523 -52.475)"><rect class="b" width="109.05" height="109.05" transform="translate(20.477 182.475)"/></g></g><g transform="translate(37.776 203.858)"><g transform="translate(0)"><g transform="translate(0 0)"><rect class="c" width="2.898" height="2.898" transform="translate(0 2.049) rotate(-45.001)"/><rect class="c" width="2.898" height="2.898" transform="translate(9.392 2.049) rotate(-45)"/><rect class="c" width="2.898" height="2.898" transform="translate(0 10.212) rotate(-44.999)"/><rect class="c" width="2.898" height="2.898" transform="matrix(0.707, -0.707, 0.707, 0.707, 9.392, 10.212)"/></g><g transform="translate(68.786 0)"><rect class="c" width="2.898" height="2.898" transform="matrix(0.707, -0.707, 0.707, 0.707, 0, 2.049)"/><rect class="c" width="2.898" height="2.898" transform="translate(9.392 2.049) rotate(-45)"/><rect class="c" width="2.898" height="2.898" transform="translate(0 10.212) rotate(-45)"/><rect class="c" width="2.898" height="2.898" transform="matrix(0.707, -0.707, 0.707, 0.707, 9.392, 10.212)"/></g><g transform="translate(137.573)"><rect class="c" width="2.898" height="2.898" transform="translate(0 2.049) rotate(-45)"/><rect class="c" width="2.898" height="2.898" transform="translate(9.392 2.049) rotate(-45)"/><rect class="c" width="2.898" height="2.898" transform="matrix(0.707, -0.707, 0.707, 0.707, 0, 10.212)"/><rect class="c" width="2.898" height="2.898" transform="translate(9.392 10.212) rotate(-45)"/></g></g><g transform="translate(0 66.868)"><g transform="translate(0 0)"><rect class="c" width="2.898" height="2.898" transform="translate(0 2.049) rotate(-45.001)"/><rect class="c" width="2.898" height="2.898" transform="matrix(0.707, -0.707, 0.707, 0.707, 9.392, 2.049)"/><rect class="c" width="2.898" height="2.898" transform="translate(0 10.212) rotate(-45.001)"/><rect class="c" width="2.898" height="2.898" transform="translate(9.392 10.212) rotate(-45)"/></g><g transform="translate(68.786 0)"><rect class="c" width="2.898" height="2.898" transform="matrix(0.707, -0.707, 0.707, 0.707, 0, 2.049)"/><rect class="c" width="2.898" height="2.898" transform="matrix(0.707, -0.707, 0.707, 0.707, 9.392, 2.049)"/><rect class="c" width="2.898" height="2.898" transform="matrix(0.707, -0.707, 0.707, 0.707, 0, 10.212)"/><rect class="c" width="2.898" height="2.898" transform="translate(9.392 10.212) rotate(-45)"/></g><g transform="translate(137.573)"><rect class="c" width="2.898" height="2.898" transform="translate(0 2.049) rotate(-45)"/><rect class="c" width="2.898" height="2.898" transform="matrix(0.707, -0.707, 0.707, 0.707, 9.392, 2.049)"/><rect class="c" width="2.898" height="2.898" transform="translate(0 10.212) rotate(-45)"/><rect class="c" width="2.898" height="2.898" transform="matrix(0.707, -0.707, 0.707, 0.707, 9.392, 10.212)"/></g></g><g transform="translate(0 133.736)"><rect class="c" width="2.898" height="2.898" transform="translate(0 2.049) rotate(-45.001)"/><rect class="c" width="2.898" height="2.898" transform="translate(9.392 2.049) rotate(-45)"/><rect class="c" width="2.898" height="2.898" transform="translate(0 10.212) rotate(-45.001)"/><rect class="c" width="2.898" height="2.898" transform="translate(9.392 10.212) rotate(-45)"/><g transform="translate(68.786 0)"><rect class="c" width="2.898" height="2.898" transform="matrix(0.707, -0.707, 0.707, 0.707, 0, 2.049)"/><rect class="c" width="2.898" height="2.898" transform="translate(9.392 2.049) rotate(-45)"/><rect class="c" width="2.898" height="2.898" transform="matrix(0.707, -0.707, 0.707, 0.707, 0, 10.212)"/><rect class="c" width="2.898" height="2.898" transform="translate(9.392 10.212) rotate(-45)"/></g><g transform="translate(137.573)"><rect class="c" width="2.898" height="2.898" transform="translate(0 2.049) rotate(-45)"/><rect class="c" width="2.898" height="2.898" transform="translate(9.392 2.049) rotate(-45)"/><rect class="c" width="2.898" height="2.898" transform="translate(0 10.212) rotate(-45)"/><rect class="c" width="2.898" height="2.898" transform="matrix(0.707, -0.707, 0.707, 0.707, 9.392, 10.212)"/></g></g></g><g transform="translate(149.708 239.258)"><line class="g" y1="3.659" x2="3.659"/><line class="g" x1="3.659" y1="3.659"/></g><g transform="translate(78.026 308.591)"><line class="g" y1="3.659" x2="3.659"/><line class="g" x1="3.659" y1="3.659"/></g><g transform="translate(21.363 308.591)"><line class="g" y1="3.659" x2="3.659"/><line class="g" x1="3.659" y1="3.659"/></g><g transform="translate(149.708 308.591)"><line class="g" y1="3.659" x2="3.659"/><line class="g" x1="3.659" y1="3.659"/></g></g><g transform="translate(183.523 429.525)"><g class="f" transform="translate(20.477 182.475)"><g transform="translate(-20.477 -182.475)"><rect class="b" width="109.05" height="109.05" transform="translate(20.477 182.475)"/></g><g transform="translate(109.523 -182.475)"><rect class="b" width="109.05" height="109.05" transform="translate(20.477 182.475)"/></g><g transform="translate(-20.477 -52.475)"><rect class="b" width="109.05" height="109.05" transform="translate(20.477 182.475)"/></g><g transform="translate(109.523 -52.475)"><rect class="b" width="109.05" height="109.05" transform="translate(20.477 182.475)"/></g></g><g transform="translate(37.776 203.858)"><g transform="translate(0)"><g transform="translate(0 0)"><rect class="c" width="2.898" height="2.898" transform="translate(0 2.049) rotate(-45.001)"/><rect class="c" width="2.898" height="2.898" transform="translate(9.392 2.049) rotate(-45)"/><rect class="c" width="2.898" height="2.898" transform="translate(0 10.212) rotate(-44.999)"/><rect class="c" width="2.898" height="2.898" transform="matrix(0.707, -0.707, 0.707, 0.707, 9.392, 10.212)"/></g><g transform="translate(68.786 0)"><rect class="c" width="2.898" height="2.898" transform="matrix(0.707, -0.707, 0.707, 0.707, 0, 2.049)"/><rect class="c" width="2.898" height="2.898" transform="translate(9.392 2.049) rotate(-45)"/><rect class="c" width="2.898" height="2.898" transform="translate(0 10.212) rotate(-45)"/><rect class="c" width="2.898" height="2.898" transform="matrix(0.707, -0.707, 0.707, 0.707, 9.392, 10.212)"/></g><g transform="translate(137.573)"><rect class="c" width="2.898" height="2.898" transform="translate(0 2.049) rotate(-45)"/><rect class="c" width="2.898" height="2.898" transform="translate(9.392 2.049) rotate(-45)"/><rect class="c" width="2.898" height="2.898" transform="matrix(0.707, -0.707, 0.707, 0.707, 0, 10.212)"/><rect class="c" width="2.898" height="2.898" transform="translate(9.392 10.212) rotate(-45)"/></g></g><g transform="translate(0 66.868)"><g transform="translate(0 0)"><rect class="c" width="2.898" height="2.898" transform="translate(0 2.049) rotate(-45.001)"/><rect class="c" width="2.898" height="2.898" transform="matrix(0.707, -0.707, 0.707, 0.707, 9.392, 2.049)"/><rect class="c" width="2.898" height="2.898" transform="translate(0 10.212) rotate(-45.001)"/><rect class="c" width="2.898" height="2.898" transform="translate(9.392 10.212) rotate(-45)"/></g><g transform="translate(68.786 0)"><rect class="c" width="2.898" height="2.898" transform="matrix(0.707, -0.707, 0.707, 0.707, 0, 2.049)"/><rect class="c" width="2.898" height="2.898" transform="matrix(0.707, -0.707, 0.707, 0.707, 9.392, 2.049)"/><rect class="c" width="2.898" height="2.898" transform="matrix(0.707, -0.707, 0.707, 0.707, 0, 10.212)"/><rect class="c" width="2.898" height="2.898" transform="translate(9.392 10.212) rotate(-45)"/></g><g transform="translate(137.573)"><rect class="c" width="2.898" height="2.898" transform="translate(0 2.049) rotate(-45)"/><rect class="c" width="2.898" height="2.898" transform="matrix(0.707, -0.707, 0.707, 0.707, 9.392, 2.049)"/><rect class="c" width="2.898" height="2.898" transform="translate(0 10.212) rotate(-45)"/><rect class="c" width="2.898" height="2.898" transform="matrix(0.707, -0.707, 0.707, 0.707, 9.392, 10.212)"/></g></g><g transform="translate(0 133.736)"><rect class="c" width="2.898" height="2.898" transform="translate(0 2.049) rotate(-45.001)"/><rect class="c" width="2.898" height="2.898" transform="translate(9.392 2.049) rotate(-45)"/><rect class="c" width="2.898" height="2.898" transform="translate(0 10.212) rotate(-45.001)"/><rect class="c" width="2.898" height="2.898" transform="translate(9.392 10.212) rotate(-45)"/><g transform="translate(68.786 0)"><rect class="c" width="2.898" height="2.898" transform="matrix(0.707, -0.707, 0.707, 0.707, 0, 2.049)"/><rect class="c" width="2.898" height="2.898" transform="translate(9.392 2.049) rotate(-45)"/><rect class="c" width="2.898" height="2.898" transform="matrix(0.707, -0.707, 0.707, 0.707, 0, 10.212)"/><rect class="c" width="2.898" height="2.898" transform="translate(9.392 10.212) rotate(-45)"/></g><g transform="translate(137.573)"><rect class="c" width="2.898" height="2.898" transform="translate(0 2.049) rotate(-45)"/><rect class="c" width="2.898" height="2.898" transform="translate(9.392 2.049) rotate(-45)"/><rect class="c" width="2.898" height="2.898" transform="translate(0 10.212) rotate(-45)"/><rect class="c" width="2.898" height="2.898" transform="matrix(0.707, -0.707, 0.707, 0.707, 9.392, 10.212)"/></g></g></g><g transform="translate(149.708 239.258)"><line class="g" y1="3.659" x2="3.659"/><line class="g" x1="3.659" y1="3.659"/></g><g transform="translate(78.026 308.591)"><line class="g" y1="3.659" x2="3.659"/><line class="g" x1="3.659" y1="3.659"/></g><g transform="translate(21.363 308.591)"><line class="g" y1="3.659" x2="3.659"/><line class="g" x1="3.659" y1="3.659"/></g><g transform="translate(149.708 308.591)"><line class="g" y1="3.659" x2="3.659"/><line class="g" x1="3.659" y1="3.659"/></g></g><g transform="translate(387.523 429.525)"><g class="f" transform="translate(20.477 182.475)"><g transform="translate(-20.477 -182.475)"><rect class="b" width="109.05" height="109.05" transform="translate(20.477 182.475)"/></g><g transform="translate(109.523 -182.475)"><rect class="b" width="109.05" height="109.05" transform="translate(20.477 182.475)"/></g><g transform="translate(-20.477 -52.475)"><rect class="b" width="109.05" height="109.05" transform="translate(20.477 182.475)"/></g><g transform="translate(109.523 -52.475)"><rect class="b" width="109.05" height="109.05" transform="translate(20.477 182.475)"/></g></g><g transform="translate(37.776 203.858)"><g transform="translate(0)"><g transform="translate(0 0)"><rect class="c" width="2.898" height="2.898" transform="translate(0 2.049) rotate(-45.001)"/><rect class="c" width="2.898" height="2.898" transform="translate(9.392 2.049) rotate(-45)"/><rect class="c" width="2.898" height="2.898" transform="translate(0 10.212) rotate(-44.999)"/><rect class="c" width="2.898" height="2.898" transform="matrix(0.707, -0.707, 0.707, 0.707, 9.392, 10.212)"/></g><g transform="translate(68.786 0)"><rect class="c" width="2.898" height="2.898" transform="matrix(0.707, -0.707, 0.707, 0.707, 0, 2.049)"/><rect class="c" width="2.898" height="2.898" transform="translate(9.392 2.049) rotate(-45)"/><rect class="c" width="2.898" height="2.898" transform="translate(0 10.212) rotate(-45)"/><rect class="c" width="2.898" height="2.898" transform="matrix(0.707, -0.707, 0.707, 0.707, 9.392, 10.212)"/></g><g transform="translate(137.573)"><rect class="c" width="2.898" height="2.898" transform="translate(0 2.049) rotate(-45)"/><rect class="c" width="2.898" height="2.898" transform="translate(9.392 2.049) rotate(-45)"/><rect class="c" width="2.898" height="2.898" transform="matrix(0.707, -0.707, 0.707, 0.707, 0, 10.212)"/><rect class="c" width="2.898" height="2.898" transform="translate(9.392 10.212) rotate(-45)"/></g></g><g transform="translate(0 66.868)"><g transform="translate(0 0)"><rect class="c" width="2.898" height="2.898" transform="translate(0 2.049) rotate(-45.001)"/><rect class="c" width="2.898" height="2.898" transform="matrix(0.707, -0.707, 0.707, 0.707, 9.392, 2.049)"/><rect class="c" width="2.898" height="2.898" transform="translate(0 10.212) rotate(-45.001)"/><rect class="c" width="2.898" height="2.898" transform="translate(9.392 10.212) rotate(-45)"/></g><g transform="translate(68.786 0)"><rect class="c" width="2.898" height="2.898" transform="matrix(0.707, -0.707, 0.707, 0.707, 0, 2.049)"/><rect class="c" width="2.898" height="2.898" transform="matrix(0.707, -0.707, 0.707, 0.707, 9.392, 2.049)"/><rect class="c" width="2.898" height="2.898" transform="matrix(0.707, -0.707, 0.707, 0.707, 0, 10.212)"/><rect class="c" width="2.898" height="2.898" transform="translate(9.392 10.212) rotate(-45)"/></g><g transform="translate(137.573)"><rect class="c" width="2.898" height="2.898" transform="translate(0 2.049) rotate(-45)"/><rect class="c" width="2.898" height="2.898" transform="matrix(0.707, -0.707, 0.707, 0.707, 9.392, 2.049)"/><rect class="c" width="2.898" height="2.898" transform="translate(0 10.212) rotate(-45)"/><rect class="c" width="2.898" height="2.898" transform="matrix(0.707, -0.707, 0.707, 0.707, 9.392, 10.212)"/></g></g><g transform="translate(0 133.736)"><rect class="c" width="2.898" height="2.898" transform="translate(0 2.049) rotate(-45.001)"/><rect class="c" width="2.898" height="2.898" transform="translate(9.392 2.049) rotate(-45)"/><rect class="c" width="2.898" height="2.898" transform="translate(0 10.212) rotate(-45.001)"/><rect class="c" width="2.898" height="2.898" transform="translate(9.392 10.212) rotate(-45)"/><g transform="translate(68.786 0)"><rect class="c" width="2.898" height="2.898" transform="matrix(0.707, -0.707, 0.707, 0.707, 0, 2.049)"/><rect class="c" width="2.898" height="2.898" transform="translate(9.392 2.049) rotate(-45)"/><rect class="c" width="2.898" height="2.898" transform="matrix(0.707, -0.707, 0.707, 0.707, 0, 10.212)"/><rect class="c" width="2.898" height="2.898" transform="translate(9.392 10.212) rotate(-45)"/></g><g transform="translate(137.573)"><rect class="c" width="2.898" height="2.898" transform="translate(0 2.049) rotate(-45)"/><rect class="c" width="2.898" height="2.898" transform="translate(9.392 2.049) rotate(-45)"/><rect class="c" width="2.898" height="2.898" transform="translate(0 10.212) rotate(-45)"/><rect class="c" width="2.898" height="2.898" transform="matrix(0.707, -0.707, 0.707, 0.707, 9.392, 10.212)"/></g></g></g><g transform="translate(149.708 239.258)"><line class="g" y1="3.659" x2="3.659"/><line class="g" x1="3.659" y1="3.659"/></g><g transform="translate(78.026 308.591)"><line class="g" y1="3.659" x2="3.659"/><line class="g" x1="3.659" y1="3.659"/></g><g transform="translate(21.363 308.591)"><line class="g" y1="3.659" x2="3.659"/><line class="g" x1="3.659" y1="3.659"/></g><g transform="translate(149.708 308.591)"><line class="g" y1="3.659" x2="3.659"/><line class="g" x1="3.659" y1="3.659"/></g></g></g></g><g transform="translate(-7288.936 1120)"><g class="h" transform="translate(8351.936 -831)"><ellipse class="r" cx="263.5" cy="263" rx="263.5" ry="263"/><ellipse class="b" cx="263.5" cy="263" rx="262.5" ry="262"/></g><g class="i" transform="translate(8351.936 -831)"><ellipse class="r" cx="263.5" cy="263" rx="263.5" ry="263"/><ellipse class="b" cx="263.5" cy="263" rx="262.5" ry="262"/></g><g transform="translate(8391.11 -837.294)"><line class="j" x1="173.756" y2="114.631" transform="translate(272.7 124.284)"/><line class="j" y2="214.782" transform="translate(220.815)"/><path class="j" d="M0,0,175.657,117.112" transform="translate(0 124.284)"/></g><g transform="translate(8393.367 -551.399)"><line class="j" x1="168.929" y1="111.011" transform="translate(277.527 0)"/><path class="j" d="M0,157.989V-34.644" transform="translate(220.815 77.306)"/><line class="j" y1="111.011" x2="164.103" transform="translate(0 0)"/><line class="j" x1="168.929" y1="111.011" transform="translate(277.527)"/></g><g class="y" transform="matrix(1, 0, 0, 1, 8198.94, -904)"><circle class="a" cx="34.5" cy="34.5" r="34.5" transform="translate(379 39)"/></g><g class="k" transform="translate(8542.936 -640)"><ellipse class="r" cx="72.5" cy="72" rx="72.5" ry="72"/><ellipse class="b" cx="72.5" cy="72" rx="71.5" ry="71"/></g><g class="x" transform="matrix(1, 0, 0, 1, 8198.94, -904)"><circle class="a" cx="34.5" cy="34.5" r="34.5" transform="translate(380 562)"/></g><g class="w" transform="matrix(1, 0, 0, 1, 8198.94, -904)"><circle class="a" cx="39.5" cy="39.5" r="39.5" transform="translate(601 149)"/></g><g class="v" transform="matrix(1, 0, 0, 1, 8198.94, -904)"><circle class="a" cx="34.5" cy="34.5" r="34.5" transform="translate(611 436)"/></g><g class="u" transform="matrix(1, 0, 0, 1, 8198.94, -904)"><circle class="a" cx="34.5" cy="34.5" r="34.5" transform="translate(160 156)"/></g><g class="t" transform="matrix(1, 0, 0, 1, 8198.94, -904)"><circle class="a" cx="34.5" cy="34.5" r="34.5" transform="translate(159 436)"/></g><circle class="a" cx="70" cy="70" r="70" transform="translate(8545.936 -638)"/><g transform="translate(8567.489 -616.382)"><path class="l" d="M48.449,0A48.45,48.45,0,0,1,84.581,80.727h0L80.45,76.6a3.921,3.921,0,0,0-2.567-1.147l-.216-.006a3.935,3.935,0,0,0-2.941,6.549l.159.168,3.993,3.992A48.451,48.451,0,0,1,10.746,18.02l3.422,3.423A3.923,3.923,0,0,0,16.95,22.6l.216-.006a3.935,3.935,0,0,0,2.567-6.712h0l-3.561-3.561h0A48.268,48.268,0,0,1,48.449,0Zm1.032,76.505-.167.158-9.776,9.776A3.908,3.908,0,0,0,42.3,93.112l.214-.006a3.894,3.894,0,0,0,2.549-1.139h0l9.776-9.776a3.909,3.909,0,0,0-2.55-6.666l-.214-.006A3.9,3.9,0,0,0,49.481,76.505ZM60.057,62.751a6.863,6.863,0,0,0-.033,9.706,6.793,6.793,0,0,0,4.711,1.993h.27a6.9,6.9,0,0,0,4.757-11.731,6.787,6.787,0,0,0-4.441-1.983l-.27-.01A6.889,6.889,0,0,0,60.057,62.751ZM39.709,41.419a3.935,3.935,0,0,0-.159,5.4l.159.168,9.635,9.635a3.923,3.923,0,0,0,2.783,1.153l.216-.006a3.935,3.935,0,0,0,2.567-6.712h0l-9.635-9.635a3.92,3.92,0,0,0-2.567-1.147l-.216-.006A3.923,3.923,0,0,0,39.709,41.419ZM24.881,27.575a6.863,6.863,0,0,0-.033,9.706,6.793,6.793,0,0,0,4.711,1.993h.27a6.9,6.9,0,0,0,4.758-11.731,6.789,6.789,0,0,0-4.441-1.983l-.27-.01A6.889,6.889,0,0,0,24.881,27.575ZM49.72,5.913l-.167.158-9.776,9.776A3.908,3.908,0,0,0,42.54,22.52l.214-.006a3.894,3.894,0,0,0,2.55-1.139h0L55.081,11.6a3.909,3.909,0,0,0-2.55-6.666l-.214-.006A3.9,3.9,0,0,0,49.72,5.913Z" transform="translate(0 0)"/></g><g transform="translate(8595.285 -326.082)"><path class="m" d="M189.547,136.269l6.507,6.507a.6.6,0,0,0,.848,0l3.43-3.43a.6.6,0,0,0,0-.847l-10.785-10.785a.6.6,0,0,0-.848,0L177.919,138.5a.6.6,0,0,0,0,.847l3.43,3.43a.6.6,0,0,0,.848,0l6.5-6.5A.6.6,0,0,1,189.547,136.269Z" transform="translate(-170.445 -127.539)"/><path class="m" d="M131.167,228.461l-3.43,3.43a.6.6,0,0,0,0,.847l3.43,3.43a.6.6,0,0,0,.848,0l3.43-3.43a.6.6,0,0,0,0-.847l-3.43-3.43a.6.6,0,0,0-.847,0Z" transform="translate(-127.561 -213.637)"/><path class="m" d="M189.515,293.692,200.3,282.9a.6.6,0,0,0,0-.848l-3.432-3.428a.6.6,0,0,0-.847,0l-6.507,6.507a.6.6,0,0,1-.848,0l-6.5-6.5a.6.6,0,0,0-.847,0l-3.435,3.425a.6.6,0,0,0,0,.848l10.787,10.787A.6.6,0,0,0,189.515,293.692Z" transform="translate(-170.413 -256.51)"/><path class="m" d="M332.632,228.475l-3.43,3.43a.6.6,0,0,0,0,.847l3.43,3.43a.6.6,0,0,0,.848,0l3.43-3.43a.6.6,0,0,0,0-.847l-3.43-3.43A.6.6,0,0,0,332.632,228.475Z" transform="translate(-299.728 -213.649)"/><path class="m" d="M235.858,231.511l-3.5-3.5a.6.6,0,0,0-.848,0l-3.5,3.5a.6.6,0,0,0,0,.847l3.5,3.5a.6.6,0,0,0,.848,0l3.5-3.5A.6.6,0,0,0,235.858,231.511Z" transform="translate(-213.261 -213.257)"/></g><g transform="translate(8833.878 -452.697)"><path class="m" d="M158.461,128.135l2.924,4.005v8.636l-10.985-5.07V113.4a1.144,1.144,0,0,1,.389-.862l1.251-1.115a1.136,1.136,0,0,1,1.69.186l10,13.638,5.526,3.515V109.95l-4.884-2.535-.237,11.8-2.586-3.566-.118-12.946,10.934,5.29V130.2l-2.484,2.129-7.825-4.546-8.687-11.847-.118,18,5.171,2.755Z" transform="translate(-150.4 -102.7)"/></g><g transform="translate(8601.181 -846.591)"><path class="m" d="M1369.4,22.977a12.66,12.66,0,0,1,12.827,10.753,12.475,12.475,0,0,1-9.771,14.042,29.98,29.98,0,0,1-3.384.392,4.416,4.416,0,0,0-3.958,3.54c-.186.871-.362,1.744-.567,2.61a1.724,1.724,0,0,1-1.671,1.312,1.687,1.687,0,0,1-1.652-1.232,2.183,2.183,0,0,1-.03-.969q1.941-9.145,3.913-18.283a1.732,1.732,0,1,1,3.393.694c-.541,2.568-1.1,5.131-1.654,7.7-.081.378-.157.756-.238,1.134-.037.174,0,.277.206.253,1.582-.183,3.177-.291,4.744-.558a9.009,9.009,0,0,0-.614-17.788,9.024,9.024,0,0,0-9.695,11.791,1.762,1.762,0,1,1-3.342,1.078A12.529,12.529,0,0,1,1367.1,23.3,22.154,22.154,0,0,1,1369.4,22.977Z" transform="translate(-1357.292 -22.977)"/><path class="m" d="M1394.406,111.065a2.072,2.072,0,1,1-2.075-2.1A2.028,2.028,0,0,1,1394.406,111.065Z" transform="translate(-1379.338 -80.478)"/></g><path class="m" d="M1262.224-650.477,1255.746-644a11.387,11.387,0,0,1-1.109,14.156,11.724,11.724,0,0,1-14.489,1.364l-6.5,6.533-2.572-2.571,6.506-6.5a11.208,11.208,0,0,1-1.8-8.793,10.589,10.589,0,0,1,3.28-5.8,11.649,11.649,0,0,1,14.085-.944c1.071-1.094,2.15-2.206,3.24-3.308s2.17-2.173,3.224-3.228Zm-9.273,9.328-10.022,10.076a7.124,7.124,0,0,0,8.591-.829,7.734,7.734,0,0,0,2.233-6.627A6.844,6.844,0,0,0,1252.95-641.149Zm-12.652,7.2,10.018-10.08a7.089,7.089,0,0,0-7.383-.042,7.317,7.317,0,0,0-3.477,6.334A7.576,7.576,0,0,0,1240.3-633.949Z" transform="translate(7146.491 -75.742)"/><g transform="translate(8825.287 -737.45)"><path class="m" d="M28.824,24.749,14.412,30.087,0,24.749,14.412,0Zm0,0"/><path class="m" d="M34.917,323.7,21.134,339.826,7.352,323.7l13.783,5.1Zm0,0" transform="translate(-6.722 -295.976)"/><path class="m" d="M168.281,328.8l13.783-5.1-13.783,16.127Zm0,0" transform="translate(-153.869 -295.976)"/><path class="m" d="M182.693,24.749l-14.412,5.338V0Zm0,0" transform="translate(-153.869)"/></g><circle class="c" cx="4" cy="4" r="4" transform="translate(8739.936 -800)"/><circle class="c" cx="4" cy="4" r="4" transform="translate(8739.936 -344)"/><circle class="c" cx="4" cy="4" r="4" transform="translate(8873.936 -579)"/><circle class="c" cx="4" cy="4" r="4" transform="translate(8348.936 -572)"/><circle class="c" cx="4" cy="4" r="4" transform="translate(8483.936 -801)"/><circle class="c" cx="4" cy="4" r="4" transform="translate(8482.936 -344)"/><circle class="c" cx="4" cy="4" r="4" transform="translate(8516.936 -630)"/><circle class="c" cx="4" cy="4" r="4" transform="translate(8607.936 -675)"/><circle class="c" cx="4" cy="4" r="4" transform="translate(8704.936 -632)"/><circle class="c" cx="4" cy="4" r="4" transform="translate(8703.936 -531)"/><circle class="c" cx="4" cy="4" r="4" transform="translate(8609.936 -473)"/><circle class="c" cx="4" cy="4" r="4" transform="translate(8516.936 -531)"/><g transform="translate(8376.934 -446.713)"><g transform="translate(0.003 -0.003)"><path class="n" d="M18.628,0c4.422,0,8.83.017,13.245,0a1.188,1.188,0,0,1,.95.5.767.767,0,0,1,.119.366,3.252,3.252,0,0,1,0,.373.7.7,0,0,1-.209.52c-1.4,1.587-2.958,3.027-4.455,4.541a1.076,1.076,0,0,1-.794.333H.993A.991.991,0,0,1,0,5.684,1.468,1.468,0,0,1,.48,4.529c.71-.7,1.423-1.366,2.089-2.091s1.343-1.4,2.017-2.1a1.015,1.015,0,0,1,.8-.34Q12.006.017,18.628,0Z" transform="translate(-0.003 0.003)"/><path class="n" d="M14.289,91.352H1.147A1.017,1.017,0,0,1,.118,90.71,1.173,1.173,0,0,1,.287,89.57c.848-.851,1.663-1.732,2.512-2.592.587-.6,1.188-1.188,1.78-1.782a1.24,1.24,0,0,1,.92-.378H31.844a1.081,1.081,0,0,1,1.081.642,1.5,1.5,0,0,1,.05.765.687.687,0,0,1-.226.368q-2.2,2.215-4.417,4.42a1.188,1.188,0,0,1-.884.345Q20.871,91.347,14.289,91.352Z" transform="translate(-0.033 -64.66)"/><path class="n" d="M14.268,42.423h13.1a2.357,2.357,0,0,1,.449.04.967.967,0,0,1,.489.29c1.015,1.031,2.039,2.051,3.063,3.072a7.27,7.27,0,0,0,.981.891.836.836,0,0,1,.166.164,2.115,2.115,0,0,1,.423.57,1.927,1.927,0,0,1,0,.739.57.57,0,0,1-.143.307,1.24,1.24,0,0,1-.974.459H5.571a1.487,1.487,0,0,1-1.076-.44,11.7,11.7,0,0,1-.92-.924C2.563,46.4,1.384,45.367.305,44.239A1.114,1.114,0,0,1,.13,42.993a1.022,1.022,0,0,1,.95-.575Q7.671,42.433,14.268,42.423Z" transform="translate(-0.011 -32.338)"/></g></g></g><g transform="translate(-3 -2)"><rect class="a" width="34" height="24" rx="3" transform="translate(1176 456)"/><g transform="translate(682.489 453.236)"><g transform="translate(499.887 27.021)"><g transform="translate(5.304 0)"><rect class="c" width="4.729" height="1.616" transform="translate(0 4.261) rotate(-64.269)"/></g><g transform="translate(11.863 0.019)"><rect class="c" width="1.616" height="4.674" transform="translate(0 0.664) rotate(-24.277)"/></g><g transform="translate(0 4.1)"><rect class="c" width="20.553" height="1.597" rx="0.799"/><g class="o"><path class="c" d="M559.852,283.969h0Z" transform="translate(-559.852 -282.372)"/><rect class="c" width="20.553" height="0.013" transform="translate(0 1.584)"/><rect class="c" width="20.553" height="0.013" transform="translate(0 1.571)"/><rect class="c" width="20.553" height="0.013" transform="translate(0 1.558)"/><rect class="c" width="20.553" height="0.013" transform="translate(0 1.545)"/><rect class="c" width="20.553" height="0.013" transform="translate(0 1.532)"/><rect class="c" width="20.553" height="0.013" transform="translate(0 1.518)"/><rect class="c" width="20.553" height="0.013" transform="translate(0 1.505)"/><rect class="c" width="20.553" height="0.013" transform="translate(0 1.492)"/><rect class="c" width="20.553" height="0.013" transform="translate(0 1.479)"/><rect class="c" width="20.553" height="0.013" transform="translate(0 1.466)"/><rect class="c" width="20.553" height="0.013" transform="translate(0 1.453)"/><rect class="c" width="20.553" height="0.013" transform="translate(0 1.44)"/><rect class="c" width="20.553" height="0.013" transform="translate(0 1.427)"/><rect class="c" width="20.553" height="0.013" transform="translate(0 1.414)"/><rect class="c" width="20.553" height="0.013" transform="translate(0 1.401)"/><rect class="c" width="20.553" height="0.013" transform="translate(0 1.388)"/><rect class="c" width="20.553" height="0.013" transform="translate(0 1.374)"/><rect class="c" width="20.553" height="0.013" transform="translate(0 1.361)"/><rect class="c" width="20.553" height="0.013" transform="translate(0 1.348)"/><rect class="c" width="20.553" height="0.013" transform="translate(0 1.335)"/><rect class="c" width="20.553" height="0.013" transform="translate(0 1.322)"/><rect class="c" width="20.553" height="0.013" transform="translate(0 1.309)"/><rect class="c" width="20.553" height="0.013" transform="translate(0 1.296)"/><rect class="c" width="20.553" height="0.013" transform="translate(0 1.283)"/><rect class="c" width="20.553" height="0.013" transform="translate(0 1.27)"/><rect class="c" width="20.553" height="0.013" transform="translate(0 1.257)"/><rect class="c" width="20.553" height="0.013" transform="translate(0 1.244)"/><rect class="c" width="20.553" height="0.013" transform="translate(0 1.231)"/><rect class="c" width="20.553" height="0.013" transform="translate(0 1.217)"/><rect class="c" width="20.553" height="0.013" transform="translate(0 1.204)"/><rect class="c" width="20.553" height="0.013" transform="translate(0 1.191)"/><rect class="c" width="20.553" height="0.013" transform="translate(0 1.178)"/><rect class="c" width="20.553" height="0.013" transform="translate(0 1.165)"/><rect class="c" width="20.553" height="0.013" transform="translate(0 1.152)"/><rect class="c" width="20.553" height="0.013" transform="translate(0 1.139)"/><rect class="c" width="20.553" height="0.013" transform="translate(0 1.126)"/><rect class="c" width="20.553" height="0.013" transform="translate(0 1.113)"/><rect class="c" width="20.553" height="0.013" transform="translate(0 1.1)"/><rect class="c" width="20.553" height="0.013" transform="translate(0 1.087)"/><rect class="c" width="20.553" height="0.013" transform="translate(0 1.073)"/><rect class="c" width="20.553" height="0.013" transform="translate(0 1.06)"/><rect class="c" width="20.553" height="0.013" transform="translate(0 1.047)"/><rect class="c" width="20.553" height="0.013" transform="translate(0 1.034)"/><rect class="c" width="20.553" height="0.013" transform="translate(0 1.021)"/><rect class="c" width="20.553" height="0.013" transform="translate(0 1.008)"/><rect class="c" width="20.553" height="0.013" transform="translate(0 0.995)"/><rect class="c" width="20.553" height="0.013" transform="translate(0 0.982)"/><rect class="c" width="20.553" height="0.013" transform="translate(0 0.969)"/><rect class="c" width="20.553" height="0.013" transform="translate(0 0.956)"/><rect class="c" width="20.553" height="0.013" transform="translate(0 0.943)"/><rect class="c" width="20.553" height="0.013" transform="translate(0 0.929)"/><rect class="c" width="20.553" height="0.013" transform="translate(0 0.916)"/><rect class="c" width="20.553" height="0.013" transform="translate(0 0.903)"/><rect class="c" width="20.553" height="0.013" transform="translate(0 0.89)"/><rect class="c" width="20.553" height="0.013" transform="translate(0 0.877)"/><rect class="c" width="20.553" height="0.013" transform="translate(0 0.864)"/><rect class="c" width="20.553" height="0.013" transform="translate(0 0.851)"/><rect class="c" width="20.553" height="0.013" transform="translate(0 0.838)"/><rect class="c" width="20.553" height="0.013" transform="translate(0 0.825)"/><rect class="c" width="20.553" height="0.013" transform="translate(0 0.812)"/><rect class="c" width="20.553" height="0.013" transform="translate(0 0.799)"/><rect class="c" width="20.553" height="0.013" transform="translate(0 0.785)"/><rect class="c" width="20.553" height="0.013" transform="translate(0 0.772)"/><rect class="c" width="20.553" height="0.013" transform="translate(0 0.759)"/><rect class="c" width="20.553" height="0.013" transform="translate(0 0.746)"/><rect class="c" width="20.553" height="0.013" transform="translate(0 0.733)"/><rect class="c" width="20.553" height="0.013" transform="translate(0 0.72)"/><rect class="c" width="20.553" height="0.013" transform="translate(0 0.707)"/><rect class="c" width="20.553" height="0.013" transform="translate(0 0.694)"/><rect class="c" width="20.553" height="0.013" transform="translate(0 0.681)"/><rect class="c" width="20.553" height="0.013" transform="translate(0 0.668)"/><rect class="c" width="20.553" height="0.013" transform="translate(0 0.655)"/><rect class="c" width="20.553" height="0.013" transform="translate(0 0.641)"/><rect class="c" width="20.553" height="0.013" transform="translate(0 0.628)"/><rect class="c" width="20.553" height="0.013" transform="translate(0 0.615)"/><rect class="c" width="20.553" height="0.013" transform="translate(0 0.602)"/><rect class="c" width="20.553" height="0.013" transform="translate(0 0.589)"/><rect class="c" width="20.553" height="0.013" transform="translate(0 0.576)"/><rect class="c" width="20.553" height="0.013" transform="translate(0 0.563)"/><rect class="c" width="20.553" height="0.013" transform="translate(0 0.55)"/><rect class="c" width="20.553" height="0.013" transform="translate(0 0.537)"/><rect class="c" width="20.553" height="0.013" transform="translate(0 0.524)"/><rect class="c" width="20.553" height="0.013" transform="translate(0 0.511)"/><rect class="c" width="20.553" height="0.013" transform="translate(0 0.497)"/><rect class="c" width="20.553" height="0.013" transform="translate(0 0.484)"/><rect class="c" width="20.553" height="0.013" transform="translate(0 0.471)"/><rect class="c" width="20.553" height="0.013" transform="translate(0 0.458)"/><rect class="c" width="20.553" height="0.013" transform="translate(0 0.445)"/><rect class="c" width="20.553" height="0.013" transform="translate(0 0.432)"/><rect class="c" width="20.553" height="0.013" transform="translate(0 0.419)"/><rect class="c" width="20.553" height="0.013" transform="translate(0 0.406)"/><rect class="c" width="20.553" height="0.013" transform="translate(0 0.393)"/><rect class="c" width="20.553" height="0.013" transform="translate(0 0.38)"/><rect class="c" width="20.553" height="0.013" transform="translate(0 0.367)"/><rect class="c" width="20.553" height="0.013" transform="translate(0 0.353)"/><rect class="c" width="20.553" height="0.013" transform="translate(0 0.34)"/><rect class="c" width="20.553" height="0.013" transform="translate(0 0.327)"/><rect class="c" width="20.553" height="0.013" transform="translate(0 0.314)"/><rect class="c" width="20.553" height="0.013" transform="translate(0 0.301)"/><rect class="c" width="20.553" height="0.013" transform="translate(0 0.288)"/><rect class="c" width="20.553" height="0.013" transform="translate(0 0.275)"/><rect class="c" width="20.553" height="0.013" transform="translate(0 0.262)"/><rect class="c" width="20.553" height="0.013" transform="translate(0 0.249)"/><rect class="c" width="20.553" height="0.013" transform="translate(0 0.236)"/><rect class="c" width="20.553" height="0.013" transform="translate(0 0.223)"/><rect class="c" width="20.553" height="0.013" transform="translate(0 0.209)"/><rect class="c" width="20.553" height="0.013" transform="translate(0 0.196)"/><rect class="c" width="20.553" height="0.013" transform="translate(0 0.183)"/><rect class="c" width="20.553" height="0.013" transform="translate(0 0.17)"/><rect class="c" width="20.553" height="0.013" transform="translate(0 0.157)"/><rect class="c" width="20.553" height="0.013" transform="translate(0 0.144)"/><rect class="c" width="20.553" height="0.013" transform="translate(0 0.131)"/><rect class="c" width="20.553" height="0.013" transform="translate(0 0.118)"/><rect class="c" width="20.553" height="0.013" transform="translate(0 0.105)"/><rect class="c" width="20.553" height="0.013" transform="translate(0 0.092)"/><rect class="c" width="20.553" height="0.013" transform="translate(0 0.079)"/><rect class="c" width="20.553" height="0.013" transform="translate(0 0.065)"/><rect class="c" width="20.553" height="0.013" transform="translate(0 0.052)"/><rect class="c" width="20.553" height="0.013" transform="translate(0 0.039)"/><rect class="c" width="20.553" height="0.013" transform="translate(0 0.026)"/><rect class="c" width="20.553" height="0.013" transform="translate(0 0.013)"/><rect class="c" width="20.553" height="0.013"/><path class="c" d="M580.4,269.142h0Z" transform="translate(-559.852 -269.142)"/></g></g></g><g transform="translate(492.648 2.389)"><path class="c" d="M525.913,27.877H495.147a2.5,2.5,0,0,1-2.5-2.5V4.888a2.5,2.5,0,0,1,2.5-2.5h30.765a2.5,2.5,0,0,1,2.5,2.5V25.377A2.5,2.5,0,0,1,525.913,27.877ZM495.147,4a.885.885,0,0,0-.884.884V25.377a.885.885,0,0,0,.884.884h30.765a.885.885,0,0,0,.884-.884V4.888A.885.885,0,0,0,525.913,4Z" transform="translate(-492.648 -2.389)"/></g></g></g><g transform="translate(272 151)"><rect class="a" width="34" height="24" rx="3" transform="translate(1176 456)"/><g transform="translate(682.489 453.236)"><g transform="translate(499.887 27.021)"><g transform="translate(5.304 0)"><rect class="c" width="4.729" height="1.616" transform="translate(0 4.261) rotate(-64.269)"/></g><g transform="translate(11.863 0.019)"><rect class="c" width="1.616" height="4.674" transform="translate(0 0.664) rotate(-24.277)"/></g><g transform="translate(0 4.1)"><rect class="c" width="20.553" height="1.597" rx="0.799"/><g class="o"><path class="c" d="M559.852,283.969h0Z" transform="translate(-559.852 -282.372)"/><rect class="c" width="20.553" height="0.013" transform="translate(0 1.584)"/><rect class="c" width="20.553" height="0.013" transform="translate(0 1.571)"/><rect class="c" width="20.553" height="0.013" transform="translate(0 1.558)"/><rect class="c" width="20.553" height="0.013" transform="translate(0 1.545)"/><rect class="c" width="20.553" height="0.013" transform="translate(0 1.532)"/><rect class="c" width="20.553" height="0.013" transform="translate(0 1.518)"/><rect class="c" width="20.553" height="0.013" transform="translate(0 1.505)"/><rect class="c" width="20.553" height="0.013" transform="translate(0 1.492)"/><rect class="c" width="20.553" height="0.013" transform="translate(0 1.479)"/><rect class="c" width="20.553" height="0.013" transform="translate(0 1.466)"/><rect class="c" width="20.553" height="0.013" transform="translate(0 1.453)"/><rect class="c" width="20.553" height="0.013" transform="translate(0 1.44)"/><rect class="c" width="20.553" height="0.013" transform="translate(0 1.427)"/><rect class="c" width="20.553" height="0.013" transform="translate(0 1.414)"/><rect class="c" width="20.553" height="0.013" transform="translate(0 1.401)"/><rect class="c" width="20.553" height="0.013" transform="translate(0 1.388)"/><rect class="c" width="20.553" height="0.013" transform="translate(0 1.374)"/><rect class="c" width="20.553" height="0.013" transform="translate(0 1.361)"/><rect class="c" width="20.553" height="0.013" transform="translate(0 1.348)"/><rect class="c" width="20.553" height="0.013" transform="translate(0 1.335)"/><rect class="c" width="20.553" height="0.013" transform="translate(0 1.322)"/><rect class="c" width="20.553" height="0.013" transform="translate(0 1.309)"/><rect class="c" width="20.553" height="0.013" transform="translate(0 1.296)"/><rect class="c" width="20.553" height="0.013" transform="translate(0 1.283)"/><rect class="c" width="20.553" height="0.013" transform="translate(0 1.27)"/><rect class="c" width="20.553" height="0.013" transform="translate(0 1.257)"/><rect class="c" width="20.553" height="0.013" transform="translate(0 1.244)"/><rect class="c" width="20.553" height="0.013" transform="translate(0 1.231)"/><rect class="c" width="20.553" height="0.013" transform="translate(0 1.217)"/><rect class="c" width="20.553" height="0.013" transform="translate(0 1.204)"/><rect class="c" width="20.553" height="0.013" transform="translate(0 1.191)"/><rect class="c" width="20.553" height="0.013" transform="translate(0 1.178)"/><rect class="c" width="20.553" height="0.013" transform="translate(0 1.165)"/><rect class="c" width="20.553" height="0.013" transform="translate(0 1.152)"/><rect class="c" width="20.553" height="0.013" transform="translate(0 1.139)"/><rect class="c" width="20.553" height="0.013" transform="translate(0 1.126)"/><rect class="c" width="20.553" height="0.013" transform="translate(0 1.113)"/><rect class="c" width="20.553" height="0.013" transform="translate(0 1.1)"/><rect class="c" width="20.553" height="0.013" transform="translate(0 1.087)"/><rect class="c" width="20.553" height="0.013" transform="translate(0 1.073)"/><rect class="c" width="20.553" height="0.013" transform="translate(0 1.06)"/><rect class="c" width="20.553" height="0.013" transform="translate(0 1.047)"/><rect class="c" width="20.553" height="0.013" transform="translate(0 1.034)"/><rect class="c" width="20.553" height="0.013" transform="translate(0 1.021)"/><rect class="c" width="20.553" height="0.013" transform="translate(0 1.008)"/><rect class="c" width="20.553" height="0.013" transform="translate(0 0.995)"/><rect class="c" width="20.553" height="0.013" transform="translate(0 0.982)"/><rect class="c" width="20.553" height="0.013" transform="translate(0 0.969)"/><rect class="c" width="20.553" height="0.013" transform="translate(0 0.956)"/><rect class="c" width="20.553" height="0.013" transform="translate(0 0.943)"/><rect class="c" width="20.553" height="0.013" transform="translate(0 0.929)"/><rect class="c" width="20.553" height="0.013" transform="translate(0 0.916)"/><rect class="c" width="20.553" height="0.013" transform="translate(0 0.903)"/><rect class="c" width="20.553" height="0.013" transform="translate(0 0.89)"/><rect class="c" width="20.553" height="0.013" transform="translate(0 0.877)"/><rect class="c" width="20.553" height="0.013" transform="translate(0 0.864)"/><rect class="c" width="20.553" height="0.013" transform="translate(0 0.851)"/><rect class="c" width="20.553" height="0.013" transform="translate(0 0.838)"/><rect class="c" width="20.553" height="0.013" transform="translate(0 0.825)"/><rect class="c" width="20.553" height="0.013" transform="translate(0 0.812)"/><rect class="c" width="20.553" height="0.013" transform="translate(0 0.799)"/><rect class="c" width="20.553" height="0.013" transform="translate(0 0.785)"/><rect class="c" width="20.553" height="0.013" transform="translate(0 0.772)"/><rect class="c" width="20.553" height="0.013" transform="translate(0 0.759)"/><rect class="c" width="20.553" height="0.013" transform="translate(0 0.746)"/><rect class="c" width="20.553" height="0.013" transform="translate(0 0.733)"/><rect class="c" width="20.553" height="0.013" transform="translate(0 0.72)"/><rect class="c" width="20.553" height="0.013" transform="translate(0 0.707)"/><rect class="c" width="20.553" height="0.013" transform="translate(0 0.694)"/><rect class="c" width="20.553" height="0.013" transform="translate(0 0.681)"/><rect class="c" width="20.553" height="0.013" transform="translate(0 0.668)"/><rect class="c" width="20.553" height="0.013" transform="translate(0 0.655)"/><rect class="c" width="20.553" height="0.013" transform="translate(0 0.641)"/><rect class="c" width="20.553" height="0.013" transform="translate(0 0.628)"/><rect class="c" width="20.553" height="0.013" transform="translate(0 0.615)"/><rect class="c" width="20.553" height="0.013" transform="translate(0 0.602)"/><rect class="c" width="20.553" height="0.013" transform="translate(0 0.589)"/><rect class="c" width="20.553" height="0.013" transform="translate(0 0.576)"/><rect class="c" width="20.553" height="0.013" transform="translate(0 0.563)"/><rect class="c" width="20.553" height="0.013" transform="translate(0 0.55)"/><rect class="c" width="20.553" height="0.013" transform="translate(0 0.537)"/><rect class="c" width="20.553" height="0.013" transform="translate(0 0.524)"/><rect class="c" width="20.553" height="0.013" transform="translate(0 0.511)"/><rect class="c" width="20.553" height="0.013" transform="translate(0 0.497)"/><rect class="c" width="20.553" height="0.013" transform="translate(0 0.484)"/><rect class="c" width="20.553" height="0.013" transform="translate(0 0.471)"/><rect class="c" width="20.553" height="0.013" transform="translate(0 0.458)"/><rect class="c" width="20.553" height="0.013" transform="translate(0 0.445)"/><rect class="c" width="20.553" height="0.013" transform="translate(0 0.432)"/><rect class="c" width="20.553" height="0.013" transform="translate(0 0.419)"/><rect class="c" width="20.553" height="0.013" transform="translate(0 0.406)"/><rect class="c" width="20.553" height="0.013" transform="translate(0 0.393)"/><rect class="c" width="20.553" height="0.013" transform="translate(0 0.38)"/><rect class="c" width="20.553" height="0.013" transform="translate(0 0.367)"/><rect class="c" width="20.553" height="0.013" transform="translate(0 0.353)"/><rect class="c" width="20.553" height="0.013" transform="translate(0 0.34)"/><rect class="c" width="20.553" height="0.013" transform="translate(0 0.327)"/><rect class="c" width="20.553" height="0.013" transform="translate(0 0.314)"/><rect class="c" width="20.553" height="0.013" transform="translate(0 0.301)"/><rect class="c" width="20.553" height="0.013" transform="translate(0 0.288)"/><rect class="c" width="20.553" height="0.013" transform="translate(0 0.275)"/><rect class="c" width="20.553" height="0.013" transform="translate(0 0.262)"/><rect class="c" width="20.553" height="0.013" transform="translate(0 0.249)"/><rect class="c" width="20.553" height="0.013" transform="translate(0 0.236)"/><rect class="c" width="20.553" height="0.013" transform="translate(0 0.223)"/><rect class="c" width="20.553" height="0.013" transform="translate(0 0.209)"/><rect class="c" width="20.553" height="0.013" transform="translate(0 0.196)"/><rect class="c" width="20.553" height="0.013" transform="translate(0 0.183)"/><rect class="c" width="20.553" height="0.013" transform="translate(0 0.17)"/><rect class="c" width="20.553" height="0.013" transform="translate(0 0.157)"/><rect class="c" width="20.553" height="0.013" transform="translate(0 0.144)"/><rect class="c" width="20.553" height="0.013" transform="translate(0 0.131)"/><rect class="c" width="20.553" height="0.013" transform="translate(0 0.118)"/><rect class="c" width="20.553" height="0.013" transform="translate(0 0.105)"/><rect class="c" width="20.553" height="0.013" transform="translate(0 0.092)"/><rect class="c" width="20.553" height="0.013" transform="translate(0 0.079)"/><rect class="c" width="20.553" height="0.013" transform="translate(0 0.065)"/><rect class="c" width="20.553" height="0.013" transform="translate(0 0.052)"/><rect class="c" width="20.553" height="0.013" transform="translate(0 0.039)"/><rect class="c" width="20.553" height="0.013" transform="translate(0 0.026)"/><rect class="c" width="20.553" height="0.013" transform="translate(0 0.013)"/><rect class="c" width="20.553" height="0.013"/><path class="c" d="M580.4,269.142h0Z" transform="translate(-559.852 -269.142)"/></g></g></g><g transform="translate(492.648 2.389)"><path class="c" d="M525.913,27.877H495.147a2.5,2.5,0,0,1-2.5-2.5V4.888a2.5,2.5,0,0,1,2.5-2.5h30.765a2.5,2.5,0,0,1,2.5,2.5V25.377A2.5,2.5,0,0,1,525.913,27.877ZM495.147,4a.885.885,0,0,0-.884.884V25.377a.885.885,0,0,0,.884.884h30.765a.885.885,0,0,0,.884-.884V4.888A.885.885,0,0,0,525.913,4Z" transform="translate(-492.648 -2.389)"/></g></g></g><g transform="translate(533.119 -285.646)"><rect class="a" width="33" height="24" transform="translate(773.708 664.646)"/><path class="c" d="M35.873,223.945a2.767,2.767,0,0,1-1.951.809H4.584A2.756,2.756,0,0,1,1.99,222.92h13.6a.917.917,0,0,0,.917.917H22a.917.917,0,0,0,.917-.917h13.6a2.788,2.788,0,0,1-.643,1.025ZM22,221.087a.917.917,0,0,0-.917.917H17.419a.917.917,0,0,0-.917-.917H3.667V202.75a.917.917,0,0,1,.917-.917H33.922a.917.917,0,0,1,.917.917v18.336ZM16.5,200H4.584a2.75,2.75,0,0,0-2.75,2.75v18.336H.917A.917.917,0,0,0,0,222a4.59,4.59,0,0,0,4.584,4.584H33.922a4.579,4.579,0,0,0,4.584-4.575V222a.917.917,0,0,0-.917-.917h-.917V202.75a2.75,2.75,0,0,0-2.75-2.75H16.5Z" transform="translate(770.881 463.79)"/></g><g transform="translate(536.119 31.354)"><rect class="a" width="33" height="24" transform="translate(773.708 664.646)"/><path class="c" d="M35.873,223.945a2.767,2.767,0,0,1-1.951.809H4.584A2.756,2.756,0,0,1,1.99,222.92h13.6a.917.917,0,0,0,.917.917H22a.917.917,0,0,0,.917-.917h13.6a2.788,2.788,0,0,1-.643,1.025ZM22,221.087a.917.917,0,0,0-.917.917H17.419a.917.917,0,0,0-.917-.917H3.667V202.75a.917.917,0,0,1,.917-.917H33.922a.917.917,0,0,1,.917.917v18.336ZM16.5,200H4.584a2.75,2.75,0,0,0-2.75,2.75v18.336H.917A.917.917,0,0,0,0,222a4.59,4.59,0,0,0,4.584,4.584H33.922a4.579,4.579,0,0,0,4.584-4.575V222a.917.917,0,0,0-.917-.917h-.917V202.75a2.75,2.75,0,0,0-2.75-2.75H16.5Z" transform="translate(770.881 463.79)"/></g><g transform="translate(214 49.625)"><g class="p" transform="translate(1251 394.375)"><rect class="r" width="18" height="30" rx="3"/><rect class="b" x="0.875" y="0.875" width="16.25" height="28.25" rx="2.125"/></g><g class="q" transform="translate(1258.892 394.349)"><path class="r" d="M 1.517848134040833 2.910697937011719 C 0.9566081166267395 2.910697937011719 0.4999981224536896 2.454087972640991 0.4999981224536896 1.892848014831543 C 0.4999981224536896 1.331608057022095 0.9566081166267395 0.8749980330467224 1.517848134040833 0.8749980330467224 C 2.07908821105957 0.8749980330467224 2.535698175430298 1.331608057022095 2.535698175430298 1.892848014831543 C 2.535698175430298 2.454087972640991 2.07908821105957 2.910697937011719 1.517848134040833 2.910697937011719 Z"/><path class="s" d="M 1.517848134040833 1.374998092651367 C 1.232308149337769 1.374998092651367 0.9999980926513672 1.607307910919189 0.9999980926513672 1.892848014831543 C 0.9999980926513672 2.178388118743896 1.232308149337769 2.410697937011719 1.517848134040833 2.410697937011719 C 1.803388118743896 2.410697937011719 2.035698175430298 2.178388118743896 2.035698175430298 1.892848014831543 C 2.035698175430298 1.607307910919189 1.803388118743896 1.374998092651367 1.517848134040833 1.374998092651367 M 1.517848134040833 0.3749980926513672 C 2.356128215789795 0.3749980926513672 3.035698175430298 1.05456805229187 3.035698175430298 1.892848014831543 C 3.035698175430298 2.731127977371216 2.356128215789795 3.410697937011719 1.517848134040833 3.410697937011719 C 0.6795680522918701 3.410697937011719 -1.9073486328125e-06 2.731127977371216 -1.9073486328125e-06 1.892848014831543 C -1.9073486328125e-06 1.05456805229187 0.6795680522918701 0.3749980926513672 1.517848134040833 0.3749980926513672 Z"/></g></g><g transform="translate(-79 216.625)"><g class="p" transform="translate(1251 394.375)"><rect class="r" width="18" height="30" rx="3"/><rect class="b" x="0.875" y="0.875" width="16.25" height="28.25" rx="2.125"/></g><g class="q" transform="translate(1258.892 394.349)"><path class="r" d="M 1.517848134040833 2.910697937011719 C 0.9566081166267395 2.910697937011719 0.4999981224536896 2.454087972640991 0.4999981224536896 1.892848014831543 C 0.4999981224536896 1.331608057022095 0.9566081166267395 0.8749980330467224 1.517848134040833 0.8749980330467224 C 2.07908821105957 0.8749980330467224 2.535698175430298 1.331608057022095 2.535698175430298 1.892848014831543 C 2.535698175430298 2.454087972640991 2.07908821105957 2.910697937011719 1.517848134040833 2.910697937011719 Z"/><path class="s" d="M 1.517848134040833 1.374998092651367 C 1.232308149337769 1.374998092651367 0.9999980926513672 1.607307910919189 0.9999980926513672 1.892848014831543 C 0.9999980926513672 2.178388118743896 1.232308149337769 2.410697937011719 1.517848134040833 2.410697937011719 C 1.803388118743896 2.410697937011719 2.035698175430298 2.178388118743896 2.035698175430298 1.892848014831543 C 2.035698175430298 1.607307910919189 1.803388118743896 1.374998092651367 1.517848134040833 1.374998092651367 M 1.517848134040833 0.3749980926513672 C 2.356128215789795 0.3749980926513672 3.035698175430298 1.05456805229187 3.035698175430298 1.892848014831543 C 3.035698175430298 2.731127977371216 2.356128215789795 3.410697937011719 1.517848134040833 3.410697937011719 C 0.6795680522918701 3.410697937011719 -1.9073486328125e-06 2.731127977371216 -1.9073486328125e-06 1.892848014831543 C -1.9073486328125e-06 1.05456805229187 0.6795680522918701 0.3749980926513672 1.517848134040833 0.3749980926513672 Z"/></g></g></g></svg>