<?xml version="1.0" encoding="UTF-8"?>
<svg width="658px" height="658px" viewBox="0 0 658 658" version="1.1" xmlns="http://www.w3.org/2000/svg" xmlns:xlink="http://www.w3.org/1999/xlink">
    <!-- Generator: Sketch 52.5 (67469) - http://www.bohemiancoding.com/sketch -->
    <title>Group</title>
    <desc>Created with Sketch.</desc>
    <defs>
        <radialGradient cx="39.9647847%" cy="33.5739657%" fx="39.9647847%" fy="33.5739657%" r="59.9048691%" gradientTransform="translate(0.399648,0.335740),scale(0.937500,1.000000),rotate(36.618222),translate(-0.399648,-0.335740)" id="radialGradient-1">
            <stop stop-color="#F9EDD9" offset="0%"></stop>
            <stop stop-color="#FED36D" offset="100%"></stop>
        </radialGradient>
    </defs>
    <g id="Page-1" stroke="none" stroke-width="1" fill="none" fill-rule="evenodd">
        <g id="Style-1---Cover-2-Copy-4" transform="translate(-733.000000, -183.000000)">
            <g id="Group" transform="translate(688.000000, 181.000000)">
                <path d="M621.570927,279.020946 C623.727172,242.6471 615.594986,207.549528 577.342272,172.51735 C519.235161,119.30614 427.12985,95.6476936 350.39475,94.355634 C271.623816,93.0320057 189.682065,127.22987 136.609908,186.495496 C107.124881,219.41934 86.603766,263.556819 85.9035997,308.413611 C84.6504359,389.19778 169.847737,439.017615 209.826339,499.834614 C245.175816,553.614059 288.775659,581.888293 353.075004,593.185358 C460.173684,612.004782 619.809362,568.081519 604.566252,430.007021 C598.574702,375.745026 618.765802,326.30627 621.570927,279.020946" id="Fill-1-Copy" fill="#E8DCC5" opacity="0.303524926" transform="translate(353.889925, 345.818575) rotate(27.000000) translate(-353.889925, -345.818575) "></path>
                <path d="M569.632822,292.035196 C571.370691,262.748103 564.816392,234.488627 533.985846,206.281803 C487.15325,163.437787 412.919119,144.38874 351.072918,143.348414 C287.585897,142.282669 221.543291,169.817729 178.768717,217.536573 C155.004666,244.045831 138.46526,279.58396 137.900946,315.701258 C136.890934,380.746165 205.557415,420.859551 237.778975,469.827513 C266.269598,513.129054 301.40977,535.89459 353.233123,544.990637 C439.551462,560.143453 568.213054,524.777804 555.927562,413.604501 C551.098551,369.914425 567.371975,330.107872 569.632822,292.035196" id="Fill-1-Copy-2" fill="url(#radialGradient-1)" transform="translate(353.889925, 345.818575) rotate(27.000000) translate(-353.889925, -345.818575) "></path>
                <circle id="Oval-Copy-4" stroke="#B1A690" opacity="0.3" fill-rule="nonzero" cx="374" cy="331" r="328"></circle>
            </g>
        </g>
    </g>
</svg>