<?xml version="1.0" encoding="UTF-8"?>
<svg width="59px" height="20px" viewBox="0 0 59 20" version="1.1" xmlns="http://www.w3.org/2000/svg" xmlns:xlink="http://www.w3.org/1999/xlink">
    <!-- Generator: Sketch 52.5 (67469) - http://www.bohemiancoding.com/sketch -->
    <title>Google_2015_logo</title>
    <desc>Created with Sketch.</desc>
    <g id="Features" stroke="none" stroke-width="1" fill="none" fill-rule="evenodd">
        <g id="Desktop-HD" transform="translate(-263.000000, -235.000000)" fill="#B6C6D0">
            <g id="Google_2015_logo" transform="translate(263.000000, 235.000000)">
                <path d="M25.2631579,10 C25.2631579,12.727208 23.136369,14.7368421 20.5263158,14.7368421 C17.9162626,14.7368421 15.7894737,12.727208 15.7894737,10 C15.7894737,7.25357126 17.9162626,5.26315789 20.5263158,5.26315789 C23.136369,5.26315789 25.2631579,7.25357126 25.2631579,10 Z M23.189592,10 C23.189592,8.29576195 21.9569486,7.12970433 20.5263158,7.12970433 C19.095683,7.12970433 17.8630396,8.29576195 17.8630396,10 C17.8630396,11.687153 19.095683,12.8702957 20.5263158,12.8702957 C21.9569486,12.8702957 23.189592,11.6850173 23.189592,10 Z" id="Shape" fill-rule="nonzero"></path>
                <path d="M35.7894737,10 C35.7894737,12.727208 33.6626848,14.7368421 31.0526316,14.7368421 C28.4425784,14.7368421 26.3157895,12.727208 26.3157895,10 C26.3157895,7.2557069 28.4425784,5.26315789 31.0526316,5.26315789 C33.6626848,5.26315789 35.7894737,7.25357126 35.7894737,10 Z M33.7159077,10 C33.7159077,8.29576195 32.4832643,7.12970433 31.0526316,7.12970433 C29.6219988,7.12970433 28.3893554,8.29576195 28.3893554,10 C28.3893554,11.687153 29.6219988,12.8702957 31.0526316,12.8702957 C32.4832643,12.8702957 33.7159077,11.6850173 33.7159077,10 Z" id="Shape" fill-rule="nonzero"></path>
                <path d="M46.3157895,5.57060564 L46.3157895,14.7068512 C46.3157895,18.4650557 44.1634896,20 41.6190523,20 C39.2238946,20 37.7823439,18.3503364 37.2386988,17.0012373 L39.1280883,16.191319 C39.4645244,17.0195924 40.2889043,17.9970009 41.6168243,17.9970009 C43.2455315,17.9970009 44.2548398,16.9622328 44.2548398,15.0142989 L44.2548398,14.2823898 L44.179086,14.2823898 C43.6933703,14.8995796 42.7575878,15.4387604 41.5767193,15.4387604 C39.1058078,15.4387604 36.8421053,13.2223834 36.8421053,10.3704614 C36.8421053,7.49788998 39.1058078,5.26315789 41.5767193,5.26315789 C42.7553597,5.26315789 43.6911422,5.80233864 44.179086,6.40117341 L44.2548398,6.40117341 L44.2548398,5.57290002 L46.3157895,5.57290002 L46.3157895,5.57060564 Z M44.4085755,10.3704614 C44.4085755,8.57854585 43.2477596,7.26845137 41.77056,7.26845137 C40.2733079,7.26845137 39.0189137,8.57854585 39.0189137,10.3704614 C39.0189137,12.1440219 40.2733079,13.4357613 41.77056,13.4357613 C43.2477596,13.4357613 44.4085755,12.1440219 44.4085755,10.3704614 Z" id="Shape" fill-rule="nonzero"></path>
                <polygon id="Path" points="49.4736842 0 49.4736842 14.7368421 47.3684211 14.7368421 47.3684211 0"></polygon>
                <path d="M57.3047383,11.5611504 L58.8609142,12.6375113 C58.3586564,13.4084761 57.1482973,14.7368421 55.0569286,14.7368421 C52.463302,14.7368421 50.5263158,12.656732 50.5263158,10 C50.5263158,7.18309525 52.4797695,5.26315789 54.8325593,5.26315789 C57.2018166,5.26315789 58.3607148,7.21940107 58.7394666,8.27654122 L58.9473684,8.81472166 L52.8441122,11.4372835 C53.3113767,12.3876418 54.0380038,12.8724313 55.0569286,12.8724313 C56.0779117,12.8724313 56.7860129,12.351336 57.3047383,11.5611504 Z M52.5147628,9.85691234 L56.5945786,8.09928338 C56.3702093,7.50771202 55.695043,7.09553415 54.9004876,7.09553415 C53.8815629,7.09553415 52.463302,8.02880737 52.5147628,9.85691234 Z" id="Shape" fill-rule="nonzero"></path>
                <path d="M7.67036052,9.38474234 L7.67036052,7.22767284 L14.6336337,7.22767284 C14.7017073,7.60361269 14.7368421,8.04832202 14.7368421,8.52970842 C14.7368421,10.1480836 14.3130289,12.1492756 12.9471645,13.5750963 C11.6186308,15.0192555 9.92118203,15.7894737 7.67255645,15.7894737 C3.50469379,15.7894737 0,12.2455529 0,7.89473684 C0,3.54392078 3.50469379,0 7.67255645,0 C9.97827604,0 11.6208268,0.944434256 12.8549357,2.17540803 L11.3968426,3.69750596 C10.5118854,2.83101045 9.31291125,2.1570695 7.67036052,2.1570695 C4.62681066,2.1570695 2.24642966,4.71758665 2.24642966,7.89473684 C2.24642966,11.071887 4.62681066,13.6324042 7.67036052,13.6324042 C9.64449568,13.6324042 10.7688085,12.804878 11.4890714,12.0529983 C12.073187,11.4432423 12.4574736,10.5721621 12.6089923,9.38245003 L7.67036052,9.38474234 Z" id="Path"></path>
            </g>
        </g>
    </g>
</svg>