<?xml version="1.0" encoding="UTF-8"?>
<svg width="75px" height="16px" viewBox="0 0 75 16" version="1.1" xmlns="http://www.w3.org/2000/svg" xmlns:xlink="http://www.w3.org/1999/xlink">
    <!-- Generator: Sketch 52.5 (67469) - http://www.bohemiancoding.com/sketch -->
    <title>Microsoft_logo_(2012)</title>
    <desc>Created with Sketch.</desc>
    <g id="Features" stroke="none" stroke-width="1" fill="none" fill-rule="evenodd">
        <g id="Desktop-HD" transform="translate(-400.000000, -237.000000)" fill="#B6C6D0">
            <g id="Microsoft_logo_(2012)" transform="translate(400.000000, 237.000000)">
                <path d="M26.4434109,9.21550388 L25.9968992,10.4806202 L25.9596899,10.4806202 C25.8852713,10.1953488 25.7488372,9.76124031 25.5255814,9.24031008 L23.1317829,3.2248062 L20.7875969,3.2248062 L20.7875969,12.8124031 L22.3379845,12.8124031 L22.3379845,6.89612403 C22.3379845,6.52403101 22.3379845,6.10232558 22.3255814,5.58139535 C22.3131783,5.32093023 22.2883721,5.12248062 22.275969,4.97364341 L22.3131783,4.97364341 C22.3875969,5.34573643 22.4744186,5.61860465 22.5364341,5.79224806 L25.4139535,12.7875969 L26.5054264,12.7875969 L29.3581395,5.73023256 C29.420155,5.56899225 29.4821705,5.24651163 29.544186,4.97364341 L29.5813953,4.97364341 C29.544186,5.68062016 29.5193798,6.31317829 29.5069767,6.69767442 L29.5069767,12.7751938 L31.1565891,12.7751938 L31.1565891,3.2 L28.8992248,3.2 L26.4434109,9.21550388 Z M32.7193798,5.90387597 L34.3317829,5.90387597 L34.3317829,12.7751938 L32.7193798,12.7751938 L32.7193798,5.90387597 Z M33.5379845,3.00155039 C33.2651163,3.00155039 33.0418605,3.10077519 32.855814,3.2744186 C32.6697674,3.44806202 32.5705426,3.67131783 32.5705426,3.94418605 C32.5705426,4.20465116 32.6697674,4.42790698 32.855814,4.60155039 C33.0418605,4.7751938 33.2651163,4.8620155 33.5379845,4.8620155 C33.8108527,4.8620155 34.0465116,4.7627907 34.220155,4.60155039 C34.4062016,4.42790698 34.5054264,4.20465116 34.5054264,3.94418605 C34.5054264,3.68372093 34.4062016,3.46046512 34.220155,3.2744186 C34.0589147,3.10077519 33.8232558,3.00155039 33.5379845,3.00155039 Z M40.0496124,5.84186047 C39.751938,5.77984496 39.4418605,5.74263566 39.144186,5.74263566 C38.4124031,5.74263566 37.7426357,5.90387597 37.1844961,6.22635659 C36.6263566,6.54883721 36.179845,6.99534884 35.8945736,7.55348837 C35.5968992,8.12403101 35.448062,8.78139535 35.448062,9.5379845 C35.448062,10.1953488 35.5968992,10.7782946 35.8821705,11.3116279 C36.1674419,11.8325581 36.5643411,12.2542636 37.0976744,12.5395349 C37.6062016,12.8248062 38.2015504,12.9736434 38.8713178,12.9736434 C39.6403101,12.9736434 40.2976744,12.8124031 40.8186047,12.5147287 L40.8310078,12.5023256 L40.8310078,11.0139535 L40.7689922,11.0635659 C40.5333333,11.2372093 40.2604651,11.3860465 39.9875969,11.4728682 C39.7023256,11.572093 39.4418605,11.6217054 39.2186047,11.6217054 C38.5736434,11.6217054 38.0651163,11.4356589 37.7054264,11.0263566 C37.3333333,10.6294574 37.1472868,10.0837209 37.1472868,9.40155039 C37.1472868,8.69457364 37.3333333,8.13643411 37.7178295,7.72713178 C38.1023256,7.31782946 38.6108527,7.10697674 39.2310078,7.10697674 C39.751938,7.10697674 40.2852713,7.28062016 40.7689922,7.62790698 L40.8310078,7.67751938 L40.8310078,6.10232558 L40.8186047,6.08992248 C40.6077519,6.00310078 40.372093,5.90387597 40.0496124,5.84186047 Z M45.3705426,5.79224806 C44.9736434,5.79224806 44.6015504,5.91627907 44.2790698,6.17674419 C44.0062016,6.4 43.820155,6.72248062 43.6589147,7.10697674 L43.6465116,7.10697674 L43.6465116,5.90387597 L42.0341085,5.90387597 L42.0341085,12.7751938 L43.6465116,12.7751938 L43.6465116,9.26511628 C43.6465116,8.66976744 43.7705426,8.17364341 44.0434109,7.81395349 C44.3162791,7.44186047 44.6635659,7.25581395 45.0852713,7.25581395 C45.2341085,7.25581395 45.3829457,7.29302326 45.5689922,7.31782946 C45.7426357,7.36744186 45.8666667,7.41705426 45.9534884,7.47906977 L46.0155039,7.52868217 L46.0155039,5.91627907 L45.9782946,5.90387597 C45.8666667,5.82945736 45.6434109,5.79224806 45.3705426,5.79224806 Z M49.7612403,5.75503876 C48.6325581,5.75503876 47.7271318,6.08992248 47.0945736,6.74728682 C46.4496124,7.40465116 46.1395349,8.31007752 46.1395349,9.45116279 C46.1395349,10.5178295 46.4620155,11.3860465 47.0821705,12.0186047 C47.7023256,12.6387597 48.5457364,12.9612403 49.6,12.9612403 C50.703876,12.9612403 51.5844961,12.6263566 52.2170543,11.9565891 C52.8620155,11.2868217 53.172093,10.3937984 53.172093,9.28992248 C53.172093,8.19844961 52.8744186,7.33023256 52.2666667,6.69767442 C51.6837209,6.06511628 50.827907,5.75503876 49.7612403,5.75503876 Z M51.0511628,11.0387597 C50.7534884,11.4232558 50.2821705,11.6093023 49.6992248,11.6093023 C49.1162791,11.6093023 48.6449612,11.4232558 48.3100775,11.0139535 C47.9751938,10.6294574 47.8139535,10.0713178 47.8139535,9.36434109 C47.8139535,8.63255814 47.9875969,8.0744186 48.3100775,7.67751938 C48.6449612,7.28062016 49.103876,7.08217054 49.6868217,7.08217054 C50.2573643,7.08217054 50.703876,7.26821705 51.0263566,7.65271318 C51.3488372,8.0372093 51.5224806,8.59534884 51.5224806,9.32713178 C51.4976744,10.0713178 51.3612403,10.6542636 51.0511628,11.0387597 Z M56.7689922,8.75658915 C56.2604651,8.54573643 55.9379845,8.38449612 55.7891473,8.24806202 C55.6651163,8.12403101 55.6031008,7.9503876 55.6031008,7.72713178 C55.6031008,7.54108527 55.6775194,7.35503876 55.8635659,7.23100775 C56.0496124,7.10697674 56.2604651,7.04496124 56.5705426,7.04496124 C56.8434109,7.04496124 57.1286822,7.09457364 57.4015504,7.16899225 C57.6744186,7.24341085 57.9224806,7.35503876 58.1209302,7.50387597 L58.1829457,7.55348837 L58.1829457,6.04031008 L58.1457364,6.02790698 C57.9596899,5.95348837 57.7116279,5.87906977 57.4139535,5.81705426 C57.1162791,5.76744186 56.8434109,5.74263566 56.620155,5.74263566 C55.8511628,5.74263566 55.2186047,5.92868217 54.7224806,6.3379845 C54.2263566,6.72248062 53.9906977,7.24341085 53.9906977,7.85116279 C53.9906977,8.17364341 54.0403101,8.45891473 54.151938,8.69457364 C54.2635659,8.93023256 54.4248062,9.15348837 54.648062,9.33953488 C54.8713178,9.51317829 55.1937984,9.71162791 55.6403101,9.89767442 C56.0124031,10.0589147 56.2976744,10.1829457 56.4713178,10.2821705 C56.6449612,10.3813953 56.7565891,10.4930233 56.8434109,10.579845 C56.9054264,10.6790698 56.9426357,10.8031008 56.9426357,10.9643411 C56.9426357,11.4232558 56.5953488,11.6465116 55.8883721,11.6465116 C55.6155039,11.6465116 55.3302326,11.5968992 54.9953488,11.4852713 C54.6604651,11.3736434 54.3503876,11.2124031 54.0899225,11.0263566 L54.027907,10.9767442 L54.027907,12.551938 L54.0651163,12.5643411 C54.3007752,12.675969 54.5860465,12.7503876 54.9333333,12.8372093 C55.2806202,12.8992248 55.5906977,12.9488372 55.8635659,12.9488372 C56.6945736,12.9488372 57.3767442,12.7627907 57.8604651,12.3534884 C58.3565891,11.9565891 58.6170543,11.448062 58.6170543,10.7906977 C58.6170543,10.3317829 58.4930233,9.92248062 58.220155,9.6124031 C57.8604651,9.31472868 57.4139535,9.00465116 56.7689922,8.75658915 Z M62.8713178,5.75503876 C61.7426357,5.75503876 60.8372093,6.08992248 60.2046512,6.74728682 C59.572093,7.40465116 59.2496124,8.31007752 59.2496124,9.45116279 C59.2496124,10.5178295 59.572093,11.3860465 60.1922481,12.0186047 C60.8124031,12.6387597 61.655814,12.9612403 62.7100775,12.9612403 C63.8139535,12.9612403 64.6945736,12.6263566 65.3271318,11.9565891 C65.972093,11.2868217 66.2821705,10.3937984 66.2821705,9.28992248 C66.2821705,8.19844961 65.9844961,7.33023256 65.3767442,6.69767442 C64.7937984,6.06511628 63.9379845,5.75503876 62.8713178,5.75503876 Z M64.1488372,11.0387597 C63.8511628,11.4232558 63.379845,11.6093023 62.7968992,11.6093023 C62.2015504,11.6093023 61.7426357,11.4232558 61.4077519,11.0139535 C61.0728682,10.6294574 60.9116279,10.0713178 60.9116279,9.36434109 C60.9116279,8.63255814 61.0852713,8.0744186 61.4077519,7.67751938 C61.7426357,7.28062016 62.2015504,7.08217054 62.7844961,7.08217054 C63.3426357,7.08217054 63.8015504,7.26821705 64.124031,7.65271318 C64.4465116,8.0372093 64.620155,8.59534884 64.620155,9.32713178 C64.620155,10.0713178 64.4589147,10.6542636 64.1488372,11.0387597 Z M74.9023256,7.23100775 L74.9023256,5.90387597 L73.2775194,5.90387597 L73.2775194,3.86976744 L73.227907,3.88217054 L71.6899225,4.34108527 L71.6527132,4.35348837 L71.6527132,5.90387597 L69.2217054,5.90387597 L69.2217054,5.03565891 C69.2217054,4.63875969 69.3209302,4.32868217 69.4945736,4.13023256 C69.6682171,3.93178295 69.9286822,3.83255814 70.2511628,3.83255814 C70.4744186,3.83255814 70.7100775,3.88217054 70.9705426,3.99379845 L71.0325581,4.03100775 L71.0325581,2.62945736 L70.9953488,2.61705426 C70.772093,2.54263566 70.4744186,2.49302326 70.0899225,2.49302326 C69.6062016,2.49302326 69.1844961,2.60465116 68.8,2.79069767 C68.4155039,3.00155039 68.1302326,3.28682171 67.9193798,3.67131783 C67.7085271,4.04341085 67.5968992,4.46511628 67.5968992,4.94883721 L67.5968992,5.90387597 L66.4682171,5.90387597 L66.4682171,7.21860465 L67.5968992,7.21860465 L67.5968992,12.7751938 L69.2217054,12.7751938 L69.2217054,7.23100775 L71.6527132,7.23100775 L71.6527132,10.7658915 C71.6527132,12.2170543 72.3348837,12.9488372 73.6992248,12.9488372 C73.9224806,12.9488372 74.1581395,12.9116279 74.3813953,12.8744186 C74.6170543,12.8248062 74.7906977,12.7627907 74.8899225,12.7131783 L74.9023256,12.7007752 L74.9023256,11.3736434 L74.8403101,11.4232558 C74.7410853,11.4852713 74.6542636,11.5348837 74.5054264,11.572093 C74.3813953,11.6093023 74.2697674,11.6217054 74.1829457,11.6217054 C73.8604651,11.6217054 73.6372093,11.5472868 73.475969,11.3612403 C73.3271318,11.1875969 73.2527132,10.9023256 73.2527132,10.4806202 L73.2527132,7.23100775 L74.9023256,7.23100775 Z" id="Shape" fill-rule="nonzero"></path>
                <g id="Group">
                    <polygon id="Path" points="-2.30926389e-14 -2.26485497e-14 7.60310078 -2.26485497e-14 7.60310078 7.60310078 -2.30926389e-14 7.60310078"></polygon>
                    <polygon id="Path" points="8.39689922 -2.26485497e-14 16 -2.26485497e-14 16 7.60310078 8.39689922 7.60310078"></polygon>
                    <polygon id="Path" points="-2.30926389e-14 8.39689922 7.60310078 8.39689922 7.60310078 16 -2.30926389e-14 16"></polygon>
                    <polygon id="Path" points="8.39689922 8.39689922 16 8.39689922 16 16 8.39689922 16"></polygon>
                </g>
            </g>
        </g>
    </g>
</svg>