<?xml version="1.0" encoding="UTF-8"?>
<svg width="60px" height="16px" viewBox="0 0 60 16" version="1.1" xmlns="http://www.w3.org/2000/svg" xmlns:xlink="http://www.w3.org/1999/xlink">
    <!-- Generator: Sketch 52.5 (67469) - http://www.bohemiancoding.com/sketch -->
    <title>Netflix_2015_logo (1)</title>
    <desc>Created with Sketch.</desc>
    <g id="Features" stroke="none" stroke-width="1" fill="none" fill-rule="evenodd">
        <g id="Desktop-HD" transform="translate(-331.000000, -237.000000)" fill="#B6C6D0" fill-rule="nonzero">
            <g id="Netflix_2015_logo-(1)" transform="translate(331.000000, 237.000000)">
                <path d="M8.13302527,14.9547437 C7.24326354,15.1109892 6.33784838,15.1578339 5.40124188,15.2825993 L2.54446209,6.9154657 L2.54446209,15.641704 C1.65470036,15.7353357 0.842974729,15.8602166 0,15.9850975 L0,0 L2.37285199,0 L5.61975451,9.06980505 L5.61975451,0 L8.13302527,0 L8.13302527,14.9547437 Z M13.0503394,5.85392058 C14.0182527,5.85392058 15.5012274,5.80707581 16.3909892,5.80707581 L16.3909892,8.30469314 C15.2825993,8.30469314 13.9870036,8.30469314 13.0503394,8.35153791 L13.0503394,12.0668881 C14.5177762,11.9732563 15.9851552,11.8482599 17.4680722,11.8014152 L17.4680722,14.2052852 L10.5526065,14.751769 L10.5526065,2.84217094e-14 L17.4680722,2.84217094e-14 L17.4680722,2.49767509 L13.0503394,2.49767509 L13.0503394,5.85392058 Z M26.7562744,2.49773285 L24.1649675,2.49773285 L24.1649675,13.9870036 C23.3219928,13.9870036 22.4790181,13.9870036 21.6674079,14.0181372 L21.6674079,2.49773285 L19.0761011,2.49773285 L19.0761011,-3.55271368e-14 L26.7563899,-3.55271368e-14 L26.7562744,2.49773285 Z M30.8149603,5.68225271 L34.233704,5.68225271 L34.233704,8.17987004 L30.8149603,8.17987004 L30.8149603,13.8465271 L28.3639567,13.8465271 L28.3639567,2.84217094e-14 L35.3420361,2.84217094e-14 L35.3420361,2.49767509 L30.8149603,2.49767509 L30.8149603,5.68225271 Z M39.400722,11.6609964 C40.8213141,11.69213 42.2573863,11.8015884 43.646787,11.879509 L43.646787,14.3459928 C41.4145271,14.2054007 39.1822094,14.0650975 36.9031047,14.0181372 L36.9031047,0 L39.400722,0 L39.400722,11.6609964 Z M45.7541661,14.5177184 C46.550296,14.5646209 47.3932708,14.6114657 48.2049964,14.7049819 L48.2049964,-2.84217094e-14 L45.7541661,-2.84217094e-14 L45.7541661,14.5177184 Z M59.1480144,0 L55.9790325,7.60231047 L59.1480144,15.9850975 C58.2112924,15.8602166 57.2746859,15.688491 56.3380217,15.532361 L54.5429025,10.911769 L52.7166498,15.1578339 C51.8110614,15.0015884 50.9368953,14.9547437 50.0316534,14.8298628 L53.2473646,7.50856318 L50.3437401,1.64168719e-15 L53.0286209,1.64168719e-15 L54.6677256,4.19922022 L56.4161733,1.64168719e-15 L59.1480144,0 Z" id="Shape"></path>
            </g>
        </g>
    </g>
</svg>