<?xml version="1.0" encoding="UTF-8"?>
<svg width="104px" height="12px" viewBox="0 0 104 12" version="1.1" xmlns="http://www.w3.org/2000/svg" xmlns:xlink="http://www.w3.org/1999/xlink">
    <!-- Generator: Sketch 52.5 (67469) - http://www.bohemiancoding.com/sketch -->
    <title>The_New_Yorker</title>
    <desc>Created with Sketch.</desc>
    <g id="Features" stroke="none" stroke-width="1" fill="none" fill-rule="evenodd">
        <g id="Desktop-HD" transform="translate(-493.000000, -239.000000)" fill="#B6C6D0">
            <g id="The_New_Yorker" transform="translate(493.000000, 239.000000)">
                <polygon id="polygon3" points="9.47878261 0.521913043 11.0353043 0.521913043 11.0353043 4.92295652 14.9831304 4.92295652 14.9831304 0.521913043 16.1561739 0.512869565 16.1561739 11.3349565 14.9831304 11.3349565 14.9831304 5.52121739 11.0353043 5.52121739 11.0353043 11.3349565 9.47878261 11.3349565"></polygon>
                <polygon id="polygon5" points="26.6396522 0.544173913 27.9544348 0.544173913 33.4855652 7.57321739 33.4855652 0.544173913 34.3285217 0.544173913 34.3285217 11.497913 27.4885217 2.67286957 27.4885217 11.3556522 26.618087 11.3558261"></polygon>
                <path d="M35.7935652,0.544173913 L39.737913,0.544173913 L40.3013913,1.79617391 C40.3013913,1.79617391 39.6403478,1.1386087 38.4022609,1.1386087 C37.5257391,1.1386087 37.4462609,1.1386087 37.4462609,1.1386087 L37.4462609,4.94765217 C37.4462609,4.94765217 38.2353043,4.94765217 39.0492174,4.94765217 C39.8636522,4.94765217 39.9845217,4.868 40.3013913,4.55130435 L40.3013913,6.15791304 C40.3013913,6.15791304 39.9466087,5.61530435 39.0492174,5.61530435 C38.1518261,5.61530435 37.4462609,5.61530435 37.4462609,5.61530435 L37.4462609,10.6243478 C37.4462609,10.6243478 39.2370435,10.6243478 39.6753043,10.6243478 C41.8353043,10.6243478 42.937913,9.72678261 42.937913,9.72678261 L42.1450435,11.3546087 L35.7737391,11.3558261 L35.7935652,0.544173913 Z" id="path7"></path>
                <path d="M90.6241739,0.544173913 L95.0001739,0.544173913 L95.5634783,1.79617391 C95.5634783,1.79617391 94.9452174,1.13843478 93.5726957,1.13843478 C92.6965217,1.13843478 92.1328696,1.13843478 92.1328696,1.13843478 L92.1328696,4.94765217 C92.1328696,4.94765217 93.066087,4.94765217 93.88,4.94765217 C94.5154783,4.94765217 94.712,4.89043478 94.9561739,4.6466087 L94.9561739,5.92747826 C94.9561739,5.92747826 94.7773913,5.55269565 93.88,5.55269565 C92.9824348,5.55269565 92.1328696,5.55269565 92.1328696,5.55269565 L92.1328696,10.6243478 C92.1328696,10.6243478 92.7509565,10.6243478 93.1888696,10.6243478 C95.0923478,10.6243478 95.8283478,10.0513043 95.8283478,10.0513043 L94.8641739,11.3546087 L90.6045217,11.3558261 L90.6241739,0.544173913 Z" id="path9"></path>
                <path d="M17.6393043,0.536347826 L22.0153043,0.536347826 L22.5786087,1.78834783 C22.5786087,1.78834783 21.9603478,1.1306087 20.5878261,1.1306087 C19.7116522,1.1306087 19.148,1.1306087 19.148,1.1306087 L19.148,4.93982609 C19.148,4.93982609 20.0812174,4.93982609 20.8951304,4.93982609 C21.5306087,4.93982609 21.7271304,4.8826087 21.9713043,4.63878261 L21.9713043,5.91965217 C21.9713043,5.91965217 21.7925217,5.54486957 20.8951304,5.54486957 C19.9975652,5.54486957 19.148,5.54486957 19.148,5.54486957 L19.148,10.6165217 C19.148,10.6165217 19.766087,10.6165217 20.204,10.6165217 C22.1074783,10.6165217 22.8434783,10.0434783 22.8434783,10.0434783 L21.8793043,11.3467826 L17.6196522,11.348 L17.6393043,0.536347826 Z" id="path11"></path>
                <g id="g13" transform="translate(0.152000, 0.430957)">
                    <g id="g15">
                        <path d="M7.79321739,0.113217391 L4.94973913,0.113217391 L0.613565217,0.113217391 L0.0219130435,1.45182609 C0.0219130435,1.45182609 0.670956522,0.794086957 2.11217391,0.794086957 C3.07304348,0.794086957 3.09130435,0.794086957 3.40591304,0.793391304 L3.40869565,10.9022609 L4.94678261,10.9036522 L4.94956522,0.794086957 C4.94956522,0.794086957 5.3746087,0.794086957 6.29478261,0.794086957 C7.736,0.794086957 8.38521739,1.45182609 8.38521739,1.45182609 L7.79321739,0.113217391 Z" id="path17"></path>
                    </g>
                </g>
                <polygon id="polygon19" points="40.7878261 0.544173913 42.4546087 0.544173913 46.0486957 8.47182609 46.8024348 6.80504348 44.0486957 0.544173913 45.6429565 0.544173913 47.6429565 4.77617391 49.556 0.544173913 50.3676522 0.544173913 48.0921739 5.92104348 49.2516522 8.47182609 52.7443478 0.544173913 53.7153043 0.544173913 48.9038261 11.4427826 47.2372174 7.9066087 45.613913 11.4572174"></polygon>
                <path d="M68.7452174,0.173913043 C72.4674783,0.173913043 74.7292174,2.79773913 74.7292174,5.71391304 C74.7292174,9.47843478 72.6862609,11.8453913 68.8328696,11.8453913 C64.9789565,11.8453913 62.6796522,8.93304348 62.6796522,6.04243478 C62.6796522,2.77982609 65.1104348,0.173913043 68.7452174,0.173913043 Z M64.2782609,5.80156522 C64.2782609,8.33252174 65.7033043,11.1008696 68.9422609,11.1008696 C71.9347826,11.1008696 73.1248696,8.64782609 73.1248696,5.86713043 C73.1248696,3.63686957 71.613913,0.809043478 68.6793043,0.809043478 C66.6233043,0.809043478 64.2782609,2.43130435 64.2782609,5.80156522 Z" id="path21" fill-rule="nonzero"></path>
                <path d="M76.0104348,0.544173913 C76.0104348,0.544173913 77.5466087,0.544173913 78.5466087,0.544173913 C79.8808696,0.544173913 80.9958261,1.31773913 80.9958261,2.74713043 C80.9958261,4.43234783 79.7546087,4.86991304 78.9088696,5.13843478 C80.445913,5.39478261 81.0104348,6.13113043 81.0104348,8.19634783 C81.0104348,10.2573913 81.5344348,11.0224348 82.0067826,11.0224348 C82.3706087,11.0224348 82.6546087,10.7826087 82.756,10.6172174 L82.9669565,10.7615652 C82.9050435,10.8584348 82.4784348,11.5297391 81.4886957,11.5297391 C80.5031304,11.5297391 79.7495652,10.6168696 79.7495652,8.47182609 C79.7495652,5.37043478 78.9111304,5.31234783 78.2422609,5.31234783 L78.2422609,5.08052174 C78.2624348,5.07582609 79.6770435,4.77304348 79.6770435,3.03704348 C79.6770435,1.39565217 78.6914783,1.13843478 78.2857391,1.13843478 C78.1697391,1.13843478 77.5610435,1.13843478 77.5610435,1.13843478 L77.5610435,11.3558261 L75.9902609,11.3558261 L76.0104348,0.544173913 Z" id="path23"></path>
                <path d="M96.5386087,0.544173913 C96.5386087,0.544173913 98.0749565,0.544173913 99.0749565,0.544173913 C100.409391,0.544173913 101.524174,1.31773913 101.524174,2.74713043 C101.524174,4.43234783 100.282783,4.86991304 99.4372174,5.13843478 C100.974261,5.39478261 101.538609,6.13113043 101.538609,8.19634783 C101.538609,10.2573913 102.062783,11.0224348 102.535304,11.0224348 C102.89913,11.0224348 103.182957,10.7826087 103.284348,10.6172174 L103.49513,10.7615652 C103.433565,10.8584348 103.006783,11.5297391 102.01687,11.5297391 C101.031478,11.5297391 100.277739,10.6168696 100.277739,8.47182609 C100.277739,5.37043478 99.4394783,5.31234783 98.7706087,5.31234783 L98.7706087,5.08052174 C98.7907826,5.07582609 100.205391,4.77304348 100.205391,3.03704348 C100.205391,1.39565217 99.2198261,1.13843478 98.814087,1.13843478 C98.698087,1.13843478 98.0893913,1.13843478 98.0893913,1.13843478 L98.0893913,11.3558261 L96.5186087,11.3558261 L96.5386087,0.544173913 Z" id="path25"></path>
                <path d="M88.0624348,8.19634783 C88.0624348,10.2572174 88.5864348,11.0224348 89.0587826,11.0224348 C89.4224348,11.0224348 89.7064348,10.7822609 89.8074783,10.6172174 L90.0189565,10.7615652 C89.9566957,10.8582609 89.529913,11.5295652 88.5406957,11.5295652 C87.5549565,11.5295652 86.8015652,10.6166957 86.8015652,8.47165217 L86.8015652,8.03704348 C86.8015652,6.75843478 86.7391304,5.76121739 86.5172174,5.108 C86.3457391,4.60278261 85.724,4.2253913 85.4572174,4.2253913 L85.1238261,4.22556522 L85.1238261,11.3558261 L83.5530435,11.3558261 L83.5732174,0.544173913 L85.1238261,0.544173913 L85.1238261,3.73269565 L87.9645217,0.544173913 L88.9789565,0.544173913 L85.9954783,3.89304348 C87.5325217,4.14921739 88.0624348,5.29513043 88.0624348,7.77617391 L88.0624348,8.19634783 Z" id="path27"></path>
                <polygon id="polygon29" points="60.4507826 11.3558261 60.4507826 5.77443478 63.4627826 0.544173913 62.4892174 0.544173913 59.6292174 5.51078261 56.7690435 0.544173913 55.7956522 0.544173913 58.8076522 5.77443478 58.8076522 11.3558261"></polygon>
            </g>
        </g>
    </g>
</svg>