<?xml version="1.0" encoding="UTF-8"?>
<svg width="37px" height="37px" viewBox="0 0 37 37" version="1.1" xmlns="http://www.w3.org/2000/svg" xmlns:xlink="http://www.w3.org/1999/xlink">
    <title>024-Litecoin</title>
    <g id="010-Site" stroke="none" stroke-width="1" fill="none" fill-rule="evenodd">
        <g id="010-010-Homepage" transform="translate(-947.000000, -2755.000000)">
            <g id="Call-to-Action-Copy-2" transform="translate(0.000000, 2723.000000)">
                <g id="addresses" transform="translate(657.000000, 31.000000)">
                    <g id="Group">
                        <g id="024-Litecoin" transform="translate(290.000000, 1.000000)">
                            <g id="Group-20" transform="translate(-0.000000, 0.000000)">
                                <path d="M28.7683,28.09895 C31.338175,25.359125 32.7536,21.78055 32.7536,18.0224 C32.7536,9.89945004 26.14535,3.2912 18.0224,3.2912 C9.89945004,3.2912 3.2912,9.89945004 3.2912,18.0224 C3.2912,26.14535 9.89945004,32.7536 18.0224,32.7536 C20.548275,32.7536 23.040325,32.1035 25.229325,30.87315 C25.64705,30.6383 26.717075,30.2192 26.455275,29.5911 C26.124725,28.798 25.126475,29.719525 24.71205,29.952725 C22.680625,31.09425 20.367325,31.6976 18.0224,31.6976 C10.4819,31.6976 4.3472,25.5629 4.3472,18.0224 C4.3472,10.4819 10.4819,4.3472 18.0224,4.3472 C25.5629,4.3472 31.6976,10.4819 31.6976,18.0224 C31.6976,21.511325 30.383925,24.83305 27.998025,27.37625 C27.532175,27.873175 28.30245,28.5956 28.7683,28.09895 Z" id="Path" fill="#000000" fill-rule="nonzero"></path>
                                <path d="M30.766175,5.27862502 C27.362225,1.87467498 22.836275,5.68434189e-14 18.0224,5.68434189e-14 C14.948725,5.68434189e-14 11.9141,0.7876 9.2466,2.27754996 C8.65205004,2.60947498 9.16712502,3.53182502 9.7614,3.19934996 C12.271875,1.79712502 15.128575,1.056 18.0224,1.056 C22.5544,1.056 26.814975,2.82067498 30.01955,6.02525004 C33.224125,9.22982502 34.9888,13.4904 34.9888,18.0224 C34.9888,22.5544 33.224125,26.814975 30.01955,30.01955 C26.814975,33.224125 22.5544,34.9888 18.0224,34.9888 C13.4904,34.9888 9.22982502,33.224125 6.02525004,30.01955 C2.82067498,26.814975 1.056,22.5544 1.056,18.0224 C1.056,13.052875 3.22492502,8.34954996 7.00645004,5.1183 C7.52427498,4.67582502 6.83814996,3.8731 6.32032502,4.31557498 C2.30367498,7.74785004 0,12.743775 0,18.0224 C0,22.836275 1.87467498,27.362225 5.27862502,30.766175 C8.68257498,34.170125 13.208525,36.0448 18.0224,36.0448 C22.836275,36.0448 27.362225,34.170125 30.766175,30.766175 C34.170125,27.362225 36.0448,22.836275 36.0448,18.0224 C36.0448,13.208525 34.170125,8.68257498 30.766175,5.27862502 Z" id="Path" fill="#000000" fill-rule="nonzero"></path>
                                <g id="Group-19" transform="translate(10.192195, 10.890607)">
                                    <polyline id="Rectangle" stroke="#000000" stroke-linejoin="round" transform="translate(8.172214, 8.992114) rotate(-315.000000) translate(-8.172214, -8.992114) " points="11.8229839 5.3031317 11.8229839 12.6810955 4.52144312 12.6810955"></polyline>
                                    <polyline id="Rectangle-Copy-3" stroke="#000000" stroke-linejoin="round" transform="translate(8.172214, 5.688982) scale(1, -1) rotate(-315.000000) translate(-8.172214, -5.688982) " points="11.8229839 2 11.8229839 9.37796379 4.52144312 9.37796379"></polyline>
                                    <rect id="Rectangle" fill="#000000" transform="translate(2.000000, 7.453359) rotate(-45.000000) translate(-2.000000, -7.453359) " x="1" y="6.45335858" width="2" height="2"></rect>
                                    <rect id="Rectangle-Copy-4" fill="#000000" transform="translate(14.344427, 7.453359) rotate(-45.000000) translate(-14.344427, -7.453359) " x="13.344427" y="6.45335858" width="2" height="2"></rect>
                                    <rect id="Rectangle-Copy-5" fill="#000000" transform="translate(8.172214, 7.453359) rotate(-45.000000) translate(-8.172214, -7.453359) " x="7.17221352" y="6.45335858" width="2" height="2"></rect>
                                </g>
                            </g>
                        </g>
                    </g>
                </g>
            </g>
        </g>
    </g>
</svg>