<?xml version="1.0" encoding="UTF-8"?>
<svg width="37px" height="36px" viewBox="0 0 37 36" version="1.1" xmlns="http://www.w3.org/2000/svg" xmlns:xlink="http://www.w3.org/1999/xlink">
    <title>026-ethereum</title>
    <g id="010-Site" stroke="none" stroke-width="1" fill="none" fill-rule="evenodd">
        <g id="010-010-Homepage" transform="translate(-657.000000, -2756.000000)" fill="#000000" fill-rule="nonzero">
            <g id="Call-to-Action-Copy-2" transform="translate(0.000000, 2723.000000)">
                <g id="addresses" transform="translate(657.000000, 31.000000)">
                    <g id="Group">
                        <g id="026-ethereum" transform="translate(0.000000, 2.000000)">
                            <path d="M25.071475,17.414375 L18.46075,7.72034996 C18.2556,7.41345004 17.788925,7.4151 17.583775,7.72062502 L14.76255,11.88275 C14.380575,12.446775 15.254525,13.039125 15.636775,12.475375 L17.4944,9.73445004 L17.4944,20.26145 L12.18305,17.570575 L14.06185,14.798575 C14.4441,14.234825 13.569875,13.6422 13.187625,14.20595 L10.9725,17.474325 C10.7965,17.7342 10.8911,18.09995 11.170775,18.241575 L17.7837,21.591625 C17.944025,21.668075 18.104075,21.667525 18.2644,21.589975 L24.87705,18.181075 C25.155075,18.038075 25.24775,17.672875 25.071475,17.414375 L25.071475,17.414375 Z M18.5504,20.254575 L18.5504,9.72592502 L23.862575,17.516125 L18.5504,20.254575 Z" id="Shape"></path>
                            <path d="M24.3188,19.337175 L18.021575,22.729025 L11.7909,19.3952 C11.29865,19.132025 10.7811,19.7516 11.12815,20.18885 L17.6088,28.358275 C17.81505,28.618425 18.22865,28.618975 18.43545,28.358825 L24.982375,20.130825 C25.3308,19.693025 24.811325,19.0718 24.3188,19.337175 L24.3188,19.337175 Z M18.02295,27.181275 L13.53825,21.527825 L17.77325,23.793825 C17.92945,23.877425 18.117,23.87715 18.272925,23.793275 L22.5533,21.4874 L18.02295,27.181275 Z" id="Shape"></path>
                            <path d="M16.343525,3.3858 C12.772375,3.79114996 9.47622502,5.49312502 7.06282502,8.1785 C4.63072502,10.884775 3.2912,14.380575 3.2912,18.0224 C3.2912,26.14535 9.89945004,32.7536 18.0224,32.7536 C26.14535,32.7536 32.7536,26.14535 32.7536,18.0224 C32.7536,14.444925 31.455325,10.995325 29.098025,8.3094 C26.762725,5.6485 23.5554,3.91627498 20.0662,3.432 C19.391625,3.33712502 19.246425,4.38432502 19.921,4.47782502 C23.159125,4.92745004 26.136275,6.53565004 28.304375,9.00597498 C30.49255,11.499125 31.6976,14.701225 31.6976,18.0224 C31.6976,25.5629 25.5629,31.6976 18.0224,31.6976 C10.4819,31.6976 4.3472,25.5629 4.3472,18.0224 C4.3472,11.060225 9.5557,5.21894996 16.462875,4.4352 C17.13965,4.3582 17.0203,3.31017498 16.343525,3.3858 Z" id="Path"></path>
                            <path d="M30.766175,5.27862502 C27.362225,1.87467498 22.836275,0 18.0224,0 C13.208525,0 8.68257498,1.87467498 5.27862502,5.27862502 C1.87467498,8.68257498 -2.84217094e-14,13.208525 -2.84217094e-14,18.0224 C-2.84217094e-14,22.507375 1.65797498,26.805625 4.6684,30.12515 C7.65737498,33.421575 11.730675,35.489025 16.13755,35.94745 C16.803875,36.016475 16.92405,34.96735 16.246725,34.89695 C12.0989,34.46575 8.26485004,32.5193 5.4505,29.415925 C2.61662502,26.290825 1.056,22.244475 1.056,18.0224 C1.056,13.4904 2.82067498,9.22982502 6.02525004,6.02525004 C9.22982502,2.82067498 13.4904,1.056 18.0224,1.056 C22.5544,1.056 26.814975,2.82067498 30.01955,6.02525004 C33.224125,9.22982502 34.9888,13.4904 34.9888,18.0224 C34.9888,22.1606 33.48235,26.14645 30.74665,29.245425 C28.03515,32.31745 24.3166,34.304325 20.2763,34.840575 C19.601175,34.930225 19.74005,35.9788 20.415175,35.887225 C24.707925,35.3177 28.6583,33.207075 31.538375,29.9442 C34.4443,26.652175 36.0448,22.418275 36.0448,18.0224 C36.0448,13.208525 34.170125,8.68257498 30.766175,5.27862502 L30.766175,5.27862502 Z" id="Path"></path>
                        </g>
                    </g>
                </g>
            </g>
        </g>
    </g>
</svg>