<?xml version="1.0" encoding="UTF-8"?>
<svg width="37px" height="37px" viewBox="0 0 37 37" version="1.1" xmlns="http://www.w3.org/2000/svg" xmlns:xlink="http://www.w3.org/1999/xlink">
    <title>027-neo</title>
    <g id="010-Site" stroke="none" stroke-width="1" fill="none" fill-rule="evenodd">
        <g id="010-010-Homepage" transform="translate(-802.000000, -2755.000000)" fill="#000000" fill-rule="nonzero">
            <g id="Call-to-Action-Copy-2" transform="translate(0.000000, 2723.000000)">
                <g id="addresses" transform="translate(657.000000, 31.000000)">
                    <g id="Group">
                        <g id="027-neo" transform="translate(145.000000, 1.000000)">
                            <path d="M7.5955,7.61777498 C5.05394996,10.1585 3.5354,13.54265 3.31925004,17.14625 C3.10145004,20.7779 4.2306,24.34685 6.49825004,27.196125 C8.9485,30.274475 12.450625,32.214325 16.360025,32.65845 C16.925975,32.7228 17.49055,32.7547 18.051825,32.7547 C21.367225,32.7547 24.563275,31.643425 27.19585,29.54765 C30.2742,27.097675 32.214325,23.595275 32.65845,19.685875 C33.102575,15.77675 31.9979,11.9284 29.54765,8.85005004 C27.32015,6.0511 24.15655,4.16074996 20.63985,3.52742502 C17.15615,2.90014996 13.56795,3.542 10.536625,5.33554996 C9.9506,5.68232502 10.4885,6.59147498 11.074525,6.24442502 C13.8875,4.57985004 17.218025,3.98392502 20.45285,4.56665004 C23.7171,5.1546 26.653825,6.90937498 28.721825,9.50757498 C30.99635,12.365375 32.021825,15.937625 31.609325,19.5668 C31.1971,23.1957 29.396125,26.447025 26.5386,28.72155 C23.6808,30.996075 20.108275,32.02155 16.479375,31.609325 C12.850475,31.1971 9.59914996,29.396125 7.32462502,26.538325 C2.98925004,21.091675 3.42677498,13.278375 8.34212502,8.3644 C8.82365004,7.88287498 8.0773,7.13625004 7.5955,7.61777498 L7.5955,7.61777498 Z" id="Path"></path>
                            <path d="M32.122475,6.80074996 C29.124975,3.03462502 24.8402,0.6611 20.0574,0.1177 C15.2746,-0.425974982 10.5666,0.925925018 6.80047498,3.92342502 C3.03462502,6.9212 0.6611,11.205975 0.1177,15.9885 C-0.4257,20.7713 0.925650035,25.4793 3.92342502,29.245425 C6.71605004,32.75415 10.689525,35.0845 15.1118,35.806925 C16.08585,35.96615 17.06375,36.0448 18.036975,36.0448 C21.4511,36.0448 24.805,35.0768 27.709825,33.220275 C28.28375,32.853425 27.71505,31.963525 27.1414,32.330375 C23.628,34.57575 19.416375,35.44035 15.282025,34.76495 C11.119075,34.0846 7.37852502,31.890925 4.74952502,28.5879 C1.92747498,25.042325 0.655325018,20.61015 1.16682502,16.107575 C1.67832502,11.605275 3.9127,7.57157498 7.45827498,4.74952502 C11.003575,1.92747498 15.43575,0.655325018 19.938325,1.16682502 C24.440625,1.6786 28.474325,3.9127 31.296375,7.45827498 C33.8734,10.695575 35.176625,14.7521 34.96625,18.87985 C34.757525,22.971575 33.0858,26.84165 30.2588,29.777 C29.78635,30.2676 30.546725,30.999925 31.019175,30.5096 C34.023,27.390825 35.799225,23.279575 36.0206,18.93375 C36.244175,14.5486 34.859825,10.239625 32.122475,6.80074996 Z" id="Path"></path>
                            <path d="M9.9308,21.542675 L9.9308,23.971475 C9.9308,24.176625 10.0496,24.36335 10.2355,24.449975 L16.4043,27.328675 C16.475525,27.36195 16.5517,27.378175 16.6276,27.378175 C16.9103,27.378175 17.1556,27.13425 17.1556,26.85045 L17.1556,15.630175 L18.8903,15.0139 L18.8903,20.799075 C18.8903,21.004225 19.0091,21.190675 19.195,21.2773 L25.3638,24.156275 C25.435025,24.18955 25.5112,24.205775 25.5871,24.205775 C25.8698,24.205775 26.1151,23.961575 26.1151,23.677775 L26.1151,12.080475 C26.1151,12.069475 26.113725,12.0582 26.1129,12.0472 C26.103,11.8536 25.988325,11.67925 25.8104,11.5962 L19.6416,8.71722502 C19.515925,8.65865004 19.3721,8.65177498 19.241475,8.69825004 L10.33725,11.861575 C10.2806,11.87505 10.2256,11.89705 10.175,11.929225 C10.022925,12.026025 9.9308,12.19405 9.9308,12.37445 L9.9308,18.58615 C9.9308,19.267325 10.986525,19.267325 10.986525,18.58615 L10.986525,13.203575 L16.0996,15.589475 L16.0996,26.021325 L10.986525,23.635425 L10.986525,21.542675 C10.9868,20.861775 9.9308,20.861775 9.9308,21.542675 L9.9308,21.542675 Z M25.059375,22.848925 L19.9463,20.46275 L19.9463,14.66245 L25.059375,12.830675 L25.059375,22.848925 Z M19.391075,9.7658 L24.1967,12.00815 L16.68425,14.677025 L11.878625,12.434675 L19.391075,9.7658 Z" id="Shape"></path>
                        </g>
                    </g>
                </g>
            </g>
        </g>
    </g>
</svg>