<?xml version="1.0" encoding="UTF-8"?>
<svg width="37px" height="38px" viewBox="0 0 37 38" version="1.1" xmlns="http://www.w3.org/2000/svg" xmlns:xlink="http://www.w3.org/1999/xlink">
    <title>030-dash</title>
    <g id="010-Site" stroke="none" stroke-width="1" fill="none" fill-rule="evenodd">
        <g id="010-010-Homepage" transform="translate(-1090.000000, -2754.000000)">
            <g id="Call-to-Action-Copy-2" transform="translate(0.000000, 2723.000000)">
                <g id="addresses" transform="translate(657.000000, 31.000000)">
                    <g id="Group">
                        <g id="030-dash" transform="translate(433.000000, 0.000000)">
                            <g id="Group-18" transform="translate(0.000039, 0.035169)">
                                <path d="M7.83388645,27.1384059 C7.38041147,26.6304809 6.59253641,27.3333809 7.04601147,27.8415809 C9.43906143,30.5225559 12.7313614,32.2300309 16.3168115,32.6494059 C16.8893614,32.7162309 17.4616364,32.7495059 18.0319864,32.7495059 C21.0624864,32.7495059 24.0278115,31.8136809 26.5294864,30.0440559 C29.7412115,27.7720059 31.8760364,24.3853809 32.5404364,20.5076059 C33.2048364,16.6301059 32.3196115,12.7259309 30.0475614,9.51420588 C27.7755114,6.30248093 24.3888864,4.16765591 20.5113864,3.50325591 C16.6336115,2.83885591 12.7294364,3.72408093 9.5177114,5.9961309 C6.59748645,8.06165591 4.53141147,11.1130559 3.70036143,14.5879559 C2.87673641,18.0304059 3.31508645,21.6488559 4.93428645,24.7764309 C5.24723641,25.3811559 6.18498645,24.8957809 5.87176143,24.2910559 C4.36916143,21.3884309 3.9627114,18.0298559 4.72721147,14.8335309 C5.49858645,11.6080559 7.41643641,8.77555591 10.1273864,6.85798086 C16.2821614,2.50390588 24.8316364,3.96910588 29.1857114,10.1238809 C31.2946864,13.1054309 32.1166614,16.7296559 31.4998364,20.3294059 C30.8830115,23.9288809 28.9013614,27.0729559 25.9198115,29.1819309 C20.2366614,33.2021559 12.4615864,32.3235309 7.83388645,27.1384059 L7.83388645,27.1384059 Z" id="Path" fill="#000000" fill-rule="nonzero"></path>
                                <path d="M33.7427364,9.20840588 C33.4091614,8.61495591 32.4887364,9.1322309 32.8225864,9.72595591 C34.8655614,13.3603559 35.4906364,17.6137809 34.5823114,21.7027559 C33.6679364,25.8203309 31.2663614,29.4305309 27.8200614,31.8684059 C24.9229364,33.9179809 21.5374115,34.9877309 18.0597614,34.9874559 C17.0969864,34.9874559 16.1265114,34.9055059 15.1585114,34.7396809 C10.6925114,33.9743559 6.7919114,31.5155809 4.17501147,27.8165559 C1.55838645,24.1175309 0.53868645,19.6207309 1.30401147,15.1547309 C2.06933641,10.6887309 4.52783641,6.78840588 8.22686143,4.17150588 C11.6046864,1.7820309 15.7280364,0.710080932 19.8370864,1.15365591 C23.9101114,1.59338086 27.6789864,3.48098086 30.4496115,6.46940588 C30.9124364,6.96880588 31.6868364,6.25105591 31.2237364,5.75165591 C28.2801364,2.57650588 24.2766864,0.570930897 19.9503864,0.103980862 C15.5855864,-0.366819138 11.2053864,0.77140588 7.61718645,3.30965591 C3.68798645,6.08908093 1.0763114,10.2325059 0.263411467,14.9765309 C-0.549488603,19.7205559 0.533461432,24.4970309 3.31316143,28.4262309 C6.09258645,32.3554309 10.2360115,34.9673809 14.9800364,35.7802809 C16.0088115,35.9565559 17.0389614,36.0437309 18.0619614,36.0437309 C21.7557614,36.0437309 25.3527614,34.9071559 28.4297364,32.7305309 C32.0905364,30.1408559 34.6417114,26.3057059 35.6130115,21.9318309 C36.5774364,17.5884809 35.9135864,13.0702309 33.7427364,9.20840588 Z" id="Path" fill="#000000" fill-rule="nonzero"></path>
                                <polyline id="Path-7" stroke="#000000" stroke-linecap="round" stroke-linejoin="round" points="17.1237085 19.6125096 17.1237085 25.9466403 14.4217006 22.8593191 14.4217006 14.024696 21.3951738 21.4672654 21.3951738 11.9940338 18.481027 8.95431553 18.481027 15.1346113"></polyline>
                            </g>
                        </g>
                    </g>
                </g>
            </g>
        </g>
    </g>
</svg>