<?xml version="1.0" encoding="UTF-8"?>
<svg width="34px" height="34px" viewBox="0 0 34 34" version="1.1" xmlns="http://www.w3.org/2000/svg" xmlns:xlink="http://www.w3.org/1999/xlink">
    <!-- Generator: Sketch 52.5 (67469) - http://www.bohemiancoding.com/sketch -->
    <title>add</title>
    <desc>Created with Sketch.</desc>
    <g id="Page-1" stroke="none" stroke-width="1" fill="none" fill-rule="evenodd">
        <g id="add" transform="translate(-3.000000, -3.000000)">
            <polygon id="Path" points="0 0 40 0 40 40 0 40"></polygon>
            <path d="M20,3.33333333 C10.8,3.33333333 3.33333333,10.8 3.33333333,20 C3.33333333,29.2 10.8,36.6666667 20,36.6666667 C29.2,36.6666667 36.6666667,29.2 36.6666667,20 C36.6666667,10.8 29.2,3.33333333 20,3.33333333 Z M20,33.3333333 C12.65,33.3333333 6.66666667,27.35 6.66666667,20 C6.66666667,12.65 12.65,6.66666667 20,6.66666667 C27.35,6.66666667 33.3333333,12.65 33.3333333,20 C33.3333333,27.35 27.35,33.3333333 20,33.3333333 Z" id="Shape" fill="#86C0FF" fill-rule="nonzero"></path>
            <polygon id="Path" fill="#4EA3FF" points="21.6666667 11.6666667 18.3333333 11.6666667 18.3333333 18.3333333 11.6666667 18.3333333 11.6666667 21.6666667 18.3333333 21.6666667 18.3333333 28.3333333 21.6666667 28.3333333 21.6666667 21.6666667 28.3333333 21.6666667 28.3333333 18.3333333 21.6666667 18.3333333"></polygon>
        </g>
    </g>
</svg>