<?xml version="1.0" encoding="UTF-8"?>
<svg width="38px" height="30px" viewBox="0 0 38 30" version="1.1" xmlns="http://www.w3.org/2000/svg" xmlns:xlink="http://www.w3.org/1999/xlink">
    <!-- Generator: Sketch 52.5 (67469) - http://www.bohemiancoding.com/sketch -->
    <title>baseline</title>
    <desc>Created with Sketch.</desc>
    <g id="Page-1" stroke="none" stroke-width="1" fill="none" fill-rule="evenodd">
        <g id="baseline" transform="translate(-1.166667, -5.000000)">
            <path d="M35,5 L5,5 C3.16666667,5 1.66666667,6.5 1.66666667,8.33333333 L1.66666667,31.6666667 C1.66666667,33.5 3.16666667,35 5,35 L35,35 C36.8333333,35 38.3333333,33.5 38.3333333,31.6666667 L38.3333333,8.33333333 C38.3333333,6.5 36.8333333,5 35,5 Z M35,31.6833333 L5,31.6833333 L5,8.31666667 L35,8.31666667 L35,31.6833333 Z" id="Shape" fill="#86C0FF" fill-rule="nonzero"></path>
            <polygon id="Path" fill="#4EA3FF" points="31.6666667 20 28.3333333 20 28.3333333 25 23.3333333 25 23.3333333 28.3333333 31.6666667 28.3333333"></polygon>
            <polygon id="Path" fill="#4EA3FF" points="11.6666667 15 16.6666667 15 16.6666667 11.6666667 8.33333333 11.6666667 8.33333333 20 11.6666667 20"></polygon>
            <polygon id="Path" points="0 0 40 0 40 40 0 40"></polygon>
        </g>
    </g>
</svg>