<?xml version="1.0" encoding="UTF-8"?>
<svg width="33px" height="30px" viewBox="0 0 33 30" version="1.1" xmlns="http://www.w3.org/2000/svg" xmlns:xlink="http://www.w3.org/1999/xlink">
    <!-- Generator: Sketch 52.5 (67469) - http://www.bohemiancoding.com/sketch -->
    <title>brush</title>
    <desc>Created with Sketch.</desc>
    <g id="Page-1" stroke="none" stroke-width="1" fill="none" fill-rule="evenodd">
        <g id="brush" transform="translate(-2.833333, -5.000000)">
            <polygon id="Path" points="0 0 40 0 40 40 0 40"></polygon>
            <path d="M11.6666667,23.3333333 C8.9,23.3333333 6.66666667,25.5666667 6.66666667,28.3333333 C6.66666667,30.5166667 4.73333333,31.6666667 3.33333333,31.6666667 C4.86666667,33.7 7.48333333,35 10,35 C13.6833333,35 16.6666667,32.0166667 16.6666667,28.3333333 C16.6666667,25.5666667 14.4333333,23.3333333 11.6666667,23.3333333 Z" id="Path" fill="#4EA3FF"></path>
            <path d="M34.5166667,7.71666667 L32.2833333,5.48333333 C31.6333333,4.83333333 30.5833333,4.83333333 29.9333333,5.48333333 L15,20.4166667 L19.5833333,25 L34.5166667,10.0666667 C35.1666667,9.41666667 35.1666667,8.36666667 34.5166667,7.71666667 Z" id="Path" fill="#86C0FF"></path>
        </g>
    </g>
</svg>