<svg width="24" height="24" viewBox="0 0 24 24" fill="none" xmlns="http://www.w3.org/2000/svg">
<g clip-path="url(#clip0)">
<path d="M0.75 11.998C0.75 14.9817 1.93526 17.8432 4.04505 19.9529C6.15483 22.0627 9.01631 23.248 12 23.248C14.9837 23.248 17.8452 22.0627 19.955 19.9529C22.0647 17.8432 23.25 14.9817 23.25 11.998C23.25 9.0143 22.0647 6.15282 19.955 4.04303C17.8452 1.93325 14.9837 0.747986 12 0.747986C9.01631 0.747986 6.15483 1.93325 4.04505 4.04303C1.93526 6.15282 0.75 9.0143 0.75 11.998V11.998Z" stroke="#005FFF" stroke-width="1.5" stroke-linecap="round" stroke-linejoin="round"/>
<path d="M7.5 11.998C7.5 13.1915 7.97411 14.3361 8.81802 15.18C9.66193 16.0239 10.8065 16.498 12 16.498C13.1935 16.498 14.3381 16.0239 15.182 15.18C16.0259 14.3361 16.5 13.1915 16.5 11.998C16.5 10.8045 16.0259 9.65992 15.182 8.816C14.3381 7.97209 13.1935 7.49799 12 7.49799C10.8065 7.49799 9.66193 7.97209 8.81802 8.816C7.97411 9.65992 7.5 10.8045 7.5 11.998Z" fill="#005FFF" fill-opacity="0.3" stroke="#005FFF" stroke-width="1.5" stroke-linecap="round" stroke-linejoin="round"/>
</g>
<defs>
<clipPath id="clip0">
<rect width="24" height="24" fill="white"/>
</clipPath>
</defs>
</svg>
