<svg width="49" height="48" viewBox="0 0 49 48" fill="none" xmlns="http://www.w3.org/2000/svg">
<g clip-path="url(#clip0)">
<path d="M47 24.0079H15.5" stroke="#005FFF" stroke-width="3" stroke-linecap="round" stroke-linejoin="round"/>
<path d="M23 31.5079L15.5 24.0079L23 16.5079" stroke="#005FFF" stroke-width="3" stroke-linecap="round" stroke-linejoin="round"/>
<path d="M41.886 33.2C39.8219 37.4403 36.3905 40.8625 32.1447 42.9152C27.8988 44.9679 23.0856 45.5317 18.4802 44.5157C13.8749 43.4998 9.74563 40.9632 6.75749 37.3147C3.76934 33.6661 2.0963 29.1179 2.00785 24.4027C1.91939 19.6875 3.42068 15.0797 6.26988 11.3216C9.11908 7.56356 13.1503 4.87393 17.7143 3.68597C22.2783 2.49801 27.1093 2.88088 31.4291 4.77291C35.749 6.66494 39.3063 9.95599 41.528 14.116" stroke="#005FFF" stroke-width="3" stroke-linecap="round" stroke-linejoin="round"/>
</g>
<defs>
<clipPath id="clip0">
<rect width="48" height="48" fill="white" transform="translate(0.5)"/>
</clipPath>
</defs>
</svg>
