<?xml version="1.0" encoding="UTF-8"?>
<svg width="32px" height="38px" viewBox="0 0 32 38" version="1.1" xmlns="http://www.w3.org/2000/svg" xmlns:xlink="http://www.w3.org/1999/xlink">
    <!-- Generator: Sketch 52.5 (67469) - http://www.bohemiancoding.com/sketch -->
    <title>file</title>
    <desc>Created with Sketch.</desc>
    <g id="Page-1" stroke="none" stroke-width="1" fill="none" fill-rule="evenodd">
        <g id="file" transform="translate(-3.333333, -1.000000)">
            <polygon id="Path" points="0 0 40 0 40 40 0 40"></polygon>
            <path d="M25,8.33333333 L35,18.3333333 L35,35 C35,36.8333333 33.5,38.3333333 31.6666667,38.3333333 L13.3166667,38.3333333 C11.4833333,38.3333333 10,36.8333333 10,35 L10.0166667,11.6666667 C10.0166667,9.83333333 11.5,8.33333333 13.3333333,8.33333333 L25,8.33333333 Z M23.3333333,20 L32.5,20 L23.3333333,10.8333333 L23.3333333,20 Z" id="Shape" fill="#4EA3FF" fill-rule="nonzero"></path>
            <path d="M26.6666667,1.66666667 L6.66666667,1.66666667 C4.83333333,1.66666667 3.33333333,3.16666667 3.33333333,5 L3.33333333,28.3333333 L6.66666667,28.3333333 L6.66666667,5 L26.6666667,5 L26.6666667,1.66666667 Z" id="Path" fill="#4EA3FF"></path>
        </g>
    </g>
</svg>