<svg width="48" height="48" viewBox="0 0 48 48" fill="none" xmlns="http://www.w3.org/2000/svg">
<path d="M3.00195 1.5H21.002V46.5H3.00195V1.5Z" stroke="#015FFF" stroke-width="3" stroke-linecap="round" stroke-linejoin="round"/>
<path d="M3.00195 12H21.002" stroke="#015FFF" stroke-width="3" stroke-linecap="round" stroke-linejoin="round"/>
<path d="M9.00195 37.5C9.00195 38.2956 9.31802 39.0587 9.88063 39.6213C10.4432 40.1839 11.2063 40.5 12.002 40.5C12.7976 40.5 13.5607 40.1839 14.1233 39.6213C14.6859 39.0587 15.002 38.2956 15.002 37.5C15.002 36.7044 14.6859 35.9413 14.1233 35.3787C13.5607 34.8161 12.7976 34.5 12.002 34.5C11.2063 34.5 10.4432 34.8161 9.88063 35.3787C9.31802 35.9413 9.00195 36.7044 9.00195 37.5V37.5Z" stroke="#015FFF" stroke-width="3" stroke-linecap="round" stroke-linejoin="round"/>
<path d="M27.002 1.5H45.002V46.5H27.002V1.5Z" stroke="#015FFF" stroke-width="3" stroke-linecap="round" stroke-linejoin="round"/>
<path d="M27.002 28.5H45.002" stroke="#015FFF" stroke-width="3" stroke-linecap="round" stroke-linejoin="round"/>
<path d="M33.002 37.5C33.002 38.2956 33.318 39.0587 33.8806 39.6213C34.4432 40.1839 35.2063 40.5 36.002 40.5C36.7976 40.5 37.5607 40.1839 38.1233 39.6213C38.6859 39.0587 39.002 38.2956 39.002 37.5C39.002 36.7044 38.6859 35.9413 38.1233 35.3787C37.5607 34.8161 36.7976 34.5 36.002 34.5C35.2063 34.5 34.4432 34.8161 33.8806 35.3787C33.318 35.9413 33.002 36.7044 33.002 37.5Z" stroke="#015FFF" stroke-width="3" stroke-linecap="round" stroke-linejoin="round"/>
</svg>
