<svg width="49" height="48" viewBox="0 0 49 48" fill="none" xmlns="http://www.w3.org/2000/svg">
<g clip-path="url(#clip0)">
<path d="M37.252 21H11.752C9.16826 20.9931 6.6923 19.9637 4.8653 18.1367C3.03831 16.3097 2.00888 13.8338 2.00201 11.25V11.25C2.0094 8.66641 3.039 6.19075 4.86588 4.36387C6.69276 2.53699 9.16843 1.50739 11.752 1.5H37.252C39.8354 1.50791 42.3108 2.53768 44.1376 4.36445C45.9643 6.19122 46.9941 8.66657 47.002 11.25V11.25C46.9946 13.8336 45.965 16.3092 44.1381 18.1361C42.3113 19.963 39.8356 20.9926 37.252 21V21Z" stroke="#005FFF" stroke-width="3" stroke-linecap="round" stroke-linejoin="round"/>
<path d="M37.252 46.5H11.752C9.16826 46.4931 6.6923 45.4637 4.8653 43.6367C3.03831 41.8097 2.00888 39.3338 2.00201 36.75V36.75C2.0094 34.1664 3.039 31.6908 4.86588 29.8639C6.69276 28.037 9.16843 27.0074 11.752 27H37.252C39.8354 27.0079 42.3108 28.0377 44.1376 29.8645C45.9643 31.6912 46.9941 34.1666 47.002 36.75V36.75C46.9946 39.3336 45.965 41.8093 44.1381 43.6361C42.3113 45.463 39.8356 46.4926 37.252 46.5V46.5Z" stroke="#005FFF" stroke-width="3" stroke-linecap="round" stroke-linejoin="round"/>
<path d="M8.00201 11.25C8.00201 11.7425 8.09901 12.2301 8.28747 12.6851C8.47592 13.14 8.75214 13.5534 9.10036 13.9017C9.44858 14.2499 9.86198 14.5261 10.317 14.7145C10.7719 14.903 11.2596 15 11.752 15C12.2445 15 12.7321 14.903 13.1871 14.7145C13.642 14.5261 14.0554 14.2499 14.4037 13.9017C14.7519 13.5534 15.0281 13.14 15.2166 12.6851C15.405 12.2301 15.502 11.7425 15.502 11.25C15.502 10.7575 15.405 10.2699 15.2166 9.81494C15.0281 9.35997 14.7519 8.94657 14.4037 8.59835C14.0554 8.25013 13.642 7.97391 13.1871 7.78545C12.7321 7.597 12.2445 7.5 11.752 7.5C11.2596 7.5 10.7719 7.597 10.317 7.78545C9.86198 7.97391 9.44858 8.25013 9.10036 8.59835C8.75214 8.94657 8.47592 9.35997 8.28747 9.81494C8.09901 10.2699 8.00201 10.7575 8.00201 11.25V11.25Z" stroke="#005FFF" stroke-width="3" stroke-linecap="round" stroke-linejoin="round"/>
<path d="M33.502 36.75C33.502 37.7446 33.8971 38.6984 34.6004 39.4016C35.3036 40.1049 36.2575 40.5 37.252 40.5C38.2466 40.5 39.2004 40.1049 39.9037 39.4016C40.6069 38.6984 41.002 37.7446 41.002 36.75C41.002 35.7554 40.6069 34.8016 39.9037 34.0984C39.2004 33.3951 38.2466 33 37.252 33C36.2575 33 35.3036 33.3951 34.6004 34.0984C33.8971 34.8016 33.502 35.7554 33.502 36.75V36.75Z" stroke="#005FFF" stroke-width="3" stroke-linecap="round" stroke-linejoin="round"/>
</g>
<defs>
<clipPath id="clip0">
<rect width="48" height="48" fill="white" transform="translate(0.5)"/>
</clipPath>
</defs>
</svg>
