<svg width="48" height="48" viewBox="0 0 48 48" fill="none" xmlns="http://www.w3.org/2000/svg">
<path d="M10.502 9.75C10.3536 9.75 10.2086 9.79399 10.0853 9.8764C9.96194 9.95881 9.86581 10.0759 9.80904 10.213C9.75228 10.35 9.73743 10.5008 9.76636 10.6463C9.7953 10.7918 9.86673 10.9254 9.97162 11.0303C10.0765 11.1352 10.2102 11.2067 10.3556 11.2356C10.5011 11.2645 10.6519 11.2497 10.789 11.1929C10.926 11.1361 11.0431 11.04 11.1256 10.9167C11.208 10.7933 11.252 10.6483 11.252 10.5C11.252 10.3011 11.1729 10.1103 11.0323 9.96967C10.8916 9.82902 10.7009 9.75 10.502 9.75V9.75Z" stroke="#015FFF" stroke-width="3" stroke-linecap="round" stroke-linejoin="round"/>
<path d="M10.502 27.75C10.3536 27.75 10.2086 27.794 10.0853 27.8764C9.96194 27.9588 9.86581 28.0759 9.80904 28.213C9.75228 28.35 9.73743 28.5008 9.76636 28.6463C9.7953 28.7918 9.86673 28.9254 9.97162 29.0303C10.0765 29.1352 10.2102 29.2066 10.3556 29.2356C10.5011 29.2645 10.6519 29.2497 10.789 29.1929C10.926 29.1361 11.0431 29.04 11.1256 28.9167C11.208 28.7933 11.252 28.6483 11.252 28.5C11.252 28.3011 11.1729 28.1103 11.0323 27.9697C10.8916 27.829 10.7009 27.75 10.502 27.75V27.75Z" stroke="#015FFF" stroke-width="3" stroke-linecap="round" stroke-linejoin="round"/>
<path d="M25.378 19.5H10.502C8.115 19.5 5.82582 18.5518 4.13799 16.864C2.45016 15.1761 1.50195 12.8869 1.50195 10.5C1.50195 8.11305 2.45016 5.82387 4.13799 4.13604C5.82582 2.44821 8.115 1.5 10.502 1.5H34.502C36.2308 1.49989 37.923 1.9977 39.3764 2.93391C40.8297 3.87011 41.9827 5.2051 42.6974 6.77925C43.4121 8.35339 43.6583 10.1001 43.4066 11.8105C43.1549 13.5208 42.4159 15.1225 41.278 16.424" stroke="#015FFF" stroke-width="3" stroke-linecap="round" stroke-linejoin="round"/>
<path d="M16.502 37.5H10.502C8.115 37.5 5.82582 36.5518 4.13799 34.864C2.45016 33.1761 1.50195 30.8869 1.50195 28.5C1.50195 26.1131 2.45016 23.8239 4.13799 22.136C5.82582 20.4482 8.115 19.5 10.502 19.5H24" stroke="#015FFF" stroke-width="3" stroke-linecap="round" stroke-linejoin="round"/>
<path d="M21.002 10.5H34.502" stroke="#015FFF" stroke-width="3" stroke-linecap="round" stroke-linejoin="round"/>
<path d="M31.502 33C31.502 33.7956 31.818 34.5587 32.3806 35.1213C32.9432 35.6839 33.7063 36 34.502 36C35.2976 36 36.0607 35.6839 36.6233 35.1213C37.1859 34.5587 37.502 33.7956 37.502 33C37.502 32.2044 37.1859 31.4413 36.6233 30.8787C36.0607 30.3161 35.2976 30 34.502 30C33.7063 30 32.9432 30.3161 32.3806 30.8787C31.818 31.4413 31.502 32.2044 31.502 33V33Z" stroke="#015FFF" stroke-width="3" stroke-linecap="round" stroke-linejoin="round"/>
<path d="M37.0499 21.4L37.9339 24.306C38.0798 24.7883 38.4034 25.1972 38.8393 25.4501C39.2752 25.7029 39.7908 25.7808 40.2819 25.668L43.2259 24.986C43.7841 24.8593 44.3682 24.915 44.8925 25.1448C45.4167 25.3746 45.8534 25.7665 46.1385 26.2628C46.4236 26.7591 46.542 27.3338 46.4764 27.9024C46.4108 28.471 46.1646 29.0036 45.7739 29.422L43.7139 31.644C43.3698 32.014 43.1785 32.5006 43.1785 33.006C43.1785 33.5113 43.3698 33.9979 43.7139 34.368L45.7739 36.59C46.1646 37.0083 46.4108 37.5409 46.4764 38.1095C46.542 38.6781 46.4236 39.2528 46.1385 39.7491C45.8534 40.2455 45.4167 40.6373 44.8925 40.8671C44.3682 41.0969 43.7841 41.1526 43.2259 41.026L40.2819 40.344C39.7908 40.2311 39.2752 40.309 38.8393 40.5619C38.4034 40.8147 38.0798 41.2236 37.9339 41.706L37.0499 44.6C36.8856 45.148 36.549 45.6285 36.09 45.9701C35.631 46.3117 35.0741 46.4962 34.5019 46.4962C33.9298 46.4962 33.3728 46.3117 32.9138 45.9701C32.4548 45.6285 32.1182 45.148 31.9539 44.6L31.0679 41.694C30.9225 41.2118 30.5993 40.8029 30.1637 40.55C29.7281 40.2972 29.2128 40.2192 28.7219 40.332L25.7759 41.014C25.2177 41.1406 24.6336 41.085 24.1094 40.8551C23.5852 40.6253 23.1485 40.2335 22.8634 39.7371C22.5783 39.2408 22.4598 38.6661 22.5255 38.0975C22.5911 37.5289 22.8373 36.9963 23.2279 36.578L25.2899 34.356C25.6341 33.9859 25.8254 33.4993 25.8254 32.994C25.8254 32.4886 25.6341 32.002 25.2899 31.632L23.2279 29.41C22.8373 28.9916 22.5911 28.459 22.5255 27.8904C22.4598 27.3218 22.5783 26.7471 22.8634 26.2508C23.1485 25.7545 23.5852 25.3626 24.1094 25.1328C24.6336 24.903 25.2177 24.8473 25.7759 24.974L28.7219 25.656C29.2128 25.7687 29.7281 25.6908 30.1637 25.4379C30.5993 25.185 30.9225 24.7761 31.0679 24.294L31.9539 21.388C32.1195 20.8403 32.4573 20.3606 32.9171 20.02C33.3769 19.6795 33.9342 19.4963 34.5064 19.4977C35.0786 19.499 35.635 19.6848 36.0933 20.0275C36.5515 20.3702 36.8869 20.8515 37.0499 21.4V21.4Z" stroke="#015FFF" stroke-width="3" stroke-linecap="round" stroke-linejoin="round"/>
</svg>
