<svg width="48" height="48" viewBox="0 0 48 48" fill="none" xmlns="http://www.w3.org/2000/svg">
<g clip-path="url(#clip0)">
<path d="M19.5 24.026C19.5 25.2195 19.9741 26.3641 20.818 27.208C21.6619 28.0519 22.8065 28.526 24 28.526C25.1935 28.526 26.3381 28.0519 27.182 27.208C28.0259 26.3641 28.5 25.2195 28.5 24.026C28.5 22.8325 28.0259 21.6879 27.182 20.844C26.3381 20.0001 25.1935 19.526 24 19.526C22.8065 19.526 21.6619 20.0001 20.818 20.844C19.9741 21.6879 19.5 22.8325 19.5 24.026V24.026Z" stroke="#015FFF" stroke-width="3" stroke-linecap="round" stroke-linejoin="round"/>
<path d="M19.5 12.026C19.5 13.2195 19.9741 14.3641 20.818 15.208C21.6619 16.0519 22.8065 16.526 24 16.526C25.1935 16.526 26.3381 16.0519 27.182 15.208C28.0259 14.3641 28.5 13.2195 28.5 12.026C28.5 10.8325 28.0259 9.68793 27.182 8.84402C26.3381 8.00011 25.1935 7.526 24 7.526C22.8065 7.526 21.6619 8.00011 20.818 8.84402C19.9741 9.68793 19.5 10.8325 19.5 12.026Z" stroke="#015FFF" stroke-width="3" stroke-linecap="round" stroke-linejoin="round"/>
<path d="M19.5 36.026C19.5 37.2195 19.9741 38.3641 20.818 39.208C21.6619 40.0519 22.8065 40.526 24 40.526C25.1935 40.526 26.3381 40.0519 27.182 39.208C28.0259 38.3641 28.5 37.2195 28.5 36.026C28.5 34.8325 28.0259 33.6879 27.182 32.844C26.3381 32.0001 25.1935 31.526 24 31.526C22.8065 31.526 21.6619 32.0001 20.818 32.844C19.9741 33.6879 19.5 34.8325 19.5 36.026Z" stroke="#015FFF" stroke-width="3" stroke-linecap="round" stroke-linejoin="round"/>
<path d="M13.5 1.526H34.5V46.526H13.5V1.526Z" stroke="#015FFF" stroke-width="3" stroke-linecap="round" stroke-linejoin="round"/>
<path d="M13.5 7.526H6.45401C6.03458 7.52592 5.62625 7.66081 5.28939 7.91072C4.95254 8.16063 4.70504 8.5123 4.58349 8.91373C4.46193 9.31517 4.47278 9.74506 4.61442 10.1399C4.75606 10.5347 5.02098 10.8734 5.37001 11.106L13.5 16.526" stroke="#015FFF" stroke-width="3" stroke-linecap="round" stroke-linejoin="round"/>
<path d="M13.5 19.526H6.45401C6.03458 19.5259 5.62625 19.6608 5.28939 19.9107C4.95254 20.1606 4.70504 20.5123 4.58349 20.9137C4.46193 21.3152 4.47278 21.7451 4.61442 22.1399C4.75606 22.5347 5.02098 22.8734 5.37001 23.106L13.5 28.526" stroke="#015FFF" stroke-width="3" stroke-linecap="round" stroke-linejoin="round"/>
<path d="M13.5 31.526H6.45401C6.03458 31.5259 5.62625 31.6608 5.28939 31.9107C4.95254 32.1606 4.70504 32.5123 4.58349 32.9137C4.46193 33.3152 4.47278 33.7451 4.61442 34.1399C4.75606 34.5347 5.02098 34.8734 5.37001 35.106L13.5 40.526" stroke="#015FFF" stroke-width="3" stroke-linecap="round" stroke-linejoin="round"/>
<path d="M34.5 7.526H41.546C41.9654 7.52592 42.3738 7.66081 42.7106 7.91072C43.0475 8.16063 43.295 8.5123 43.4165 8.91373C43.5381 9.31517 43.5272 9.74506 43.3856 10.1399C43.2439 10.5347 42.979 10.8734 42.63 11.106L34.5 16.526" stroke="#015FFF" stroke-width="3" stroke-linecap="round" stroke-linejoin="round"/>
<path d="M34.5 19.526H41.546C41.9654 19.5259 42.3738 19.6608 42.7106 19.9107C43.0475 20.1606 43.295 20.5123 43.4165 20.9137C43.5381 21.3152 43.5272 21.7451 43.3856 22.1399C43.2439 22.5347 42.979 22.8734 42.63 23.106L34.5 28.526" stroke="#015FFF" stroke-width="3" stroke-linecap="round" stroke-linejoin="round"/>
<path d="M34.5 31.526H41.546C41.9654 31.5259 42.3738 31.6608 42.7106 31.9107C43.0475 32.1606 43.295 32.5123 43.4165 32.9137C43.5381 33.3152 43.5272 33.7451 43.3856 34.1399C43.2439 34.5347 42.979 34.8734 42.63 35.106L34.5 40.526" stroke="#015FFF" stroke-width="3" stroke-linecap="round" stroke-linejoin="round"/>
</g>
<defs>
<clipPath id="clip0">
<rect width="48" height="48" fill="white"/>
</clipPath>
</defs>
</svg>
