<svg width="49" height="48" viewBox="0 0 49 48" fill="none" xmlns="http://www.w3.org/2000/svg">
<g clip-path="url(#clip0)">
<path d="M22.9719 39.488C22.9719 40.276 23.1271 41.0562 23.4286 41.7841C23.7302 42.5121 24.1721 43.1735 24.7293 43.7307C25.2864 44.2878 25.9479 44.7298 26.6758 45.0313C27.4038 45.3328 28.184 45.488 28.9719 45.488C29.7599 45.488 30.5401 45.3328 31.268 45.0313C31.996 44.7298 32.6574 44.2878 33.2146 43.7307C33.7717 43.1735 34.2137 42.5121 34.5152 41.7841C34.8167 41.0562 34.9719 40.276 34.9719 39.488C34.9719 38.7001 34.8167 37.9199 34.5152 37.1919C34.2137 36.464 33.7717 35.8025 33.2146 35.2454C32.6574 34.6882 31.996 34.2463 31.268 33.9448C30.5401 33.6432 29.7599 33.488 28.9719 33.488C28.184 33.488 27.4038 33.6432 26.6758 33.9448C25.9479 34.2463 25.2864 34.6882 24.7293 35.2454C24.1721 35.8025 23.7302 36.464 23.4286 37.1919C23.1271 37.9199 22.9719 38.7001 22.9719 39.488Z" stroke="#005FFF" stroke-width="3" stroke-linecap="round" stroke-linejoin="round"/>
<path d="M33.214 35.2441L43.82 24.6381L47.002 27.8201" stroke="#005FFF" stroke-width="3" stroke-linecap="round" stroke-linejoin="round"/>
<path d="M39.578 28.88L41.7 31.002" stroke="#005FFF" stroke-width="3" stroke-linecap="round" stroke-linejoin="round"/>
<path d="M47.002 18.488V4.98804C47.002 4.19239 46.6859 3.42933 46.1233 2.86672C45.5607 2.30411 44.7976 1.98804 44.002 1.98804H5.00195C4.2063 1.98804 3.44324 2.30411 2.88063 2.86672C2.31802 3.42933 2.00195 4.19239 2.00195 4.98804V37.988C2.00195 38.7837 2.31802 39.5468 2.88063 40.1094C3.44324 40.672 4.2063 40.988 5.00195 40.988H15.5" stroke="#005FFF" stroke-width="3" stroke-linecap="round" stroke-linejoin="round"/>
<path d="M2.00195 10.988H47.002" stroke="#005FFF" stroke-width="3" stroke-linecap="round" stroke-linejoin="round"/>
</g>
<defs>
<clipPath id="clip0">
<rect width="48" height="48" fill="white" transform="translate(0.5)"/>
</clipPath>
</defs>
</svg>
