<svg width="58" height="59" viewBox="0 0 58 59" fill="none" xmlns="http://www.w3.org/2000/svg">
<path d="M17.9426 25.4221L28.7835 14.0788L39.6289 25.4313L45.9333 18.8274L28.7835 0.871094L11.6338 18.8228L17.9426 25.4221Z" fill="#F3BA2F"/>
<path d="M0.486511 30.2578L6.91541 23.6769L13.3488 30.2578L6.91541 36.8341L0.486511 30.2578Z" fill="#F3BA2F"/>
<path d="M17.9418 34.2074L28.7813 45.5595L39.6253 34.2028L45.9333 40.7998L28.7857 58.763L11.6338 40.8137L17.9418 34.2074Z" fill="#F3BA2F"/>
<path d="M44.2183 30.2555L50.6472 23.6769L57.0806 30.2509L50.6472 36.8341L44.2183 30.2555Z" fill="#F3BA2F"/>
<path d="M35.6434 30.2646L29.2123 23.6769L24.4565 28.5451L23.9069 29.1031L22.7811 30.2555L29.2123 36.8341L35.6434 30.2691V30.2646Z" fill="#F3BA2F"/>
</svg>
