<svg width="58" height="59" viewBox="0 0 58 59" fill="none" xmlns="http://www.w3.org/2000/svg">
<g clip-path="url(#clip0)">
<path fill-rule="evenodd" clip-rule="evenodd" d="M29.027 0.925415C44.9828 0.925415 57.9176 13.8601 57.9176 29.8158C57.9176 45.7715 44.9828 58.7063 29.027 58.7063C13.0713 58.7063 0.136658 45.7715 0.136658 29.8158C0.136658 13.8601 13.0713 0.925415 29.027 0.925415Z" fill="#2E3148"/>
<path fill-rule="evenodd" clip-rule="evenodd" d="M28.9714 13.1494C38.1767 13.1494 45.639 20.6118 45.639 29.817C45.639 39.0222 38.1767 46.4845 28.9714 46.4845C19.7662 46.4845 12.304 39.0222 12.304 29.817C12.304 20.6118 19.7662 13.1494 28.9714 13.1494Z" fill="#161931"/>
<path fill-rule="evenodd" clip-rule="evenodd" d="M29.4808 5.86824C29.2513 5.65704 29.1328 5.65304 29.1129 5.65304C29.093 5.65304 28.9746 5.65704 28.7451 5.86824C28.5095 6.08504 28.2279 6.45911 27.9245 7.03628C27.3189 8.1883 26.7392 9.92958 26.2396 12.1764C25.2445 16.6518 24.6193 22.8893 24.6193 29.8171C24.6193 36.7449 25.2445 42.9823 26.2396 47.4577C26.7392 49.7046 27.3189 51.4459 27.9245 52.5979C28.2279 53.175 28.5095 53.5491 28.7451 53.7659C28.9746 53.9771 29.093 53.9811 29.1129 53.9811C29.1328 53.9811 29.2513 53.9771 29.4808 53.7659C29.7164 53.5491 29.998 53.175 30.3014 52.5979C30.907 51.4459 31.4867 49.7046 31.9863 47.4577C32.9814 42.9823 33.6067 36.7449 33.6067 29.8171C33.6067 22.8893 32.9814 16.6518 31.9863 12.1764C31.4867 9.92958 30.907 8.1883 30.3014 7.03628C29.998 6.45911 29.7164 6.08504 29.4808 5.86824ZM34.7374 29.8171C34.7374 15.8472 32.2192 4.52234 29.1129 4.52234C26.0067 4.52234 23.4886 15.8472 23.4886 29.8171C23.4886 43.7869 26.0067 55.1118 29.1129 55.1118C32.2192 55.1118 34.7374 43.7869 34.7374 29.8171Z" fill="#6F7390"/>
<path fill-rule="evenodd" clip-rule="evenodd" d="M50.0503 18.1602C50.1185 17.8561 50.0627 17.752 50.053 17.7354C50.0433 17.7185 49.9808 17.618 49.6828 17.5249C49.377 17.4293 48.9119 17.3726 48.2599 17.3986C46.9586 17.4504 45.1596 17.8194 42.9627 18.5105C38.5868 19.8869 32.8689 22.4645 26.8654 25.9284C20.862 29.3923 15.7694 33.0522 12.3887 36.1513C10.6914 37.7071 9.47228 39.0795 8.77673 40.1797C8.42831 40.7309 8.24502 41.1616 8.17498 41.4738C8.10674 41.7777 8.16248 41.8818 8.17221 41.8986C8.18187 41.9154 8.2444 42.0159 8.5424 42.109C8.84819 42.2046 9.31331 42.2613 9.96533 42.2353C11.2667 42.1834 13.0656 41.8145 15.2625 41.1234C19.6384 39.747 25.3564 37.1694 31.3598 33.7055C37.3632 30.2416 42.4558 26.5817 45.8365 23.4827C47.5338 21.9268 48.7529 20.5544 49.4484 19.4543C49.7969 18.903 49.9802 18.4723 50.0503 18.1602ZM7.19313 42.4642C8.74632 45.1527 19.8191 41.6698 31.9248 34.6849C44.0306 27.7 52.5852 19.8582 51.0321 17.1697C49.4789 14.4813 38.4061 17.9642 26.3003 24.9491C14.1945 31.9339 5.63998 39.7757 7.19313 42.4642Z" fill="#6F7390"/>
<path fill-rule="evenodd" clip-rule="evenodd" d="M51.0321 42.4642C52.5852 39.7757 44.0306 31.9339 31.9248 24.9491C19.8191 17.9642 8.74632 14.4813 7.19313 17.1697C5.63998 19.8582 14.1945 27.7 26.3003 34.6849C38.4061 41.6698 49.4789 45.1527 51.0321 42.4642ZM8.17221 17.7354C8.18193 17.7185 8.24451 17.6179 8.5424 17.5249C8.84819 17.4293 9.31331 17.3726 9.96533 17.3986C11.2667 17.4504 13.0656 17.8194 15.2625 18.5105C19.6384 19.8869 25.3564 22.4645 31.3598 25.9284C37.3632 29.3923 42.4558 33.0522 45.8365 36.1513C47.5338 37.7071 48.7529 39.0795 49.4484 40.1797C49.7969 40.7309 49.9802 41.1616 50.0503 41.4738C50.1185 41.7779 50.0627 41.8819 50.053 41.8986C50.0433 41.9154 49.9808 42.0159 49.6828 42.109C49.377 42.2046 48.9119 42.2613 48.2599 42.2353C46.9586 42.1834 45.1596 41.8145 42.9627 41.1234C38.5868 39.747 32.8689 37.1694 26.8655 33.7055C20.862 30.2416 15.7694 26.5817 12.3887 23.4827C10.6914 21.9268 9.47228 20.5544 8.77673 19.4543C8.42831 18.903 8.24502 18.4723 8.17498 18.1602C8.10674 17.8562 8.16248 17.7521 8.17221 17.7354Z" fill="#6F7390"/>
<path fill-rule="evenodd" clip-rule="evenodd" d="M12.9455 22.7333C13.9278 22.7333 14.7242 23.53 14.7242 24.5128C14.7242 25.4957 13.9278 26.2924 12.9455 26.2924C11.9631 26.2924 11.1667 25.4957 11.1667 24.5128C11.1667 23.53 11.9631 22.7333 12.9455 22.7333Z" fill="#B7B9C8"/>
<path fill-rule="evenodd" clip-rule="evenodd" d="M41.2152 16.6393C42.198 16.6393 42.9948 17.436 42.9948 18.4189C42.9948 19.4018 42.198 20.1985 41.2152 20.1985C40.2323 20.1985 39.4356 19.4018 39.4356 18.4189C39.4356 17.436 40.2323 16.6393 41.2152 16.6393Z" fill="#B7B9C8"/>
<path fill-rule="evenodd" clip-rule="evenodd" d="M25.5286 44.5713C26.5114 44.5713 27.3082 45.3676 27.3082 46.3501C27.3082 47.3324 26.5114 48.1288 25.5286 48.1288C24.5457 48.1288 23.749 47.3324 23.749 46.3501C23.749 45.3676 24.5457 44.5713 25.5286 44.5713Z" fill="#B7B9C8"/>
<path fill-rule="evenodd" clip-rule="evenodd" d="M29.0139 26.7909C30.6779 26.7909 32.0268 28.1399 32.0268 29.8039C32.0268 31.4679 30.6779 32.8168 29.0139 32.8168C27.3499 32.8168 26.0009 31.4679 26.0009 29.8039C26.0009 28.1399 27.3499 26.7909 29.0139 26.7909Z" fill="#B7B9C8"/>
</g>
<defs>
<clipPath id="clip0">
<rect width="57.8919" height="57.8919" fill="white" transform="translate(0.0810852 0.871094)"/>
</clipPath>
</defs>
</svg>
