<svg width="45" height="63" viewBox="0 0 45 63" fill="none" xmlns="http://www.w3.org/2000/svg">
<path d="M22.6558 0.871094C10.5461 0.871094 0.648651 10.339 0.648651 22.0477C0.648651 24.4007 1.05619 26.6976 1.81305 28.9386C2.33703 30.4512 4.08364 31.2915 5.7138 30.7873C7.28574 30.2831 8.15904 28.6024 7.63506 27.0338C6.99464 25.2971 6.70354 23.4483 6.76176 21.5996C6.99464 13.7003 13.6317 7.20168 21.8408 6.80952C30.9813 6.36134 38.5499 13.3642 38.5499 22.0477C38.5499 30.1711 31.9128 36.8378 23.5874 37.286C23.5874 37.286 20.5017 37.454 18.988 37.6781C18.2311 37.7902 17.6489 37.9022 17.2414 37.9582C17.0667 38.0143 16.8921 37.8462 16.9503 37.6781L17.4743 35.2131L20.327 22.5519C20.6764 20.9833 19.6284 19.4147 17.9982 19.0785C16.3681 18.7424 14.7379 19.7508 14.3886 21.3194C14.3886 21.3194 7.51862 52.132 7.4604 52.4682C7.11108 54.0368 8.15904 55.6054 9.78921 55.9416C11.4194 56.2777 13.0495 55.2693 13.3989 53.7007C13.4571 53.3645 14.3886 49.2749 14.3886 49.2749C15.0872 46.1376 17.7654 43.8406 20.9092 43.4485C21.6079 43.3364 24.3442 43.1684 24.3442 43.1684C35.6971 42.328 44.663 33.1963 44.663 22.0477C44.663 10.339 34.7656 0.871094 22.6558 0.871094Z" fill="black"/>
<path d="M24.2588 56.184C22.3687 55.8091 20.4787 56.9339 20.0895 58.8088C19.7004 60.63 20.8678 62.4512 22.8134 62.8262C24.7035 63.2012 26.5936 62.0763 26.9827 60.2015C27.3718 58.3267 26.2044 56.559 24.2588 56.184Z" fill="#E6007A"/>
</svg>
