<?xml version="1.0" encoding="UTF-8"?>
<svg width="155px" height="31px" viewBox="0 0 155 31" version="1.1" xmlns="http://www.w3.org/2000/svg" xmlns:xlink="http://www.w3.org/1999/xlink">
    <title>Logo</title>
    <defs>
        <circle id="path-1" cx="15.5" cy="15.5" r="15.5"/>
    </defs>
    <g id="010-Site" stroke="none" stroke-width="1" fill="none" fill-rule="evenodd">
        <g id="010-010-Homepage" transform="translate(-135.000000, -52.000000)">
            <g id="Hero">
                <g id="Header" transform="translate(135.000000, 44.000000)">
                    <g id="Left" transform="translate(0.000000, 6.000000)">
                        <g id="Logo" transform="translate(0.000000, 2.000000)">
                            <g id="Avatar">
                                <mask id="mask-2" fill="white">
                                    <use xlink:href="#path-1"/>
                                </mask>
                                <use id="Oval" fill="#0054FF" xlink:href="#path-1"/>
                                <g id="Logo" mask="url(#mask-2)" fill="#FFFFFF">
                                    <g transform="translate(-6.929412, -6.200000)" id="Icon-Copy-12">
                                        <path d="M22.0647059,34.3589479 C22.7599868,34.3589479 23.3236233,34.9225845 23.3236233,35.6178654 L23.3236233,39.9773414 C23.3236233,40.6726223 22.7599868,41.2362588 22.0647059,41.2362588 C21.369425,41.2362588 20.8057884,40.6726223 20.8057884,39.9773414 L20.8057884,35.6178654 C20.8057884,34.9225845 21.369425,34.3589479 22.0647059,34.3589479 Z M21.8421586,27.872788 C23.0589002,27.872788 24.0452642,28.8524943 24.0452642,30.0610233 C24.0452642,31.2695523 23.0589002,32.2492586 21.8421586,32.2492586 C20.625417,32.2492586 19.6390531,31.2695523 19.6390531,30.0610233 C19.6390531,28.8524943 20.625417,27.872788 21.8421586,27.872788 Z M16.2646071,28.589558 C16.9551951,28.589558 17.5150272,29.1493902 17.5150272,29.8399782 C17.5150272,30.5305662 16.9551951,31.0903983 16.2646071,31.0903983 L11.8414014,31.0903983 C11.1508134,31.0903983 10.5909812,30.5305662 10.5909812,29.8399782 C10.5909812,29.1493902 11.1508134,28.589558 11.8414014,28.589558 L16.2646071,28.589558 Z M22.0647059,18.4436975 C22.7599868,18.4436975 23.3236233,19.007334 23.3236233,19.7026149 L23.3236233,24.0620909 C23.3236233,24.7573719 22.7599868,25.3210084 22.0647059,25.3210084 C21.369425,25.3210084 20.8057884,24.7573719 20.8057884,24.0620909 L20.8057884,19.7026149 C20.8057884,19.007334 21.369425,18.4436975 22.0647059,18.4436975 Z M21.8421586,11.9575376 C23.0589002,11.9575376 24.0452642,12.9372439 24.0452642,14.1457729 C24.0452642,15.3543018 23.0589002,16.3340082 21.8421586,16.3340082 C20.625417,16.3340082 19.6390531,15.3543018 19.6390531,14.1457729 C19.6390531,12.9372439 20.625417,11.9575376 21.8421586,11.9575376 Z M32.2880104,12.6743076 C32.9785984,12.6743076 33.5384306,13.2341397 33.5384306,13.9247277 C33.5384306,14.6153157 32.9785984,15.1751479 32.2880104,15.1751479 L27.8648047,15.1751479 C27.1742167,15.1751479 26.6143845,14.6153157 26.6143845,13.9247277 C26.6143845,13.2341397 27.1742167,12.6743076 27.8648047,12.6743076 L32.2880104,12.6743076 Z M22.0647059,2.52844704 C22.7599868,2.52844704 23.3236233,3.09208358 23.3236233,3.7873645 L23.3236233,8.1468405 C23.3236233,8.84212141 22.7599868,9.40575796 22.0647059,9.40575796 C21.369425,9.40575796 20.8057884,8.84212141 20.8057884,8.1468405 L20.8057884,3.7873645 C20.8057884,3.09208358 21.369425,2.52844704 22.0647059,2.52844704 Z" transform="translate(22.064706, 21.882353) rotate(-45.000000) translate(-22.064706, -21.882353) "/>
                                    </g>
                                </g>
                            </g>
                            <path d="M42.0943947,23.6570796 C43.1453873,23.6570796 44.0577073,23.4509587 44.8313546,23.0387168 C45.6050019,22.6264749 46.2497081,21.8834808 46.7654729,20.8097345 L46.7654729,20.8097345 L47.1158038,23.369469 L50.677501,23.369469 L50.677501,12.914823 C50.677501,11.9465339 50.4682756,11.1100664 50.0498248,10.4054204 C49.6313741,9.70077434 48.9550409,9.15910767 48.0208252,8.78042035 C47.0866096,8.40173304 45.8458544,8.21238938 44.2985598,8.21238938 C43.0432075,8.21238938 41.9216621,8.382559 40.9339237,8.72289823 C39.9461853,9.06323746 39.1652394,9.58093658 38.591086,10.2759956 C38.0169327,10.9710546 37.7006617,11.8554572 37.6422733,12.9292035 L37.6422733,12.9292035 L41.1893733,12.9292035 C41.393733,12.2389381 41.7756909,11.7547935 42.3352472,11.4767699 C42.8948034,11.1987463 43.4859868,11.054941 44.1087972,11.045354 C44.9554301,11.035767 45.5806734,11.2155236 45.9845271,11.5846239 C46.3883807,11.9537242 46.5903075,12.4786136 46.5903075,13.159292 L46.5903075,13.159292 L46.5903075,14.050885 L44.7072791,14.079646 C42.0408719,14.1084071 40.0897236,14.5470133 38.8538342,15.3954646 C37.6179447,16.2439159 37,17.4830383 37,19.1128319 C37,20.0811209 37.2238225,20.903208 37.6714675,21.5790929 C38.1191125,22.2549779 38.7273258,22.7702802 39.4961074,23.125 C40.2648891,23.4797198 41.1309848,23.6570796 42.0943947,23.6570796 Z M43.5249124,20.8960177 C42.8339821,20.8960177 42.2452316,20.7018805 41.758661,20.3136062 C41.2720903,19.9253319 41.028805,19.3860619 41.028805,18.6957965 C41.028805,18.0918142 41.2161347,17.6124631 41.5907941,17.2577434 C41.9654535,16.9030236 42.4593227,16.6465708 43.0724017,16.488385 C43.6854807,16.3301991 44.3472168,16.2463127 45.05761,16.2367257 L45.05761,16.2367257 L46.5903075,16.2079646 L46.5903075,18.4081858 C46.5903075,18.7245575 46.5027248,19.0313422 46.3275594,19.3285398 C46.1523939,19.6257375 45.9212729,19.8917773 45.6341962,20.1266593 C45.3471195,20.3615413 45.0211172,20.5484882 44.6561892,20.6875 C44.2912612,20.8265118 43.9141689,20.8960177 43.5249124,20.8960177 Z M59.2752044,23.6283186 C59.5671467,23.6283186 59.8639548,23.5923673 60.1656286,23.5204646 C60.4673025,23.4485619 60.7641105,23.3646755 61.0560529,23.2688053 L61.0560529,23.2688053 L61.0560529,20.6803097 L60.3407941,20.6371681 C59.679058,20.560472 59.2289801,20.3519543 58.9905605,20.011615 C58.7521409,19.6712758 58.6329311,19.2278761 58.6329311,18.6814159 L58.6329311,18.6814159 L58.6329311,2 L54.4581549,2 L54.4581549,19.199115 C54.4581549,19.7359882 54.5019463,20.2656711 54.589529,20.7881637 C54.6771117,21.3106563 54.8766057,21.7852139 55.1880109,22.2118363 C55.4994161,22.6384587 55.9811211,22.9811947 56.6331257,23.2400442 C57.2851304,23.4988938 58.1658233,23.6283186 59.2752044,23.6283186 Z M70.7631374,23.6570796 C71.81413,23.6570796 72.826197,23.4605457 73.7993383,23.0674779 C74.7724796,22.67441 75.6020825,22.1039823 76.2881471,21.3561947 C76.9742118,20.6084071 77.3999611,19.7072271 77.5653951,18.6526549 L77.5653951,18.6526549 L73.7263527,18.6526549 C73.5122616,19.3525074 73.1303036,19.855826 72.5804788,20.1626106 C72.030654,20.4693953 71.3908135,20.6227876 70.6609576,20.6227876 C69.9797587,20.6227876 69.3983067,20.471792 68.9166018,20.1698009 C68.4348968,19.8678097 68.067536,19.4363938 67.8145193,18.8755531 C67.5615025,18.3147124 67.4398599,17.6556047 67.4495913,16.8982301 L67.4495913,16.8982301 L77.5799922,16.8982301 L77.5799922,15.7621681 C77.5799922,14.2761799 77.3148112,12.9651549 76.7844492,11.8290929 C76.2540872,10.693031 75.4658427,9.80623156 74.4197158,9.16869469 C73.3735889,8.53115782 72.0817439,8.21238938 70.5441806,8.21238938 C69.0066174,8.21238938 67.6904438,8.55991888 66.5956598,9.25497788 C65.5008758,9.95003687 64.6664072,10.8943584 64.0922538,12.0879425 C63.5181004,13.2815265 63.2310237,14.6213127 63.2310237,16.1073009 C63.2310237,17.6412242 63.5472947,18.9738201 64.1798365,20.1050885 C64.8123784,21.2363569 65.6955041,22.1111726 66.8292137,22.7295354 C67.9629233,23.3478982 69.2742312,23.6570796 70.7631374,23.6570796 Z M73.5949786,14.3960177 L67.4349942,14.3960177 C67.4349942,13.8495575 67.5566368,13.3270649 67.7999221,12.8285398 C68.0432075,12.3300147 68.3959712,11.9249631 68.8582133,11.613385 C69.3204554,11.3018068 69.8824445,11.1460177 70.5441806,11.1460177 C71.2253795,11.1460177 71.7922343,11.289823 72.244745,11.5774336 C72.6972557,11.8650442 73.0354223,12.2581121 73.2592448,12.7566372 C73.4830673,13.2551622 73.5949786,13.8016224 73.5949786,14.3960177 L73.5949786,14.3960177 Z M84.8055664,28 L84.8055664,21.1404867 C85.0196575,21.4952065 85.2702413,21.8235619 85.557318,22.1255531 C85.8443947,22.4275442 86.170397,22.6935841 86.535325,22.9236726 C86.900253,23.1537611 87.2968081,23.3335177 87.7249903,23.4629425 C88.1531724,23.5923673 88.6105489,23.6570796 89.0971195,23.6570796 C90.2843519,23.6570796 91.3499416,23.379056 92.2938887,22.8230088 C93.2378357,22.2669617 93.979856,21.4113201 94.5199494,20.2560841 C95.0600428,19.1008481 95.3300895,17.6220501 95.3300895,15.8196903 C95.3300895,14.0844395 95.0795056,12.6535767 94.5783379,11.5271018 C94.0771701,10.4006268 93.3886726,9.56655605 92.5128455,9.02488938 C91.6370183,8.48322271 90.6395485,8.21238938 89.520436,8.21238938 C89.0046711,8.21238938 88.5132347,8.27230826 88.0461269,8.39214602 C87.5790191,8.51198378 87.1459712,8.68215339 86.7469833,8.90265487 C86.3479953,9.12315634 85.9855002,9.37960914 85.6594979,9.67201327 C85.3334955,9.9644174 85.0585831,10.2879794 84.8347606,10.6426991 L84.8347606,10.6426991 L84.8201635,8.5 L80.5432075,8.5 L80.5432075,28 L84.8055664,28 Z M88.0753211,20.579646 C87.3357337,20.579646 86.7250876,20.3591445 86.2433826,19.9181416 C85.7616777,19.4771386 85.4016154,18.8971239 85.1631958,18.1780973 C84.9247762,17.4590708 84.8055664,16.6825221 84.8055664,15.8484513 C84.8055664,14.5446165 85.0756131,13.4540929 85.6157065,12.5768805 C86.1557999,11.6996681 86.9756715,11.2610619 88.0753211,11.2610619 C89.0581938,11.2610619 89.8488712,11.6661136 90.4473531,12.4762168 C91.045835,13.2863201 91.3450759,14.4103982 91.3450759,15.8484513 C91.3450759,17.4878319 91.0312378,18.6862094 90.4035617,19.4435841 C89.7758856,20.2009587 88.9998054,20.579646 88.0753211,20.579646 Z M102.42429,23.369469 L102.42429,13.8783186 C102.42429,13.3893805 102.558097,12.9795354 102.82571,12.6487832 C103.093324,12.318031 103.441222,12.0711652 103.869404,11.9081858 C104.297587,11.7452065 104.740366,11.6637168 105.197742,11.6637168 C105.898404,11.6637168 106.494453,11.8434735 106.985889,12.2029867 C107.477326,12.5625 107.723044,13.0778024 107.723044,13.7488938 L107.723044,13.7488938 L107.723044,23.369469 L112,23.369469 L112,13.130531 C112,12.1238938 111.759148,11.270649 111.277443,10.5707965 C110.795738,9.87094395 110.15833,9.33646755 109.36522,8.96736726 C108.57211,8.59826696 107.69385,8.41371681 106.73044,8.41371681 C105.932464,8.41371681 105.256131,8.52876106 104.70144,8.75884956 C104.14675,8.98893805 103.684508,9.27415192 103.314714,9.61449115 C102.94492,9.95483038 102.638381,10.2975664 102.395095,10.6426991 L102.395095,10.6426991 L102.395095,2 L98.1619307,2 L98.1619307,23.369469 L102.42429,23.369469 Z" id="aleph" fill="#000000" fill-rule="nonzero"/>
                            <path d="M128.148095,24 L128.148095,8.97301038 L124.029524,8.97301038 L124.029524,24 L128.148095,24 Z M136.370476,24 L136.370476,14.3792388 C136.370476,13.8754325 136.503333,13.4564014 136.769048,13.1221453 C137.034762,12.7878893 137.364444,12.5408304 137.758095,12.3809689 C138.151746,12.2211073 138.545397,12.1411765 138.939048,12.1411765 C139.322857,12.1411765 139.699286,12.2211073 140.068333,12.3809689 C140.437381,12.5408304 140.744921,12.7757785 140.990952,13.0858131 C141.236984,13.3958478 141.36,13.7785467 141.36,14.23391 L141.36,14.23391 L141.36,24 L145.655714,24 L145.655714,14.3792388 C145.655714,13.8463668 145.793492,13.4152249 146.069048,13.0858131 C146.344603,12.7564014 146.679206,12.516609 147.072857,12.366436 C147.466508,12.216263 147.855238,12.1411765 148.239048,12.1411765 C148.652381,12.1411765 149.043571,12.2211073 149.412619,12.3809689 C149.781667,12.5408304 150.086746,12.8024221 150.327857,13.1657439 C150.568968,13.5290657 150.689524,14.0110727 150.689524,14.6117647 L150.689524,14.6117647 L150.689524,24 L155,24 L155,14.0885813 C155,13.0712803 154.849921,12.216263 154.549762,11.5235294 C154.249603,10.8307958 153.853492,10.2761246 153.361429,9.85951557 C152.869365,9.44290657 152.330556,9.14256055 151.745,8.95847751 C151.159444,8.77439446 150.58127,8.68235294 150.010476,8.68235294 C149.026349,8.68235294 148.133254,8.91245675 147.33119,9.37266436 C146.529127,9.83287197 145.882063,10.4069204 145.39,11.0948097 C145.094762,10.5619377 144.708492,10.1186851 144.23119,9.7650519 C143.753889,9.41141869 143.244603,9.14256055 142.703333,8.95847751 C142.162063,8.77439446 141.630635,8.68235294 141.109048,8.68235294 C139.918254,8.68235294 138.931667,8.91972318 138.149286,9.39446367 C137.366905,9.86920415 136.744444,10.4359862 136.281905,11.0948097 L136.281905,11.0948097 L136.281905,8.97301038 L132.06,8.97301038 L132.06,24 L136.370476,24 Z" id="im" fill="#000000" fill-rule="nonzero"/>
                            <circle id="Oval-Copy-4" fill="#000000" cx="126" cy="4" r="2"/>
                            <circle id="Oval-Copy-5" fill="#000000" cx="118" cy="22" r="2"/>
                        </g>
                    </g>
                </g>
            </g>
        </g>
    </g>
</svg>